<svg width="29" height="29" viewBox="0 0 29 29" fill="none" xmlns="http://www.w3.org/2000/svg">
<path d="M20.9444 9.90833C20.9444 8.24189 20.2655 6.6437 19.0569 5.46535C17.8483 4.28699 16.2092 3.625 14.5 3.625C12.7908 3.625 11.1517 4.28699 9.94308 5.46535C8.73452 6.6437 8.05555 8.24189 8.05555 9.90833C8.05555 17.2389 4.83333 20.5417 4.83333 20.5417H24.1667C24.1667 20.5417 20.9444 17.2389 20.9444 9.90833Z" fill="#7B47CC"/>
<path d="M16.9167 24.1667C16.6711 24.5342 16.3186 24.8393 15.8944 25.0513C15.4703 25.2634 14.9895 25.375 14.5 25.375C14.0106 25.375 13.5297 25.2634 13.1056 25.0513C12.6814 24.8393 12.3289 24.5342 12.0833 24.1667" stroke="#7B47CC" stroke-width="1.5" stroke-linecap="round" stroke-linejoin="round"/>
</svg>
