<svg width="24" height="25" viewBox="0 0 24 25" fill="none" xmlns="http://www.w3.org/2000/svg">
<path d="M17.3333 8.41631C17.3333 7.03718 16.7714 5.71454 15.7712 4.73935C14.771 3.76416 13.4145 3.21631 12 3.21631C10.5855 3.21631 9.22896 3.76416 8.22876 4.73935C7.22857 5.71454 6.66667 7.03718 6.66667 8.41631C6.66667 14.483 4 17.2163 4 17.2163H20C20 17.2163 17.3333 14.483 17.3333 8.41631Z" stroke="#17191F" stroke-width="1.5" stroke-linecap="round" stroke-linejoin="round"/>
<path d="M14 20.2163C13.7968 20.5205 13.505 20.7729 13.154 20.9484C12.803 21.1239 12.4051 21.2163 12 21.2163C11.5949 21.2163 11.197 21.1239 10.846 20.9484C10.495 20.7729 10.2032 20.5205 10 20.2163" stroke="#17191F" stroke-width="1.5" stroke-linecap="round" stroke-linejoin="round"/>
</svg>
