<svg width="24" height="24" viewBox="0 0 24 24" fill="none" xmlns="http://www.w3.org/2000/svg">
<path fill-rule="evenodd" clip-rule="evenodd" d="M15.8121 3.80444C16.045 2.73667 17.5654 2.73012 17.8101 3.79528L17.8205 3.845L17.8428 3.93922C17.9723 4.4916 18.2614 4.99368 18.6741 5.38295C19.0868 5.77221 19.6049 6.03146 20.1639 6.12841C21.2787 6.32338 21.2787 7.92373 20.1639 8.1174C19.6016 8.21471 19.0807 8.47625 18.6667 8.86907C18.2527 9.26189 17.9642 9.76844 17.8375 10.3249L17.8101 10.4505C17.5667 11.517 16.045 11.5104 15.8121 10.4414L15.7872 10.3341C15.6647 9.77634 15.3791 9.26766 14.9667 8.87271C14.5543 8.47776 14.0338 8.21439 13.4713 8.11609C12.3592 7.92242 12.3592 6.32338 13.4713 6.13103C14.0322 6.03322 14.5514 5.77129 14.9634 5.37836C15.3754 4.98542 15.6616 4.47914 15.7859 3.92352L15.8029 3.845L15.8121 3.80444ZM4.27964 3.07165C4.11166 3.07148 3.94529 3.10442 3.79004 3.16859C3.6348 3.23276 3.49372 3.32691 3.37488 3.44564C3.25603 3.56437 3.16176 3.70536 3.09743 3.86056C3.03311 4.01575 3 4.1821 3 4.3501V9.78317C3 10.4898 3.57309 11.0616 4.27964 11.0616H9.71353C10.4201 11.0616 10.9919 10.4898 10.9919 9.78317V4.3501C10.992 4.1821 10.9591 4.01572 10.8949 3.86046C10.8308 3.7052 10.7366 3.56411 10.6179 3.44526C10.4992 3.3264 10.3582 3.23212 10.203 3.16779C10.0478 3.10346 9.88151 3.07034 9.71353 3.07035L4.27964 3.07165ZM3 14.2859C3 13.5793 3.57309 13.0074 4.27964 13.0074H9.71353C10.4201 13.0074 10.9919 13.5793 10.9919 14.2859V19.7202C10.9919 20.4269 10.4201 21 9.71353 21H4.27964C4.11155 21.0002 3.94507 20.9672 3.78974 20.9029C3.63441 20.8387 3.49327 20.7444 3.37441 20.6256C3.25555 20.5067 3.1613 20.3655 3.09706 20.2102C3.03281 20.0548 2.99983 19.8884 3 19.7202V14.2859ZM12.9375 14.2859C12.9375 13.5793 13.5093 13.0074 14.2158 13.0074H19.6497C20.3563 13.0074 20.9293 13.5793 20.9293 14.2859V19.7202C20.9293 20.4269 20.3563 21 19.6497 21H14.2171C14.0491 21 13.8828 20.9669 13.7276 20.9026C13.5724 20.8382 13.4315 20.7439 13.3127 20.6251C13.194 20.5062 13.0999 20.3651 13.0357 20.2099C12.9716 20.0546 12.9386 19.8882 12.9388 19.7202V14.2872L12.9375 14.2859Z" fill="#7B47CC"/>
</svg>
