<svg width="24" height="24" viewBox="0 0 24 24" fill="none" xmlns="http://www.w3.org/2000/svg">
<path d="M4.2793 13.5078H9.71387C10.1441 13.508 10.4922 13.8557 10.4922 14.2861V19.7207C10.4919 20.1516 10.1433 20.4998 9.71387 20.5H4.2793C4.17696 20.5001 4.07504 20.4795 3.98047 20.4404C3.88609 20.4013 3.79978 20.3447 3.72754 20.2725C3.6553 20.2002 3.59869 20.1139 3.55957 20.0195C3.52045 19.9249 3.4999 19.8231 3.5 19.7207V14.2861C3.5 13.8564 3.84842 13.508 4.2793 13.5078ZM9.71387 3.57031C9.81602 3.57036 9.91734 3.59076 10.0117 3.62988C10.1061 3.66902 10.1915 3.72658 10.2637 3.79883C10.336 3.8712 10.3935 3.95722 10.4326 4.05176C10.4619 4.1227 10.4809 4.19732 10.4883 4.27344L10.4922 4.34961V9.7832C10.4922 10.2136 10.1441 10.5613 9.71387 10.5615H4.2793C3.84843 10.5613 3.50002 10.2129 3.5 9.7832V4.35059L3.50391 4.27344C3.51143 4.19744 3.53022 4.12256 3.55957 4.05176C3.59872 3.95742 3.65628 3.872 3.72852 3.7998C3.80088 3.72751 3.88693 3.66993 3.98145 3.63086C4.05239 3.60157 4.12701 3.58258 4.20312 3.5752L4.2793 3.57129L9.71387 3.57031ZM16.3008 3.91113C16.4118 3.40221 17.1022 3.36235 17.292 3.81055L17.3223 3.90723L17.3311 3.94824L17.334 3.95996L17.3564 4.05371C17.5084 4.70141 17.8471 5.29061 18.3311 5.74707C18.7546 6.14645 19.2729 6.42872 19.835 6.56934L20.0781 6.62109C20.6073 6.71398 20.6369 7.42945 20.1768 7.59863L20.0781 7.625C19.4188 7.73922 18.8077 8.04622 18.3223 8.50684C17.8976 8.90988 17.585 9.41466 17.4141 9.97168L17.3496 10.2139L17.3486 10.2178L17.3223 10.3389C17.2052 10.8517 16.5138 10.8791 16.3301 10.4307L16.3008 10.335L16.2988 10.3281L16.2744 10.2217C16.13 9.56911 15.7952 8.97406 15.3125 8.51172C14.889 8.10616 14.3685 7.8186 13.8027 7.67578L13.5576 7.62402L13.5566 7.62305L13.458 7.59766C13.0284 7.43931 13.0315 6.80614 13.459 6.64941L13.5566 6.62402H13.5576C14.2158 6.50918 14.8251 6.20134 15.3086 5.74023C15.7316 5.33674 16.0413 4.83125 16.21 4.27441L16.2734 4.03223L16.2744 4.0293L16.292 3.95117L16.291 3.9502L16.3008 3.91113ZM13.4385 14.2656C13.4492 13.8445 13.7922 13.5078 14.2158 13.5078H19.6494C20.0804 13.5078 20.4297 13.8563 20.4297 14.2861V19.7207C20.4294 20.151 20.0796 20.5 19.6494 20.5H14.2168L14.1406 20.4961C14.0646 20.4886 13.9898 20.4698 13.9189 20.4404C13.8246 20.4013 13.7382 20.3438 13.666 20.2715C13.5939 20.1992 13.5371 20.1129 13.498 20.0186C13.459 19.9241 13.4384 19.8229 13.4385 19.7207V14.2656Z" stroke="#67656B"/>
</svg>
