<svg width="25" height="24" viewBox="0 0 25 24" fill="none" xmlns="http://www.w3.org/2000/svg">
<path d="M11.4854 3.50293C11.6642 3.48673 11.8408 3.55074 11.9678 3.67773L20.2002 11.9092C20.4365 12.1456 20.4365 12.5292 20.2002 12.7656L12.3838 20.582C12.1474 20.8184 11.7638 20.8183 11.5273 20.582L3.2959 12.3496C3.1689 12.2226 3.10489 12.046 3.12109 11.8672L3.77246 4.70215C3.79892 4.4111 4.02927 4.18076 4.32031 4.1543L11.4854 3.50293Z" fill="#6425C1" stroke="#6425C1"/>
<path d="M14.0596 21.3774L22.2993 13.1534C22.7314 12.7221 22.732 12.0222 22.3008 11.5901L14.4919 3.76635" stroke="#6425C1" stroke-linecap="round" stroke-linejoin="round"/>
<path d="M8.44482 8.98022H8.44632V8.98172H8.44482V8.98022Z" fill="white" stroke="white" stroke-width="2.2108" stroke-linecap="round" stroke-linejoin="round"/>
</svg>
