<svg width="34" height="40" viewBox="0 0 34 40" fill="none" xmlns="http://www.w3.org/2000/svg">
<path d="M32.8729 31.1721C32.2745 32.5696 31.5661 33.856 30.7453 35.0387C29.6266 36.651 28.7105 37.767 28.0046 38.3867C26.9103 39.404 25.7378 39.925 24.4822 39.9546C23.5808 39.9546 22.4938 39.6953 21.2285 39.1694C19.959 38.646 18.7924 38.3867 17.7256 38.3867C16.6069 38.3867 15.407 38.646 14.1236 39.1694C12.8382 39.6953 11.8028 39.9694 11.0111 39.9966C9.80708 40.0484 8.60697 39.5126 7.40906 38.3867C6.64449 37.7127 5.68817 36.5572 4.54253 34.9202C3.31336 33.1721 2.30281 31.145 1.51112 28.8339C0.663253 26.3377 0.23822 23.9205 0.23822 21.5803C0.23822 18.8997 0.811282 16.5877 1.95912 14.6502C2.86121 13.0939 4.06132 11.8663 5.56335 10.9651C7.06537 10.0639 8.68832 9.60465 10.4361 9.57527C11.3924 9.57527 12.6465 9.87427 14.205 10.4619C15.759 11.0515 16.7569 11.3505 17.1943 11.3505C17.5214 11.3505 18.6299 11.0009 20.5091 10.3039C22.2862 9.65749 23.786 9.38984 25.0147 9.49527C28.3441 9.76687 30.8455 11.0935 32.509 13.4835C29.5313 15.3072 28.0583 17.8614 28.0877 21.1381C28.1145 23.6904 29.0305 25.8143 30.8308 27.5007C31.6467 28.2833 32.5578 28.8883 33.5716 29.3179C33.3517 29.9623 33.1197 30.5796 32.8729 31.1721ZM25.237 0.800228C25.237 2.80068 24.514 4.6685 23.0728 6.39734C21.3335 8.45259 19.2299 9.64021 16.9486 9.4528C16.9195 9.21281 16.9027 8.96023 16.9027 8.6948C16.9027 6.77437 17.7298 4.71912 19.1986 3.03868C19.9319 2.18784 20.8645 1.48038 21.9955 0.916025C23.124 0.360092 24.1915 0.0526484 25.1955 0C25.2248 0.26743 25.237 0.534876 25.237 0.800202V0.800228Z" fill="#151515"/>
</svg>
