<svg width="342" height="172" viewBox="0 0 342 172" fill="none" xmlns="http://www.w3.org/2000/svg">
<g clip-path="url(#clip0_2113_28052)">
<g clip-path="url(#clip1_2113_28052)">
<mask id="mask0_2113_28052" style="mask-type:luminance" maskUnits="userSpaceOnUse" x="16" y="-1" width="325" height="279">
<path d="M16.1862 -0.982178H340.512V277.854H16.1862V-0.982178Z" fill="white"/>
</mask>
<g mask="url(#mask0_2113_28052)">
<path d="M307.971 86.6602L264.365 96.744L264.689 97.6505L307.971 86.6602Z" fill="white"/>
<path d="M242.824 18.4771L215.765 48.3214L216.695 48.8772L242.824 18.4771Z" fill="white"/>
<path d="M25.7054 71.9362L59.2227 95.3145L59.978 94.5646L25.7054 71.9362Z" fill="white"/>
<path d="M271.425 67.5298C270.262 67.5298 269.319 66.7552 269.319 65.7998C269.319 64.8444 270.262 64.0698 271.425 64.0698C272.588 64.0698 273.531 64.8444 273.531 65.7998C273.531 66.7552 272.588 67.5298 271.425 67.5298Z" fill="white"/>
<path d="M53.5173 123.268C52.6963 123.268 52.0308 122.721 52.0308 122.047C52.0308 121.372 52.6963 120.825 53.5173 120.825C54.3384 120.825 55.0039 121.372 55.0039 122.047C55.0039 122.721 54.3384 123.268 53.5173 123.268Z" fill="white"/>
<path d="M99.8494 142.315C99.0284 142.315 98.3628 141.769 98.3628 141.094C98.3628 140.42 99.0284 139.873 99.8494 139.873C100.67 139.873 101.336 140.42 101.336 141.094C101.336 141.769 100.67 142.315 99.8494 142.315Z" fill="white"/>
<path d="M70.4937 66.7212C69.3306 66.7212 68.3877 65.9466 68.3877 64.9912C68.3877 64.0358 69.3306 63.2612 70.4937 63.2612C71.6567 63.2612 72.5996 64.0358 72.5996 64.9912C72.5996 65.9466 71.6567 66.7212 70.4937 66.7212Z" fill="white"/>
<path d="M163.158 37.2148C161.995 37.2148 161.052 36.4403 161.052 35.4848C161.052 34.5294 161.995 33.7549 163.158 33.7549C164.321 33.7549 165.264 34.5294 165.264 35.4848C165.264 36.4403 164.321 37.2148 163.158 37.2148Z" fill="white"/>
<path d="M213.201 128.303C212.586 128.303 212.087 127.893 212.087 127.388C212.087 126.882 212.586 126.472 213.201 126.472C213.817 126.472 214.316 126.882 214.316 127.388C214.316 127.893 213.817 128.303 213.201 128.303Z" fill="white"/>
<path d="M207.998 104.58C207.519 104.58 207.131 104.216 207.131 103.766C207.131 103.317 207.519 102.952 207.998 102.952C208.477 102.952 208.865 103.317 208.865 103.766C208.865 104.216 208.477 104.58 207.998 104.58Z" fill="#FBFBFB"/>
</g>
<g opacity="0.1">
<circle cx="172.675" cy="100.908" r="136.32" fill="white"/>
<circle cx="171.9" cy="100.134" r="121.603" fill="#7086E0"/>
<circle cx="172.676" cy="100.908" r="103.789" fill="#5168C6"/>
<circle cx="172.676" cy="100.908" r="103.789" fill="white"/>
<circle cx="171.675" cy="96.9084" r="91.3962" fill="#7086E0"/>
<circle cx="171.675" cy="96.9086" r="63.5126" fill="white"/>
<circle cx="171.675" cy="96.9082" r="51.1199" fill="#5E74D1"/>
</g>
</g>
<mask id="mask1_2113_28052" style="mask-type:luminance" maskUnits="userSpaceOnUse" x="119" y="-4" width="186" height="184">
<path d="M119.5 -3.5H304.154V179.5H119.5V-3.5Z" fill="white"/>
</mask>
<g mask="url(#mask1_2113_28052)">
<path d="M258.011 137.305C229.958 137.305 207.216 114.542 207.216 86.4618C207.216 58.3816 229.958 35.6182 258.011 35.6182C286.064 35.6182 308.806 58.3816 308.806 86.4618C308.806 114.542 286.064 137.305 258.011 137.305Z" fill="url(#paint0_radial_2113_28052)" fill-opacity="0.8"/>
<path d="M220.058 77.6964C219.962 78.2742 219.545 79.908 219.336 80.8067C219.017 80.8195 218.7 80.8725 218.394 80.9644L218.374 80.9704L218.519 79.0927L219.336 77.552C219.609 77.4717 220.11 77.3831 220.058 77.6964Z" fill="white"/>
<path d="M312.75 69.8955L295.818 74.6665L295.944 75.0954L312.75 69.8955Z" fill="white"/>
<path d="M287.457 37.636L276.95 51.7564L277.311 52.0193L287.457 37.636Z" fill="white"/>
<path d="M219.695 43.4814L230.583 57.3096L230.931 57.029L219.695 43.4814Z" fill="white"/>
<path d="M223.171 132.402L233.733 118.323L233.373 118.058L223.171 132.402Z" fill="white"/>
<path d="M292.088 132.851L281.526 118.772L281.886 118.508L292.088 132.851Z" fill="white"/>
<path d="M298.56 60.844C298.109 60.844 297.742 60.4776 297.742 60.0255C297.742 59.5735 298.109 59.207 298.56 59.207C299.012 59.207 299.378 59.5735 299.378 60.0255C299.378 60.4776 299.012 60.844 298.56 60.844Z" fill="white"/>
<path d="M213.949 105.24C213.63 105.24 213.371 104.981 213.371 104.662C213.371 104.343 213.63 104.084 213.949 104.084C214.267 104.084 214.526 104.343 214.526 104.662C214.526 104.981 214.267 105.24 213.949 105.24Z" fill="white"/>
<path d="M220.542 60.4617C220.09 60.4617 219.724 60.0953 219.724 59.6432C219.724 59.1912 220.09 58.8247 220.542 58.8247C220.993 58.8247 221.359 59.1912 221.359 59.6432C221.359 60.0953 220.993 60.4617 220.542 60.4617Z" fill="white"/>
<path d="M293.942 113.331C293.703 113.331 293.509 113.137 293.509 112.898C293.509 112.658 293.703 112.464 293.942 112.464C294.181 112.464 294.375 112.658 294.375 112.898C294.375 113.137 294.181 113.331 293.942 113.331Z" fill="white"/>
<path d="M233.817 125.073L233.348 126.001L232.422 126.47L233.348 126.938L233.817 127.866L234.285 126.938L235.212 126.47L234.285 126.001L233.817 125.073Z" fill="white"/>
<path d="M233.817 125.073L233.348 126.001L232.422 126.47L233.348 126.938L233.817 127.866L234.285 126.938L235.212 126.47L234.285 126.001L233.817 125.073Z" fill="white"/>
<path d="M214.577 67.8779L214.109 68.8052L213.182 69.2742L214.109 69.7432L214.577 70.6705L215.046 69.7432L215.972 69.2742L215.046 68.8052L214.577 67.8779Z" fill="white"/>
<path d="M270.373 38.6978L269.614 40.2006L268.112 40.9607L269.614 41.7207L270.373 43.2236L271.132 41.7207L272.634 40.9607L271.132 40.2006L270.373 38.6978Z" fill="white"/>
<path d="M273.933 78.3736C273.747 78.3736 273.597 78.2012 273.597 77.9885C273.597 77.7757 273.747 77.6033 273.933 77.6033C274.119 77.6033 274.27 77.7757 274.27 77.9885C274.27 78.2012 274.119 78.3736 273.933 78.3736Z" fill="#FBFBFB"/>
</g>
<path d="M271.618 123.538C271.618 123.538 288.734 132.84 287.621 135.528C286.508 138.216 274.927 134.515 274.364 134.601C273.801 134.686 259.528 129.186 259.528 129.186" stroke="#332C43" stroke-width="1.19794" stroke-linecap="round"/>
<path d="M310.825 97.6746C310.825 97.6746 308.952 107.304 306.331 108.568C303.711 109.833 300.988 106.702 300.653 106.083C300.317 105.464 297.186 99.9278 297.186 99.9278" stroke="#332C43" stroke-width="1.19794" stroke-linecap="round"/>
<path d="M209.589 96.9727C209.589 96.9727 211.462 106.602 214.082 107.866C216.703 109.131 219.425 106 219.761 105.381C220.096 104.762 223.227 99.2259 223.227 99.2259" stroke="#332C43" stroke-width="1.19794" stroke-linecap="round"/>
<path d="M247.24 123.637C247.24 123.637 230.447 132.839 231.56 135.528C232.673 138.216 244.028 134.795 244.817 134.601C245.605 134.406 259.061 129.551 259.061 129.551" stroke="#332C43" stroke-width="1.19794" stroke-linecap="round"/>
<path d="M259.59 48.6675C281.044 48.6677 298.423 65.8377 298.423 87.0015C298.423 108.165 281.044 125.335 259.59 125.335C238.136 125.335 220.756 108.166 220.756 87.0015C220.756 65.8375 238.136 48.6675 259.59 48.6675Z" fill="#FCAD20" stroke="#2E2A47" stroke-width="1.19794"/>
<path d="M269.227 75.4316C269.707 77.1263 271.429 80.1332 274.408 80.0227C276.767 79.9351 278.647 77.0308 279.207 75.0613" stroke="#332C43" stroke-width="1.40872" stroke-linecap="round"/>
<path d="M252.958 84.3512C253.788 85.6305 256.418 87.8441 260.377 87.566C263.512 87.3458 265.693 84.9787 266.221 83.4197" stroke="#332C43" stroke-width="1.40872" stroke-linecap="round"/>
<path d="M241.008 76.1877C241.629 77.8364 243.581 80.7636 246.541 80.4052C248.884 80.1214 250.429 77.8236 250.824 75.8142" stroke="#332C43" stroke-width="1.40872" stroke-linecap="round"/>
<path d="M287.89 84.751C288.19 85.3682 288.33 85.8505 288.216 86.5328C287.522 87.7507 286.399 88.3016 285.087 88.6712C282.241 89.3088 278.958 89.1011 276.431 87.5264C275.829 87.0193 275.282 86.3821 275.115 85.5942C275.084 84.8651 275.355 84.1381 275.842 83.5972C277.94 81.926 280.492 81.8388 283.031 82.0464C284.9 82.2604 286.836 83.133 287.89 84.751Z" fill="#E85E13"/>
<path d="M235.076 84.1703C235.187 84.1295 235.298 84.0888 235.413 84.0467C237.614 83.2916 240.048 83.3825 242.188 84.307C242.973 84.7132 243.571 85.163 243.932 85.9874C244.152 86.7093 243.975 87.2421 243.659 87.911C243.044 88.7527 242.337 89.1843 241.377 89.5288C241.27 89.5673 241.164 89.6057 241.054 89.6454C238.748 90.4352 236.14 90.3307 233.923 89.2988C233.182 88.8945 232.742 88.4473 232.331 87.7185C232.173 86.8576 232.54 86.1513 233.014 85.4509C233.649 84.8252 234.241 84.4749 235.076 84.1703Z" fill="#E75E12"/>
<path d="M259.627 129.643C259.311 129.926 252.156 140.05 255.207 140.705C258.629 141.439 259.605 137.295 259.935 137.171C260.265 137.047 261.947 142.206 263.789 141.216C268.322 138.781 259.943 129.36 259.627 129.643Z" fill="#332C43" stroke="#332C43" stroke-width="0.748712" stroke-linecap="round"/>
<path d="M224.891 67.5859C224.989 67.9442 245.293 64.9064 258.419 65.1838C271.909 65.4688 293.355 68.4413 294.169 68.73C294.983 69.0187 292.402 65.2948 292.402 65.2948C292.402 65.2948 276.447 61.8839 258.475 61.6015C240.503 61.3191 226.162 65.021 226.162 65.021C226.162 65.021 224.794 67.2277 224.891 67.5859Z" fill="#7B47CC"/>
<path d="M258.668 57.9844C247.369 57.8068 240.687 58.7592 229.126 61.1403C227.953 62.2942 226.162 65.021 226.162 65.021C226.162 65.021 240.503 61.3191 258.475 61.6015C276.447 61.8839 292.402 65.2948 292.402 65.2948C292.402 65.2948 291.43 63.3032 290.331 62.0275C278.439 59.1859 269.968 58.1619 258.668 57.9844Z" fill="#F2EFF6"/>
<path d="M285.906 57.9213C284.779 57.1774 270.586 54.7169 258.922 54.6025C247.771 54.4931 233.558 56.9048 232.541 57.7749C231.525 58.645 230.298 59.9864 229.126 61.1403C240.687 58.7592 247.369 57.8068 258.668 57.9844C269.968 58.1619 278.439 59.1859 290.331 62.0275C288.553 59.9637 287.032 58.6652 285.906 57.9213Z" fill="#7B47CC"/>
<path d="M229.126 61.1403C230.298 59.9864 231.525 58.645 232.541 57.7749C233.558 56.9048 247.771 54.4931 258.922 54.6025C270.586 54.7169 284.779 57.1774 285.906 57.9213C287.032 58.6652 288.553 59.9637 290.331 62.0275M229.126 61.1403C240.687 58.7592 247.369 57.8068 258.668 57.9844C269.968 58.1619 278.439 59.1859 290.331 62.0275M229.126 61.1403C227.953 62.2942 226.162 65.021 226.162 65.021M290.331 62.0275C291.43 63.3032 292.402 65.2948 292.402 65.2948M292.402 65.2948C292.402 65.2948 294.983 69.0187 294.169 68.73C293.355 68.4413 271.909 65.4688 258.419 65.1838C245.293 64.9064 224.989 67.9442 224.891 67.5859C224.794 67.2277 226.162 65.021 226.162 65.021M292.402 65.2948C292.402 65.2948 276.447 61.8839 258.475 61.6015C240.503 61.3191 226.162 65.021 226.162 65.021" stroke="#332C43" stroke-width="0.50565" stroke-linecap="round"/>
<path d="M201.457 95.2281C198.453 91.4899 198.033 81.7445 199.879 83.1427C201.725 84.5409 201.457 90.0362 202.875 88.9703C203.462 88.5289 202.183 85.9454 204.113 84.1305C205.333 82.9831 208.915 82.9549 209.385 84.5626C209.912 86.3674 206.13 86.341 206.13 88.2213C206.13 90.4971 209.246 90.7389 210.652 89.9498C213.158 88.5438 207.644 82.7838 210.465 82.2418C213.306 81.6959 215.821 86.4256 215.72 90.1235C215.622 93.6765 212.109 97.3825 210.465 97.9992C207.063 99.2753 203.858 98.2165 201.457 95.2281Z" fill="#FCAD20" stroke="#332C43" stroke-width="0.50565" stroke-linecap="round"/>
<path d="M318.119 95.7234C321.123 91.9852 321.544 82.2398 319.697 83.638C317.851 85.0362 318.119 90.5315 316.701 89.4656C316.114 89.0242 317.393 86.4408 315.463 84.6258C314.243 83.4784 310.661 83.4502 310.191 85.058C309.664 86.8627 313.447 86.8364 313.447 88.7166C313.447 90.9925 310.33 91.2342 308.924 90.4451C306.419 89.0391 311.932 83.2791 309.111 82.7371C306.27 82.1912 304.218 87.4072 304.32 91.1051C304.374 93.0711 305.003 96.6329 309.111 98.4945C312.421 99.9943 315.718 98.7118 318.119 95.7234Z" fill="#FCAD20" stroke="#332C43" stroke-width="0.50565" stroke-linecap="round"/>
<path d="M260.121 144.037C283.568 144.037 302.576 140.495 302.576 136.126C302.576 131.757 283.568 128.215 260.121 128.215C236.673 128.215 217.665 131.757 217.665 136.126C217.665 140.495 236.673 144.037 260.121 144.037Z" fill="#0A1A6C" fill-opacity="0.11"/>
</g>
<defs>
<radialGradient id="paint0_radial_2113_28052" cx="0" cy="0" r="1" gradientUnits="userSpaceOnUse" gradientTransform="translate(258.011 86.4618) rotate(90) scale(50.8436 50.795)">
<stop offset="0.490385" stop-color="#FFD888"/>
<stop offset="1" stop-color="#FDD886" stop-opacity="0.11"/>
</radialGradient>
<clipPath id="clip0_2113_28052">
<rect width="342" height="172" rx="12" fill="white"/>
</clipPath>
<clipPath id="clip1_2113_28052">
<rect x="6" y="6" width="330" height="160" rx="10" fill="white"/>
</clipPath>
</defs>
</svg>
