<svg width="277" height="234" viewBox="0 0 277 234" fill="none" xmlns="http://www.w3.org/2000/svg">
<path d="M166.896 172.132C166.896 172.132 203.186 191.777 200.681 197.831C198.175 203.885 172.096 195.551 170.828 195.744C169.56 195.936 138.753 184.372 138.753 184.372" stroke="#332C43" stroke-width="2.69751" stroke-linecap="round"/>
<path d="M252.93 112.594C252.93 112.594 248.713 134.277 242.812 137.125C236.911 139.972 230.781 132.923 230.025 131.528C229.27 130.134 222.219 117.668 222.219 117.668" stroke="#332C43" stroke-width="2.69751" stroke-linecap="round"/>
<path d="M24.9676 111.013C24.9676 111.013 29.1848 132.696 35.0855 135.544C40.9862 138.391 47.117 131.342 47.8724 129.947C48.6278 128.553 55.6782 116.087 55.6782 116.087" stroke="#332C43" stroke-width="2.69751" stroke-linecap="round"/>
<path d="M107.379 171.881C107.379 171.881 71.9384 191.777 74.4443 197.831C76.9501 203.885 102.521 196.182 104.297 195.743C106.072 195.305 136.372 184.372 136.372 184.372" stroke="#332C43" stroke-width="2.69751" stroke-linecap="round"/>
<path d="M137.562 2.23999C185.873 2.23999 225.007 40.9031 225.007 88.5603C225.007 136.218 185.873 174.881 137.562 174.881C89.2521 174.881 50.1182 136.218 50.1182 88.5603C50.1182 40.9031 89.2522 2.24001 137.562 2.23999Z" fill="#FCAD20" stroke="#2E2A47" stroke-width="2.69751"/>
<path d="M159.26 62.5069C160.343 66.3231 164.219 73.094 170.928 72.8451C176.241 72.648 180.472 66.1081 181.734 61.6732" stroke="#332C43" stroke-width="3.17215" stroke-linecap="round"/>
<path d="M122.63 82.5922C124.498 85.4727 130.42 90.4573 139.335 89.8311C146.394 89.3352 151.305 84.0051 152.493 80.4945" stroke="#332C43" stroke-width="3.17215" stroke-linecap="round"/>
<path d="M95.7183 64.2096C97.1151 67.9223 101.511 74.5137 108.176 73.7066C113.453 73.0675 116.932 67.8933 117.821 63.3687" stroke="#332C43" stroke-width="3.17215" stroke-linecap="round"/>
<path d="M201.287 83.4924C201.962 84.8821 202.277 85.9682 202.022 87.5045C200.458 90.247 197.929 91.4876 194.976 92.3198C188.568 93.7556 181.175 93.2878 175.485 89.7419C174.128 88.6001 172.898 87.1652 172.521 85.3911C172.452 83.7492 173.061 82.1122 174.158 80.8942C178.881 77.131 184.629 76.9346 190.346 77.4021C194.555 77.884 198.914 79.8491 201.287 83.4924Z" fill="#E85E13"/>
<path d="M82.3604 82.1843C82.6112 82.0925 82.862 82.0006 83.1203 81.906C88.0753 80.2056 93.5566 80.4102 98.3752 82.4921C100.144 83.4068 101.491 84.4196 102.304 86.276C102.798 87.9016 102.4 89.1013 101.687 90.6075C100.304 92.5028 98.7107 93.4748 96.5485 94.2505C96.3088 94.3371 96.0691 94.4237 95.8221 94.513C90.6297 96.2914 84.7569 96.0561 79.7657 93.7325C78.097 92.8222 77.1051 91.8151 76.1802 90.1741C75.824 88.2356 76.6501 86.6451 77.717 85.068C79.1483 83.6589 80.4812 82.8701 82.3604 82.1843Z" fill="#E75E12"/>
<path d="M137.644 184.579C136.933 185.216 120.82 208.013 127.691 209.488C135.396 211.142 137.595 201.811 138.338 201.532C139.081 201.253 142.868 212.87 147.016 210.641C157.222 205.156 138.355 183.942 137.644 184.579Z" fill="#332C43" stroke="#332C43" stroke-width="1.68594" stroke-linecap="round"/>
<path d="M59.4266 44.8403C59.6456 45.6469 105.367 38.8066 134.924 39.4311C165.301 40.073 213.593 46.7664 215.426 47.4165C217.259 48.0665 211.446 39.6812 211.446 39.6812C211.446 39.6812 175.52 32.0005 135.051 31.3646C94.5812 30.7287 62.2872 39.0645 62.2872 39.0645C62.2872 39.0645 59.2076 44.0336 59.4266 44.8403Z" fill="#7B47CC"/>
<path d="M135.485 23.2196C110.041 22.8198 94.9952 24.9643 68.9609 30.3261C66.3214 32.9245 62.2872 39.0645 62.2872 39.0645C62.2872 39.0645 94.5812 30.7287 135.051 31.3646C175.52 32.0005 211.446 39.6812 211.446 39.6812C211.446 39.6812 209.259 35.1964 206.784 32.3238C180.004 25.9251 160.929 23.6194 135.485 23.2196Z" fill="#F2EFF6"/>
<path d="M196.818 23.0776C194.281 21.4025 162.321 15.8619 136.056 15.6043C110.946 15.358 78.9427 20.7886 76.6528 22.7479C74.363 24.7073 71.6004 27.7277 68.9609 30.3261C94.9952 24.9643 110.041 22.8198 135.485 23.2196C160.929 23.6194 180.004 25.9251 206.784 32.3238C202.78 27.6767 199.354 24.7526 196.818 23.0776Z" fill="#7B47CC"/>
<path d="M68.9609 30.3261C71.6004 27.7277 74.363 24.7073 76.6528 22.7479C78.9427 20.7886 110.946 15.358 136.056 15.6043C162.321 15.8619 194.281 21.4025 196.818 23.0776C199.354 24.7526 202.78 27.6767 206.784 32.3238M68.9609 30.3261C94.9952 24.9643 110.041 22.8198 135.485 23.2196C160.929 23.6194 180.004 25.9251 206.784 32.3238M68.9609 30.3261C66.3214 32.9245 62.2872 39.0645 62.2872 39.0645M206.784 32.3238C209.259 35.1964 211.446 39.6812 211.446 39.6812M211.446 39.6812C211.446 39.6812 217.259 48.0665 215.426 47.4165C213.593 46.7664 165.301 40.073 134.924 39.4311C105.367 38.8066 59.6456 45.6469 59.4266 44.8403C59.2076 44.0336 62.2872 39.0645 62.2872 39.0645M211.446 39.6812C211.446 39.6812 175.52 32.0005 135.051 31.3646C94.5812 30.7287 62.2872 39.0645 62.2872 39.0645" stroke="#332C43" stroke-width="1.13862" stroke-linecap="round"/>
<path d="M6.65777 107.085C-0.106161 98.6669 -1.05317 76.7222 3.10411 79.8707C7.2614 83.0193 6.65777 95.3935 9.85061 92.9933C11.1729 91.9993 8.29246 86.1819 12.6388 82.0951C15.3865 79.5114 23.4521 79.4478 24.51 83.0682C25.6976 87.1321 17.1797 87.0727 17.1797 91.3067C17.1797 96.4314 24.1983 96.9758 27.3643 95.1989C33.0055 92.0329 20.5896 79.0626 26.9423 77.8421C33.3405 76.6129 39.003 87.2632 38.7743 95.5902C38.5547 103.591 30.6446 111.936 26.9423 113.325C19.2819 116.198 12.065 113.814 6.65777 107.085Z" fill="#FCAD20" stroke="#332C43" stroke-width="1.13862" stroke-linecap="round"/>
<path d="M269.357 108.2C276.121 99.7823 277.068 77.8377 272.911 80.9862C268.754 84.1348 269.357 96.509 266.165 94.1088C264.842 93.1148 267.723 87.2974 263.376 83.2106C260.629 80.6269 252.563 80.5633 251.505 84.1836C250.318 88.2476 258.835 88.1882 258.835 92.4222C258.835 97.5469 251.817 98.0913 248.651 96.3144C243.01 93.1484 255.426 80.178 249.073 78.9576C242.675 77.7284 238.055 89.4737 238.283 97.8007C238.405 102.227 239.823 110.248 249.073 114.44C256.525 117.817 263.95 114.929 269.357 108.2Z" fill="#FCAD20" stroke="#332C43" stroke-width="1.13862" stroke-linecap="round"/>
<path d="M138.754 216.991C191.553 216.991 234.356 209.016 234.356 199.178C234.356 189.34 191.553 181.365 138.754 181.365C85.955 181.365 43.1528 189.34 43.1528 199.178C43.1528 209.016 85.955 216.991 138.754 216.991Z" fill="#0A1A6C" fill-opacity="0.11"/>
</svg>
