<svg width="245" height="201" viewBox="0 0 245 201" fill="none" xmlns="http://www.w3.org/2000/svg">
<path d="M210.953 130.612C212.977 128.866 215.551 120.086 217.814 116.58C220.077 113.074 230.432 115.76 231.072 117.216C231.712 118.673 228.21 127.174 226.539 133.111" stroke="#312C42" stroke-width="1.07879" stroke-linecap="round"/>
<path d="M233.317 131.688C231.964 128.623 231.247 117.04 229.311 115.623C227.374 114.206 218.687 116.347 217.382 117.011C216.077 117.676 218.098 124.82 218.338 130.242" stroke="#312C42" stroke-width="1.07879" stroke-linecap="round"/>
<path d="M237.325 133.119C226.91 131.37 206.901 126.759 204.655 127.84C202.409 128.92 200.68 141.407 198.209 146.611C195.738 151.816 191.518 162.658 191.763 165.383C191.883 166.725 201.349 167.938 211.147 168.898C218.443 169.612 232.144 172.393 235.407 173.09C235.696 167.062 235.98 156.315 236.127 153.257C236.41 147.368 237.2 135.733 237.2 135.733L237.325 133.119Z" fill="#78BFC7"/>
<path d="M235.407 173.09C237.975 172.464 241.063 173.705 241.983 171.486C242.467 170.316 240.438 157.495 240.888 151.827C241.338 146.158 241.281 135.929 241.281 135.929L237.2 135.733C237.2 135.733 236.41 147.368 236.127 153.257C235.98 156.315 235.696 167.062 235.407 173.09Z" fill="#C3E2E5"/>
<path d="M241.238 133.751C240.845 133.031 238.25 132.874 237.325 133.119L237.2 135.733L241.281 135.929C241.281 135.929 241.631 134.472 241.238 133.751Z" fill="#ACDCE2"/>
<path d="M235.407 173.09C237.975 172.464 241.063 173.705 241.983 171.486C242.467 170.316 240.438 157.495 240.888 151.827C241.338 146.158 241.281 135.929 241.281 135.929M235.407 173.09C232.144 172.393 218.443 169.612 211.147 168.898C201.349 167.938 191.883 166.725 191.763 165.383C191.518 162.658 195.738 151.816 198.209 146.611C200.68 141.407 202.409 128.92 204.655 127.84C206.901 126.759 226.91 131.37 237.325 133.119M235.407 173.09C235.696 167.062 235.98 156.315 236.127 153.257C236.41 147.368 237.2 135.733 237.2 135.733M237.325 133.119C238.25 132.874 240.845 133.031 241.238 133.751C241.631 134.472 241.281 135.929 241.281 135.929M237.325 133.119C237.276 134.14 237.2 135.733 237.2 135.733M237.325 133.119L237.2 135.733M237.2 135.733L241.281 135.929" stroke="#312C42" stroke-width="1.07879" stroke-linecap="round"/>
<path d="M208.36 128.419C209.65 128.557 210.749 128.791 212.038 128.937C212.643 129.006 213.265 129.187 213.869 129.254C214.395 129.313 217.007 129.817 217.007 129.817C217.532 129.875 218.221 130.056 218.657 130.154C218.657 130.154 218.8 130.161 219.129 130.239C219.573 130.29 219.573 130.29 220.027 130.342C220.797 130.493 222.923 130.966 222.923 130.966L224.111 131.175C225.248 131.398 225.952 131.571 227.17 131.782C227.382 131.819 228.698 132.105 229.599 132.273C234.183 133.13 234.334 133.125 236.712 133.622C236.575 134.306 236.654 137.001 236.527 137.467C236.527 137.467 236.543 137.189 236.483 138.394C236.464 138.799 236.335 139.658 236.315 140.071C236.272 140.977 236.233 141.831 236.187 142.736C236.165 143.205 236.141 143.712 236.118 144.19C235.662 153.5 235.236 163.305 234.899 172.387C234.484 172.37 230.784 171.518 230.159 171.41C229.813 171.395 229.636 171.289 229.282 171.274C228.195 171.203 227.314 171.119 226.245 170.918C226.033 170.88 225.821 170.842 225.604 170.802C225.091 170.709 224.579 170.614 224.067 170.519C224.072 170.421 224.077 170.324 224.081 170.224C224.568 170.247 225.054 170.271 225.555 170.295C225.556 170.107 225.557 169.92 225.558 169.727C225.628 166.998 226.077 164.364 226.55 161.682C226.687 160.909 226.82 160.134 226.953 159.36C228.458 150.662 228.458 150.662 229.503 146.663C230.166 144.023 230.589 141.358 230.912 138.657C230.594 138.591 230.594 138.591 230.27 138.523C228.109 138.064 225.968 137.548 223.831 136.988C223.532 136.911 223.233 136.834 222.926 136.754C218.592 135.627 218.592 135.627 217.335 135.034C216.439 134.639 214.578 134.002 213.662 133.578C213.662 133.578 211.794 132.667 211.613 132.428C211.432 132.188 208.086 129.201 208.36 128.419Z" fill="#59A5AB"/>
<ellipse cx="215.842" cy="160.344" rx="2.17822" ry="2.04129" transform="rotate(2.74744 215.842 160.344)" fill="white" fill-opacity="0.73"/>
<ellipse cx="218.829" cy="143.588" rx="1.59714" ry="1.49674" transform="rotate(2.74744 218.829 143.588)" fill="white" fill-opacity="0.73"/>
<ellipse cx="228.895" cy="163.83" rx="0.871064" ry="0.816307" transform="rotate(2.74744 228.895 163.83)" fill="white" fill-opacity="0.73"/>
<ellipse cx="222.313" cy="153.78" rx="0.871064" ry="0.816307" transform="rotate(2.74744 222.313 153.78)" fill="white" fill-opacity="0.73"/>
<ellipse cx="202.798" cy="159.716" rx="0.871064" ry="0.816307" transform="rotate(2.74744 202.798 159.716)" fill="white" fill-opacity="0.73"/>
<ellipse cx="200.562" cy="152.327" rx="1.3066" ry="1.22446" transform="rotate(2.74744 200.562 152.327)" fill="white" fill-opacity="0.73"/>
<ellipse cx="207.01" cy="148.893" rx="0.661447" ry="0.619866" transform="rotate(2.74744 207.01 148.893)" fill="white" fill-opacity="0.73"/>
<ellipse cx="212.358" cy="139.522" rx="1.01015" ry="0.946652" transform="rotate(2.74744 212.358 139.522)" fill="white" fill-opacity="0.73"/>
<ellipse cx="233.576" cy="140.503" rx="0.568159" ry="0.532443" transform="rotate(2.74744 233.576 140.503)" fill="white" fill-opacity="0.73"/>
<ellipse cx="222.24" cy="137.169" rx="0.568159" ry="0.532443" transform="rotate(2.74744 222.24 137.169)" fill="white" fill-opacity="0.73"/>
<ellipse cx="209.911" cy="155.952" rx="0.410524" ry="0.384717" transform="rotate(2.74744 209.911 155.952)" fill="white" fill-opacity="0.73"/>
<path d="M16.5479 131.959C16.5479 131.959 8.92639 131.656 9.03571 132.729C9.14503 133.802 9.36517 135.949 9.47598 137.022C10.5069 136.916 11.3571 136.963 12.1611 137.007C13.6451 137.089 14.9719 137.162 16.9881 136.251L16.5479 131.959Z" fill="#FDFDFC"/>
<path d="M20.8405 173.812C20.8405 173.812 24.2794 175.628 25.3533 175.518C26.4272 175.408 52.3848 165.19 55.5945 163.741C56.8202 163.188 52.8192 154.744 50.1915 149.198C49.2993 147.315 48.5653 145.766 48.2482 144.974C46.1698 139.782 44.5784 134.292 43.5022 130.58C42.7094 127.845 42.1961 126.075 41.9736 126.098C40.8997 126.208 33.4983 128.051 33.4983 128.051L16.5479 131.959L16.9881 136.251L20.8405 173.812Z" fill="#FD7264"/>
<path fill-rule="evenodd" clip-rule="evenodd" d="M33.4983 128.051C33.4983 128.051 23.1095 129.117 17.8638 129.262C12.0296 129.424 6.03048 129.901 5.59608 130.913C5.1795 131.883 5.4608 139.965 5.15414 148.616C4.7438 160.193 3.8612 172.921 4.41288 172.244C5.37684 171.06 13.1083 172.436 13.1083 172.436L9.47598 137.022C9.36517 135.949 9.14503 133.802 9.03571 132.729C8.92639 131.656 16.5479 131.959 16.5479 131.959L33.4983 128.051Z" fill="#FDFDFD"/>
<path d="M13.1083 172.436C13.1083 172.436 13.2175 173.51 13.3284 174.583C13.4393 175.656 20.8405 173.812 20.8405 173.812L16.9881 136.251C14.9719 137.162 13.6451 137.089 12.1611 137.007C11.3571 136.963 10.5069 136.916 9.47598 137.022L13.1083 172.436Z" fill="#C55050"/>
<path d="M33.4983 128.051C33.4983 128.051 40.8997 126.208 41.9736 126.098C42.1961 126.075 42.7094 127.845 43.5022 130.58C44.5784 134.292 46.1698 139.782 48.2482 144.974C48.5653 145.766 49.2993 147.315 50.1915 149.198C52.8192 154.744 56.8202 163.188 55.5945 163.741C52.3848 165.19 26.4272 175.408 25.3533 175.518C24.2794 175.628 20.8405 173.812 20.8405 173.812M33.4983 128.051L16.5479 131.959M33.4983 128.051C33.4983 128.051 23.1095 129.117 17.8638 129.262C12.0296 129.424 6.03048 129.901 5.59608 130.913C5.1795 131.883 5.4608 139.965 5.15414 148.616C4.7438 160.193 3.8612 172.921 4.41288 172.244C5.37684 171.06 13.1083 172.436 13.1083 172.436M13.1083 172.436C13.1083 172.436 13.2175 173.51 13.3284 174.583C13.4393 175.656 20.8405 173.812 20.8405 173.812M13.1083 172.436C13.1083 172.436 10.8945 150.852 9.47598 137.022M13.1083 172.436L9.47598 137.022M20.8405 173.812L16.9881 136.251M16.5479 131.959C16.5479 131.959 8.92639 131.656 9.03571 132.729C9.14503 133.802 9.36517 135.949 9.47598 137.022M16.5479 131.959L16.9881 136.251M9.47598 137.022C10.5069 136.916 11.3571 136.963 12.1611 137.007C13.6451 137.089 14.9719 137.162 16.9881 136.251" stroke="#332C43" stroke-width="1.07879" stroke-linecap="round"/>
<path d="M10.6957 154.516L8.38022 171.269L12.5285 171.764L10.6957 154.516Z" fill="#DBDBDB"/>
<ellipse cx="27.4416" cy="168.948" rx="0.746789" ry="0.689384" transform="rotate(-5.85606 27.4416 168.948)" fill="#D4C3C3" fill-opacity="0.37"/>
<ellipse cx="21.991" cy="140.817" rx="0.558523" ry="0.51559" transform="rotate(-5.85606 21.991 140.817)" fill="#D4C3C3" fill-opacity="0.37"/>
<ellipse cx="41.4263" cy="142.296" rx="0.979269" ry="0.903994" transform="rotate(-5.85606 41.4263 142.296)" fill="#D4C3C3" fill-opacity="0.37"/>
<ellipse cx="44.0756" cy="158.58" rx="1.40615" ry="1.37851" transform="rotate(-5.85606 44.0756 158.58)" fill="#DFDFDF" fill-opacity="0.77"/>
<ellipse cx="38.8042" cy="153.95" rx="1.13056" ry="1.10833" transform="rotate(-5.85606 38.8042 153.95)" fill="#D4C3C3" fill-opacity="0.37"/>
<path d="M17.1541 132.391C17.1541 132.391 40.5457 126.76 41.7143 126.64C42.2725 126.583 43.3347 131.589 44.3852 135.243C45.534 139.24 46.6452 141.924 46.4909 142.07C46.1953 142.349 45.1768 141.345 43.7105 140.244C42.2441 139.142 41.4029 140.179 40.8472 139.814C40.2916 139.449 39.9521 138.618 39.1033 138.374C37.4774 137.907 37.1607 141.126 35.5038 140.784C34.2302 140.522 34.4088 138.735 33.1434 138.436C31.6321 138.078 31.4269 140.053 29.6159 139.847C27.8049 139.64 28.3287 138.129 27.0261 137.729C25.6193 137.296 24.6463 139.172 23.337 138.499C22.2076 137.92 22.8926 136.154 21.7135 135.683C20.497 135.197 19.7731 137.106 18.5224 136.717C17.4193 136.373 17.1541 132.391 17.1541 132.391Z" fill="#FB8B7F"/>
<ellipse cx="32.9998" cy="134.87" rx="0.558523" ry="0.51559" transform="rotate(-5.85606 32.9998 134.87)" fill="white" fill-opacity="0.37"/>
<path d="M93.6508 160.096C95.347 160.612 95.347 160.612 96.0107 161.276C95.902 162.002 95.7621 162.699 95.6051 163.415C94.4111 169.689 95.0124 176.254 96.0107 182.515C96.3335 182.5 96.6563 182.484 96.9889 182.469C98.0755 182.515 98.0755 182.515 98.9421 183.252C99.5725 184.154 99.8478 184.952 99.7602 186.056C99.2906 187.374 98.0279 187.992 96.8956 188.709C96.6488 188.868 96.6488 188.868 96.397 189.029C95.4371 189.644 94.4706 190.247 93.4987 190.842C92.5541 191.422 91.6188 192.014 90.6872 192.614C90.3132 192.854 90.3132 192.854 89.9317 193.099C89.4469 193.411 88.963 193.724 88.4801 194.038C86.2876 195.441 84.467 196.043 81.8515 195.789C79.9228 195.266 78.835 194.145 77.7217 192.544C77.072 191.374 76.8411 190.438 76.8184 189.097C77.2168 187.854 77.7799 187.258 78.9017 186.645C80.1753 186.283 81.4654 186.086 82.7733 185.889C85.4259 185.472 87.8788 184.901 90.406 183.99C91.5276 183.625 92.4535 183.4 93.6508 183.4C93.5903 183.139 93.5299 182.879 93.4676 182.61C93.3881 182.256 93.3086 181.902 93.2268 181.538C93.1481 181.192 93.0693 180.846 92.9882 180.49C92.4057 177.533 92.4075 174.522 92.4 171.519C92.3972 170.833 92.388 170.148 92.3787 169.463C92.3572 166.366 92.6461 163.411 93.3558 160.391C93.4532 160.294 93.5505 160.196 93.6508 160.096Z" fill="#353046"/>
<path d="M155.116 160.435C156.191 164.029 156.42 167.53 156.425 171.257C156.427 171.474 156.428 171.69 156.43 171.914C156.445 174.732 156.19 177.358 155.6 180.115C155.373 181.112 155.373 181.112 155.411 182.263C159.125 184.476 162.936 186.247 166.991 187.746C171.259 189.336 171.259 189.336 172.52 191.113C172.788 192.386 172.637 192.944 172.059 194.099C170.664 195.745 169.093 196.777 166.929 197.098C164.05 197.294 161.446 195.84 159.29 194.049C158.377 193.219 157.51 192.351 156.65 191.468C155.856 190.673 155.017 189.944 154.166 189.212C153.464 188.598 152.807 187.955 152.166 187.278C151.941 187.041 151.716 186.803 151.484 186.559C150.85 185.596 150.782 185.168 150.986 184.033C151.222 183.727 151.458 183.421 151.702 183.106C152.581 181.913 152.793 180.817 152.977 179.369C153.029 179.015 153.029 179.015 153.081 178.653C153.175 177.989 153.261 177.324 153.346 176.659C153.385 176.386 153.424 176.114 153.465 175.834C154.068 171.04 153.595 166.056 152.756 161.32C154.452 160.435 154.452 160.435 155.116 160.435Z" fill="#353045"/>
<path d="M124.609 1.63037C171.095 1.63037 208.755 38.8332 208.755 84.6968C208.755 130.561 171.095 167.764 124.609 167.764C78.1239 167.764 40.4639 130.561 40.4639 84.6968C40.4641 38.8332 78.124 1.63041 124.609 1.63037Z" fill="#FCAD20"/>
<path d="M124.609 1.63037C171.095 1.63037 208.755 38.8332 208.755 84.6968C208.755 130.561 171.095 167.764 124.609 167.764C78.1239 167.764 40.4639 130.561 40.4639 84.6968C40.4641 38.8332 78.124 1.63041 124.609 1.63037Z" stroke="black" stroke-width="2.15759"/>
<path d="M124.609 1.63037C171.095 1.63037 208.755 38.8332 208.755 84.6968C208.755 130.561 171.095 167.764 124.609 167.764C78.1239 167.764 40.4639 130.561 40.4639 84.6968C40.4641 38.8332 78.124 1.63041 124.609 1.63037Z" stroke="white" stroke-opacity="0.2" stroke-width="2.15759"/>
<path d="M201.925 69.594C201.925 98.9946 176.323 125.245 143.549 134.695C96.4378 148.28 46.2536 108.445 43.1791 89.5444C42.157 92.6945 43.6028 102.145 44.2053 104.245C54.447 139.945 84.9523 166.196 125.112 166.196C171.2 164.096 193.385 137.166 201.926 110.916C202.951 107.766 206.023 86.3944 201.925 69.594Z" fill="#FF9916"/>
<path d="M192.982 76.5717C194.039 77.6116 194.673 78.4925 194.936 79.964C194.404 82.947 192.515 84.882 190.112 86.5839C184.778 89.9422 177.941 91.8955 171.656 90.5177C170.062 89.9212 168.487 89.019 167.577 87.5356C166.986 86.0729 167.011 84.3968 167.611 82.9427C170.673 78.0209 175.809 75.9956 181.13 74.5806C185.091 73.6635 189.665 74.0396 192.982 76.5717Z" fill="#E85E13"/>
<path d="M86.2943 82.3938C80.9321 82.3938 76.5851 78.0218 76.5851 72.6286C76.5851 67.2355 80.9321 62.8635 86.2943 62.8635C91.6565 62.8635 96.0034 67.2355 96.0034 72.6286C96.0034 78.0218 91.6565 82.3938 86.2943 82.3938Z" fill="#332C43"/>
<path d="M90.8482 72.4177C89.4794 72.4177 88.3698 71.2551 88.3698 69.8211C88.3698 68.387 89.4794 67.2245 90.8482 67.2245C92.217 67.2245 93.3267 68.387 93.3267 69.8211C93.3267 71.2551 92.217 72.4177 90.8482 72.4177Z" fill="#FBFBFB"/>
<path d="M87.2273 67.6489C86.8281 67.6489 86.5044 67.2769 86.5044 66.818C86.5044 66.3591 86.8281 65.9871 87.2273 65.9871C87.6266 65.9871 87.9502 66.3591 87.9502 66.818C87.9502 67.2769 87.6266 67.6489 87.2273 67.6489Z" fill="#FBFBFB"/>
<path d="M159.657 82.3938C154.294 82.3938 149.947 78.0218 149.947 72.6286C149.947 67.2355 154.294 62.8635 159.657 62.8635C165.019 62.8635 169.366 67.2355 169.366 72.6286C169.366 78.0218 165.019 82.3938 159.657 82.3938Z" fill="#332C43"/>
<path d="M164.208 72.4177C162.839 72.4177 161.729 71.2551 161.729 69.8211C161.729 68.387 162.839 67.2245 164.208 67.2245C165.576 67.2245 166.686 68.387 166.686 69.8211C166.686 71.2551 165.576 72.4177 164.208 72.4177Z" fill="#FBFBFB"/>
<path d="M160.587 67.6489C160.187 67.6489 159.864 67.2769 159.864 66.818C159.864 66.3591 160.187 65.9871 160.587 65.9871C160.986 65.9871 161.31 66.3591 161.31 66.818C161.31 67.2769 160.986 67.6489 160.587 67.6489Z" fill="#FBFBFB"/>
<path d="M62.7313 75.2442C62.9876 75.2459 63.2439 75.2476 63.508 75.2494C68.5343 75.3854 73.3937 77.4111 77.0264 80.9019C78.3096 82.3187 79.1798 83.6817 79.2872 85.6239C79.1851 87.2515 78.4243 88.1964 77.2776 89.3112C75.3973 90.5506 73.6379 90.889 71.4333 90.8599C71.1887 90.8572 70.9441 90.8546 70.692 90.8518C65.4261 90.7062 60.225 88.5213 56.5182 84.7551C55.3238 83.376 54.7704 82.1373 54.4902 80.3511C54.8214 78.4886 56.0985 77.3362 57.5876 76.2767C59.3479 75.4907 60.8113 75.2294 62.7313 75.2442Z" fill="#E75E12"/>
<path d="M140.791 82.5389C138.803 85.6288 132.267 91.1693 121.961 91.1693C113.801 91.1693 107.838 86.055 106.269 82.5389" stroke="#332C43" stroke-width="3.23638" stroke-linecap="round"/>
<path d="M134.564 145.205C159.91 142.899 179.273 128.231 185.787 121.185C181.145 128.789 169.926 142.864 139.826 148.18C115.747 152.432 85.5638 145.484 74.2662 140.126C100.878 154.818 131.084 155.726 145.489 151.968C191.755 139.899 202.799 111.097 202.95 97.0732C204.887 117.592 190.574 144.41 145.437 156.871C93.8263 167.111 62.8632 136.311 54.903 119.778C75.0232 144.565 102.882 148.087 134.564 145.205Z" fill="#FE7800"/>
<path d="M13.4922 130.652C13.4922 130.652 13.493 122.021 15.6498 117.706C17.7307 113.543 26.4407 115.549 27.5186 116.627C28.5966 117.706 27.5186 128.494 27.5186 128.494" stroke="#332C43" stroke-width="1.07879" stroke-linecap="round"/>
<path d="M17.8064 129.573C17.8064 129.573 14.5717 120.942 15.6489 117.706C16.726 114.47 26.4384 114.469 27.5177 115.549C28.597 116.628 32.9111 129.572 32.9111 129.572" stroke="#332C43" stroke-width="1.07879" stroke-linecap="round"/>
<path d="M38.3925 86.9288C32.8796 83.5561 23.5509 90.519 24.634 103.338" stroke="#332C43" stroke-width="2.10014" stroke-linecap="round"/>
<path d="M31.2428 112.969C31.2491 113.044 31.6023 113.725 31.7781 114.057L32.8452 115.193C33.1359 116.176 33.724 118.264 33.7367 118.414C33.7493 118.564 33.4282 119.636 33.2643 120.153C32.8119 120.38 31.835 120.821 31.5482 120.77C31.2613 120.719 30.1458 120.228 29.626 119.988L28.102 117.852L27.0407 116.607L26.5363 119.009L25.4965 121.362L23.4447 123.72L22.3021 123.816L21.0385 122.454L20.5786 122.263L19.9973 121.651L18.472 121.403L17.7143 120.806L17.2523 119.524L16.6056 119.201L15.1695 118.945L14.7154 117.756L14.8527 115.196L16.6509 110.878L19.3934 105.644L22.8276 103.372L25.3966 103.438L29.1841 105.191L30.8817 108.696L31.2428 112.969Z" fill="#FF9916"/>
<path d="M20.2886 121.852C20.2886 121.852 16.949 122.72 17.2665 119.169M17.2665 119.169C16.9814 119.626 16.0419 119.779 15.409 119.551C12.7192 118.588 16.7548 108.75 17.7417 107.098C19.2841 104.515 22.6432 103.103 26.1178 103.677C30.2339 104.359 31.7488 109.002 31.1181 112.611C32.7533 114.757 35.243 119.84 31.7774 120.414C29.1828 120.843 27.5798 116.707 27.1902 115.572C27.1603 115.485 27.0366 115.483 27.0103 115.569C25.866 119.278 25.4651 124.678 22.1145 123.533C19.0395 122.483 22.2381 115.138 22.2381 115.138M17.2665 119.169C17.3708 118.012 17.8638 116.384 18.9884 114.103" stroke="#332C43" stroke-width="1.05007" stroke-linecap="round"/>
<path d="M210.885 87.486C215.993 88.5297 225.708 91.5619 224.625 104.381" stroke="#332C43" stroke-width="2.10014" stroke-linecap="round"/>
<path d="M218.011 114.013C218.004 114.088 217.651 114.769 217.475 115.101L216.408 116.237C216.117 117.22 215.529 119.308 215.517 119.458C215.504 119.608 215.825 120.68 215.989 121.197C216.441 121.424 217.418 121.865 217.705 121.814C217.992 121.763 219.108 121.272 219.627 121.033L221.151 118.896L222.213 117.651L222.717 120.053L223.757 122.406L225.809 124.764L226.951 124.86L228.215 123.498L228.675 123.307L229.256 122.695L230.781 122.447L231.539 121.85L232.001 120.568L232.648 120.245L234.084 119.989L234.538 118.8L234.401 116.24L232.603 111.922L231.584 109.166L229.86 106.688L226.426 104.416L223.857 104.482L220.069 106.235L218.372 109.74L218.011 114.013Z" fill="#FF9916"/>
<path d="M228.962 122.896C228.962 122.896 232.301 123.764 231.984 120.213M231.984 120.213C232.269 120.67 233.209 120.823 233.842 120.595C236.531 119.632 232.496 109.794 231.509 108.142C229.966 105.559 226.607 104.147 223.133 104.721C219.017 105.403 217.502 110.046 218.132 113.655C216.497 115.801 214.008 120.885 217.473 121.458C220.068 121.887 221.671 117.751 222.06 116.617C222.09 116.529 222.214 116.527 222.24 116.613C223.384 120.322 223.785 125.722 227.136 124.577C230.211 123.527 227.012 116.182 227.012 116.182M231.984 120.213C231.88 119.056 231.387 117.428 230.262 115.147" stroke="#332C43" stroke-width="1.05007" stroke-linecap="round"/>
<path d="M121.892 198.99C92.7224 198.981 69.0745 194.938 69.0728 189.959C69.0712 184.98 92.7165 180.95 121.886 180.959C151.056 180.968 174.703 185.011 174.705 189.99C174.707 194.969 151.061 198.999 121.892 198.99Z" fill="#0C2C7D" fill-opacity="0.11"/>
</svg>
