<svg width="213" height="240" viewBox="0 0 213 240" fill="none" xmlns="http://www.w3.org/2000/svg">
<path d="M81.4794 196.13C82.9449 196.576 82.9449 196.576 83.5183 197.149C83.4244 197.776 83.3036 198.379 83.1679 198.997C82.1363 204.418 82.6558 210.09 83.5183 215.499C83.7972 215.486 84.0761 215.473 84.3635 215.459C85.3023 215.499 85.3023 215.499 86.051 216.136C86.5957 216.916 86.8335 217.605 86.7578 218.558C86.3521 219.698 85.2611 220.232 84.2829 220.851C84.0696 220.988 84.0696 220.988 83.8521 221.127C83.0227 221.659 82.1877 222.179 81.348 222.694C80.5319 223.195 79.7238 223.706 78.9189 224.225C78.5958 224.432 78.5958 224.432 78.2662 224.644C77.8474 224.913 77.4293 225.184 77.012 225.455C75.1178 226.667 73.5448 227.187 71.2851 226.968C69.6187 226.516 68.6788 225.547 67.717 224.164C67.1557 223.153 66.9562 222.344 66.9365 221.186C67.2807 220.112 67.7673 219.597 68.7365 219.067C69.8368 218.754 70.9514 218.584 72.0815 218.414C74.3733 218.054 76.4925 217.561 78.676 216.773C79.645 216.458 80.445 216.264 81.4794 216.264C81.4272 216.039 81.375 215.814 81.3211 215.582C81.2525 215.276 81.1838 214.97 81.1131 214.655C81.0451 214.356 80.9771 214.058 80.907 213.75C80.4036 211.195 80.4053 208.593 80.3988 205.999C80.3963 205.407 80.3884 204.815 80.3803 204.223C80.3618 201.547 80.6114 198.994 81.2246 196.385C81.3087 196.301 81.3928 196.216 81.4794 196.13Z" fill="#353046"/>
<path d="M134.585 196.423C135.514 199.529 135.711 202.553 135.716 205.773C135.717 205.96 135.719 206.147 135.72 206.341C135.733 208.775 135.513 211.044 135.003 213.426C134.807 214.287 134.807 214.287 134.84 215.282C138.048 217.194 141.341 218.724 144.845 220.019C148.532 221.393 148.532 221.393 149.621 222.928C149.853 224.028 149.722 224.51 149.223 225.508C148.018 226.93 146.661 227.822 144.791 228.099C142.304 228.269 140.054 227.012 138.191 225.465C137.402 224.748 136.653 223.997 135.91 223.235C135.224 222.548 134.499 221.918 133.764 221.285C133.157 220.756 132.59 220.2 132.036 219.615C131.842 219.41 131.647 219.205 131.447 218.994C130.899 218.161 130.84 217.792 131.017 216.811C131.221 216.547 131.425 216.282 131.635 216.01C132.394 214.98 132.577 214.033 132.737 212.781C132.781 212.475 132.781 212.475 132.826 212.163C132.908 211.589 132.982 211.015 133.056 210.44C133.089 210.205 133.123 209.969 133.158 209.727C133.679 205.585 133.27 201.279 132.546 197.187C134.011 196.423 134.011 196.423 134.585 196.423Z" fill="#353045"/>
<path d="M108.228 59.2183C148.39 59.2185 180.928 91.3616 180.928 130.987C180.928 170.612 148.39 202.755 108.228 202.755C68.065 202.755 35.5264 170.612 35.5264 130.987C35.5265 91.3615 68.0651 59.2183 108.228 59.2183Z" fill="#FCAD20"/>
<path d="M108.228 59.2183C148.39 59.2185 180.928 91.3616 180.928 130.987C180.928 170.612 148.39 202.755 108.228 202.755C68.065 202.755 35.5264 170.612 35.5264 130.987C35.5265 91.3615 68.0651 59.2183 108.228 59.2183Z" stroke="black" stroke-width="1.86411"/>
<path d="M108.228 59.2183C148.39 59.2185 180.928 91.3616 180.928 130.987C180.928 170.612 148.39 202.755 108.228 202.755C68.065 202.755 35.5264 170.612 35.5264 130.987C35.5265 91.3615 68.0651 59.2183 108.228 59.2183Z" stroke="white" stroke-opacity="0.2" stroke-width="1.86411"/>
<path d="M175.023 117.938C175.023 143.34 152.904 166.02 124.588 174.185C83.8848 185.921 40.5267 151.505 37.8704 135.175C36.9872 137.897 38.2364 146.061 38.757 147.876C47.6055 178.721 73.9616 201.401 108.659 201.401C148.478 199.586 167.645 176.319 175.024 153.639C175.91 150.918 178.565 132.453 175.023 117.938Z" fill="#FF9916"/>
<path d="M167.295 123.966C168.209 124.865 168.756 125.626 168.983 126.897C168.523 129.474 166.891 131.146 164.815 132.616C160.207 135.518 154.3 137.206 148.869 136.015C147.492 135.5 146.132 134.72 145.345 133.439C144.835 132.175 144.856 130.727 145.375 129.471C148.021 125.218 152.458 123.468 157.055 122.246C160.477 121.454 164.429 121.778 167.295 123.966Z" fill="#E85E13"/>
<path d="M75.1222 128.997C70.4894 128.997 66.7337 125.22 66.7337 120.56C66.7337 115.901 70.4894 112.123 75.1222 112.123C79.7551 112.123 83.5107 115.901 83.5107 120.56C83.5107 125.22 79.7551 128.997 75.1222 128.997Z" fill="#332C43"/>
<path d="M79.0555 120.378C77.8728 120.378 76.9141 119.373 76.9141 118.134C76.9141 116.895 77.8728 115.891 79.0555 115.891C80.2381 115.891 81.1968 116.895 81.1968 118.134C81.1968 119.373 80.2381 120.378 79.0555 120.378Z" fill="#FBFBFB"/>
<path d="M75.9267 116.259C75.5818 116.259 75.3022 115.937 75.3022 115.541C75.3022 115.144 75.5818 114.823 75.9267 114.823C76.2716 114.823 76.5513 115.144 76.5513 115.541C76.5513 115.937 76.2716 116.259 75.9267 116.259Z" fill="#FBFBFB"/>
<path d="M138.506 128.997C133.873 128.997 130.118 125.22 130.118 120.56C130.118 115.901 133.873 112.123 138.506 112.123C143.139 112.123 146.895 115.901 146.895 120.56C146.895 125.22 143.139 128.997 138.506 128.997Z" fill="#332C43"/>
<path d="M142.439 120.378C141.257 120.378 140.298 119.373 140.298 118.134C140.298 116.895 141.257 115.891 142.439 115.891C143.622 115.891 144.581 116.895 144.581 118.134C144.581 119.373 143.622 120.378 142.439 120.378Z" fill="#FBFBFB"/>
<path d="M139.311 116.259C138.966 116.259 138.686 115.937 138.686 115.541C138.686 115.144 138.966 114.823 139.311 114.823C139.655 114.823 139.935 115.144 139.935 115.541C139.935 115.937 139.655 116.259 139.311 116.259Z" fill="#FBFBFB"/>
<path d="M54.7627 122.821C54.9842 122.822 55.2056 122.824 55.4338 122.825C59.7763 122.943 63.9748 124.693 67.1134 127.709C68.2221 128.933 68.9739 130.11 69.0667 131.788C68.9785 133.195 68.3211 134.011 67.3304 134.974C65.7058 136.045 64.1858 136.337 62.281 136.312C62.0697 136.31 61.8584 136.308 61.6406 136.305C57.0909 136.179 52.5973 134.292 49.3947 131.038C48.3628 129.846 47.8846 128.776 47.6426 127.233C47.9287 125.624 49.0321 124.628 50.3186 123.713C51.8395 123.034 53.1038 122.808 54.7627 122.821Z" fill="#E75E12"/>
<path d="M122.206 129.122C120.488 131.791 114.841 136.578 105.937 136.578C98.8872 136.578 93.7355 132.16 92.3798 129.122" stroke="#332C43" stroke-width="2.79617" stroke-linecap="round"/>
<path d="M116.825 183.265C138.723 181.273 155.453 168.6 161.08 162.513C157.07 169.081 147.376 181.243 121.371 185.835C100.567 189.509 74.4895 183.506 64.7286 178.877C87.7207 191.571 113.818 192.355 126.264 189.108C166.236 178.68 175.778 153.796 175.909 141.68C177.582 159.408 165.216 182.578 126.219 193.344C81.6282 202.191 54.8766 175.581 47.9992 161.297C65.3827 182.712 89.4518 185.755 116.825 183.265Z" fill="#FE7800"/>
<path d="M33.7326 132.915C28.9696 130.001 20.9098 136.017 21.8456 147.092" stroke="#332C43" stroke-width="1.81448" stroke-linecap="round"/>
<path d="M30.0043 150.863C30.042 150.916 30.605 151.266 30.8819 151.435L32.1763 151.808C32.8258 152.409 34.1846 153.7 34.2602 153.806C34.3358 153.912 34.5704 154.849 34.677 155.306C34.4413 155.674 33.9105 156.433 33.6749 156.522C33.4392 156.61 32.394 156.738 31.9024 156.79L29.8274 155.876L28.4893 155.42L29.1754 157.427L29.4419 159.633L28.959 162.29L28.1531 162.866L26.6134 162.413L26.1873 162.474L25.4856 162.276L24.2431 162.765L23.4169 162.656L22.5077 161.908L21.8849 161.953L20.7052 162.397L19.8432 161.715L18.815 159.753L18.244 155.752L17.6551 152.059L19.5173 147.451L21.4544 146.366L25.0413 145.996L27.8496 147.849L30.0043 150.863Z" fill="#FF9916"/>
<path d="M25.7927 162.296C25.7927 162.296 23.6954 164.414 22.3638 161.638M22.3638 161.638C22.3536 162.102 21.7233 162.631 21.153 162.741C18.73 163.213 17.3839 154.125 17.3875 152.463C17.3925 149.863 19.2637 147.332 22.098 146.224C25.4556 144.913 28.6307 147.693 29.7554 150.651C31.9174 151.523 36.0106 154.2 33.6899 156.155C31.9524 157.619 28.9363 155.256 28.1459 154.585C28.0849 154.533 27.9921 154.586 28.0109 154.662C28.7985 157.922 30.8846 162.109 27.8909 162.738C25.1435 163.316 24.2764 156.449 24.2764 156.449M22.3638 161.638C21.9302 160.732 21.5777 159.305 21.406 157.115" stroke="#332C43" stroke-width="0.907238" stroke-linecap="round"/>
<path d="M181.859 132.852C186.015 134.59 193.743 138.784 190.682 149.469" stroke="#332C43" stroke-width="1.81448" stroke-linecap="round"/>
<path d="M183.468 156.528C183.45 156.591 183.037 157.109 182.832 157.361L181.738 158.146C181.327 158.93 180.48 160.602 180.444 160.727C180.408 160.852 180.501 161.814 180.554 162.28C180.899 162.548 181.654 163.085 181.905 163.09C182.157 163.094 183.185 162.864 183.665 162.748L185.314 161.192L186.422 160.314L186.448 162.435L186.936 164.603L188.281 166.944L189.234 167.217L190.532 166.274L190.954 166.189L191.549 165.767L192.884 165.812L193.626 165.432L194.232 164.423L194.834 164.257L196.094 164.28L196.678 163.348L196.989 161.155L196.187 157.194L195.783 154.688L194.737 152.299L192.205 149.799L190.017 149.426L186.513 150.279L184.488 152.967L183.468 156.528Z" fill="#FF9916"/>
<path d="M191.268 165.888C191.268 165.888 193.954 167.182 194.278 164.119M194.278 164.119C194.444 164.554 195.214 164.84 195.789 164.754C198.23 164.386 196.453 155.373 195.893 153.808C195.017 151.36 192.406 149.602 189.365 149.508C185.762 149.398 183.701 153.08 183.633 156.245C181.888 157.791 178.928 161.684 181.77 162.749C183.898 163.546 185.947 160.309 186.467 159.412C186.507 159.342 186.613 159.361 186.62 159.439C186.971 162.774 186.408 167.418 189.439 167.008C192.221 166.632 190.738 159.872 190.738 159.872M194.278 164.119C194.383 163.121 194.237 161.658 193.665 159.537" stroke="#332C43" stroke-width="0.907238" stroke-linecap="round"/>
<path d="M107.296 239.072C73.5043 239.062 46.1091 233.845 46.107 227.419C46.1049 220.993 73.4966 215.792 107.288 215.802C141.08 215.812 168.475 221.03 168.477 227.456C168.479 233.881 141.087 239.082 107.296 239.072Z" fill="#0C7D19" fill-opacity="0.11"/>
<path d="M106.705 1.03906H106.72L107.435 1.0625C114.54 1.3643 120.3 3.82216 125.555 8.60645L126.079 9.09277L126.1 9.11328L126.12 9.13477C128.355 11.5221 129.58 12.8238 130.21 13.8076C130.552 14.341 130.748 14.8207 130.845 15.3545C130.863 15.4548 130.876 15.5562 130.888 15.6582C131.693 15.3542 132.298 14.8655 133.192 14.0596L133.214 14.04L133.236 14.0225C137.232 10.8275 142.011 9.6976 146.927 9.79883L147.403 9.8125L147.449 9.81445L147.494 9.82031C153.746 10.6438 158.776 13.1327 162.939 17.8672L163.34 18.333L163.364 18.3613L163.386 18.3926C167.282 23.825 168.386 29.1869 167.595 35.6943L167.59 35.7334L167.582 35.7725C166.423 41.4137 163.039 45.5997 158.607 48.8877L158.577 48.9102L158.545 48.9297C152.673 52.6188 145.485 53.2756 138.888 51.9199L138.824 51.9062L138.764 51.8857C135.783 50.8483 133.109 49.2641 130.549 47.6094C130.417 47.7293 130.283 47.8503 130.148 47.9727L130.142 47.9795L130.134 47.9863C121.679 55.3338 112.247 56.9381 101.537 56.2051L101.505 56.2031L101.473 56.1992C97.7923 55.6995 94.6892 54.487 91.4951 52.7441C90.5836 52.263 89.6542 51.8614 88.6807 51.4746C88.5267 51.65 88.3723 51.8274 88.2148 52.0068L88.1934 52.0303L88.1709 52.0527C84.2501 55.9718 79.6944 57.6442 74.3545 57.8652L74.3242 57.8672L74.2939 57.8662C68.984 57.7519 64.563 55.713 60.8262 51.9932L60.791 51.958L60.7598 51.9189C56.4121 46.6016 55.5293 41.21 55.9951 34.6592L55.9971 34.6299L56.001 34.6016C56.6044 30.0313 59.4464 26.2013 62.8662 23.5098L62.8975 23.4863C66.6174 20.7922 70.9286 19.8526 75.377 20.3115L75.8086 20.3604L75.8779 20.3682L75.9453 20.3867C77.4754 20.8049 78.9633 21.2942 80.4355 21.8311C80.5031 16.2432 84.2336 11.5416 87.5781 7.93457L87.5957 7.91504L87.6143 7.89746C92.4188 3.2405 99.0884 0.978319 105.612 1.03125L105.613 1.03027C105.973 1.03304 106.334 1.03621 106.705 1.03906Z" fill="#FEFEFE" stroke="black" stroke-width="1.94091"/>
<path d="M131.428 49.7588L131.433 49.7617C137.316 52.8547 142.333 53.6666 148.698 54.0059C148.489 57.5044 148.098 60.9511 147.561 64.4268L147.56 64.4297C147.5 64.8229 147.441 65.2161 147.38 65.6211C147.014 67.9149 146.839 69.0069 146.654 69.7402C146.497 70.3646 146.338 70.708 145.996 71.3906C144.97 71.9784 144.146 72.3457 143.014 72.7158L143.006 72.7188L142.999 72.7207L141.967 73.082C137.924 74.4433 133.777 75.4446 129.577 76.332H129.576C128.8 76.4967 128.023 76.6672 127.248 76.8467C111.839 80.3779 93.819 78.4669 78.8613 73.667L78.8467 73.6621L78.8311 73.6582L77.8369 73.3828C77.3924 72.965 77.1414 72.4547 76.9785 71.835C76.8846 71.4775 76.8256 71.1138 76.7734 70.7266L76.6123 69.4746L76.6104 69.4619C76.5515 69.0904 76.4922 68.7187 76.4316 68.3359C75.9754 65.3328 75.6923 62.323 75.5234 59.2832L76.3418 59.0898L76.3486 59.0879C81.1214 57.912 85.1668 56.4522 89.04 53.1846C90.1898 53.6464 91.3362 54.1118 92.4785 54.5869L92.4854 54.5898C101.941 58.4202 112.037 58.6174 121.599 54.8545L121.634 54.8389C124.708 53.448 128.01 51.7315 130.583 49.3076C130.861 49.4565 131.142 49.606 131.428 49.7588Z" fill="#FEFEFE" stroke="black" stroke-width="1.55273"/>
<path d="M166.141 27.2201C166.302 27.2201 166.463 27.2201 166.63 27.2201C166.907 33.8358 166.652 39.0886 162.218 44.3902C157.99 48.8339 152.921 51.3081 146.804 51.4476C140.276 51.4999 135.938 49.9797 130.449 46.3888C130.134 46.6739 129.82 46.959 129.496 47.2528C121.303 54.3725 112.163 55.9588 101.602 55.2359C98.0653 54.7557 95.073 53.5922 91.9473 51.8856C90.7914 51.2754 89.6193 50.7897 88.4007 50.3209C88.0981 50.6655 87.7956 51.0102 87.4839 51.3653C83.7602 55.0874 79.4478 56.6822 74.3133 56.8948C69.2379 56.7855 65.1446 54.8292 61.5094 51.3039C60.7368 50.3446 60.1568 49.4355 59.5537 48.3548C61.0205 48.3548 61.0205 48.3548 62.3651 49.2764C66.2607 51.837 70.2724 51.4681 74.7106 50.8124C78.1194 49.8333 81.0192 48.0238 82.9307 44.9757C83.5612 43.3079 83.8241 41.7706 84.0003 39.9992C84.4994 40.4293 84.9985 40.8594 85.4976 41.2894C85.8128 41.5587 86.1279 41.828 86.4526 42.1054C87.0577 42.6311 87.6552 43.1661 88.2402 43.7143C94.0788 49.0945 101.299 50.1291 108.932 49.9983C115.744 49.6826 122.858 46.5283 127.515 41.4738C128.274 40.3532 128.866 39.2503 129.471 38.0332C129.784 38.3678 130.096 38.7023 130.418 39.047C134.717 43.3198 138.875 46.0562 145.056 46.1431C151.011 46.0528 155.916 44.1168 160.274 39.9992C163.308 36.2577 165.042 31.8857 166.141 27.2201Z" fill="#E8E4E8"/>
<path d="M131.043 49.1445C131.751 49.3902 131.928 49.6184 132.384 49.8626C138.356 53.0062 141.297 53.7832 147.979 54.0968C147.912 55.0724 147.865 55.4134 147.789 56.37C143.795 58.7788 140.441 57.8756 136.167 56.9913C134.593 56.5537 133.408 55.9849 131.989 55.1962C130.857 54.6187 130.857 54.6187 129.578 54.5511C127.395 55.455 125.509 56.6754 123.542 57.9767C117.062 62.0791 108.45 62.2804 101.135 60.8485C98.376 60.1852 95.8356 59.2209 93.259 58.0339C90.8103 57.0072 90.8103 57.0072 88.2826 57.4809C87.8709 57.7103 87.4593 57.9396 87.0351 58.1759C84.7042 59.4525 81.7944 60.4227 79.1218 60.391C78.6365 60.3866 78.1512 60.3821 77.6512 60.3776C77.095 60.369 76.9753 60.6287 76.4079 60.62C76.363 60.3307 76.3618 59.7472 76.3618 59.4129C76.7282 59.3052 77.2604 59.1619 77.6378 59.0509C80.7676 58.0748 84.6641 56.4348 87.4213 54.6494C87.7688 54.4276 88.0331 54.1559 88.3911 53.9275C88.8622 53.5996 88.5803 53.7805 89.061 53.446C89.5026 53.2241 90.4461 53.005 91.7293 53.5738C92.1844 53.8456 92.6395 54.1174 93.1084 54.3975C101.079 58.6524 111.046 58.3854 118.836 56.0256C126.626 53.6658 130.336 48.8988 131.043 49.1445Z" fill="#E9E5E9"/>
<path d="M35.8853 130.997C36.6314 130.643 35.2789 137.577 41.767 144.766C48.2552 151.955 61.9215 160.758 61.9215 160.758C61.9215 160.758 64.1297 162.199 69.4353 164.547C74.741 166.895 89.8564 171.779 107.343 172.172C124.829 172.566 142.937 166.271 147.429 164.547C151.921 162.824 152.147 162.403 153.721 161.458C156.898 159.553 162.851 154.829 167.686 151.212C172.52 147.596 181.361 137.578 181.57 135.612C181.78 133.646 182.611 138.855 181.134 143.423C180.492 145.409 176.789 152.478 170.864 157.405C163.163 163.809 153.829 169.159 153.829 169.159L154.582 184.429C155.577 193.98 157.45 203.998 157.45 205.069C157.45 206.991 133.144 216.478 111.046 215.744C88.948 215.009 58.7069 207.277 58.3246 205.069C57.9422 202.861 61.9215 184.051 61.9215 168.904C44.0615 156.166 41.767 153.728 37.8235 148.566C34.9589 144.816 34.354 143.554 34.1423 138.84C34.0015 135.706 35.1392 131.352 35.8853 130.997Z" fill="#804BB5"/>
<path d="M153.829 169.159C153.829 169.159 153.636 165.244 153.721 161.458M153.829 169.159C153.829 169.159 153.79 176.828 154.582 184.429M153.829 169.159L154.582 184.429M153.829 169.159C153.829 169.159 163.163 163.809 170.864 157.405C176.789 152.478 180.492 145.409 181.134 143.423C182.611 138.855 181.78 133.646 181.57 135.612C181.361 137.578 172.52 147.596 167.686 151.212C162.851 154.829 156.898 159.553 153.721 161.458M153.721 161.458C152.147 162.403 151.921 162.824 147.429 164.547C142.937 166.271 124.829 172.566 107.343 172.172C89.8564 171.779 74.741 166.895 69.4353 164.547C64.1297 162.199 61.9215 160.758 61.9215 160.758M61.9215 160.758C61.9215 160.758 48.2552 151.955 41.767 144.766C35.2789 137.577 36.6314 130.643 35.8853 130.997C35.1392 131.352 34.0015 135.706 34.1423 138.84C34.354 143.554 34.9589 144.816 37.8235 148.566C41.767 153.728 44.0615 156.166 61.9215 168.904M61.9215 160.758C61.9215 164.479 62.2111 165.993 61.9215 168.904M61.9215 168.904C61.9215 184.051 57.9422 202.861 58.3245 205.069C58.7069 207.277 88.948 215.009 111.046 215.744C133.144 216.478 157.45 206.991 157.45 205.069C157.45 203.998 155.577 193.98 154.582 184.429M83.1067 181.458C82.5146 183.827 81.1296 194.927 86.1853 200.522C89.9298 204.667 104.657 206.088 104.657 206.088C104.657 206.088 116.99 206.761 122.774 204.785C127.39 203.209 130.549 199.913 132.019 196.817C132.912 194.935 134.223 182.836 133.67 182.836C133.116 182.836 120.293 184.056 108.21 183.827C95.7734 183.591 83.407 180.257 83.1067 181.458Z" stroke="#353046" stroke-width="0.970455" stroke-linecap="round"/>
</svg>
