<svg width="342" height="166" viewBox="0 0 342 166" fill="none" xmlns="http://www.w3.org/2000/svg">
<g clip-path="url(#clip0_2113_27843)">
<mask id="mask0_2113_27843" style="mask-type:luminance" maskUnits="userSpaceOnUse" x="143" y="24" width="140" height="140">
<path d="M143.973 24H282.438V163.245H143.973V24Z" fill="white"/>
</mask>
<g mask="url(#mask0_2113_27843)">
<path d="M213.206 139.923C183.341 139.923 159.131 116.661 159.131 87.9648C159.131 59.2689 183.341 36.0063 213.206 36.0063C243.07 36.0063 267.28 59.2689 267.28 87.9648C267.28 116.661 243.07 139.923 213.206 139.923Z" fill="url(#paint0_radial_2113_27843)" fill-opacity="0.8"/>
<path d="M172.801 79.0074C172.698 79.5978 172.255 81.2675 172.033 82.1859C171.693 82.199 171.356 82.2531 171.03 82.3471L171.008 82.3532L171.162 80.4343L172.033 78.8598C172.322 78.7778 172.856 78.6872 172.801 79.0074Z" fill="white"/>
<path d="M271.479 71.0352L253.454 75.9108L253.588 76.3491L271.479 71.0352Z" fill="white"/>
<path d="M244.552 38.0684L233.366 52.4983L233.751 52.7671L244.552 38.0684Z" fill="white"/>
<path d="M172.416 44.0422L184.007 58.1735L184.377 57.8868L172.416 44.0422Z" fill="white"/>
<path d="M176.118 134.913L187.362 120.525L186.979 120.255L176.118 134.913Z" fill="white"/>
<path d="M249.482 135.372L238.238 120.984L238.622 120.714L249.482 135.372Z" fill="white"/>
<path d="M256.37 61.7859C255.889 61.7859 255.499 61.4114 255.499 60.9495C255.499 60.4875 255.889 60.113 256.37 60.113C256.85 60.113 257.24 60.4875 257.24 60.9495C257.24 61.4114 256.85 61.7859 256.37 61.7859Z" fill="white"/>
<path d="M166.298 107.155C165.958 107.155 165.683 106.891 165.683 106.565C165.683 106.239 165.958 105.974 166.298 105.974C166.637 105.974 166.912 106.239 166.912 106.565C166.912 106.891 166.637 107.155 166.298 107.155Z" fill="white"/>
<path d="M173.314 61.3951C172.833 61.3951 172.444 61.0206 172.444 60.5586C172.444 60.0967 172.833 59.7222 173.314 59.7222C173.795 59.7222 174.185 60.0967 174.185 60.5586C174.185 61.0206 173.795 61.3951 173.314 61.3951Z" fill="white"/>
<path d="M251.456 115.423C251.202 115.423 250.995 115.225 250.995 114.981C250.995 114.736 251.202 114.538 251.456 114.538C251.711 114.538 251.917 114.736 251.917 114.981C251.917 115.225 251.711 115.423 251.456 115.423Z" fill="white"/>
<path d="M187.45 127.423L186.951 128.371L185.965 128.85L186.951 129.329L187.45 130.277L187.948 129.329L188.935 128.85L187.948 128.371L187.45 127.423Z" fill="white"/>
<path d="M187.45 127.423L186.951 128.371L185.965 128.85L186.951 129.329L187.45 130.277L187.948 129.329L188.935 128.85L187.948 128.371L187.45 127.423Z" fill="white"/>
<path d="M264.976 81.3691L264.477 82.3168L263.491 82.796L264.477 83.2753L264.976 84.2229L265.475 83.2753L266.461 82.796L265.475 82.3168L264.976 81.3691Z" fill="white"/>
<path d="M166.965 68.9734L166.466 69.921L165.48 70.4003L166.466 70.8795L166.965 71.8272L167.464 70.8795L168.45 70.4003L167.464 69.921L166.965 68.9734Z" fill="white"/>
<path d="M226.365 39.1533L225.556 40.6891L223.958 41.4659L225.556 42.2426L226.365 43.7784L227.173 42.2426L228.771 41.4659L227.173 40.6891L226.365 39.1533Z" fill="white"/>
<path d="M230.155 79.6996C229.957 79.6996 229.797 79.5234 229.797 79.306C229.797 79.0886 229.957 78.9124 230.155 78.9124C230.353 78.9124 230.514 79.0886 230.514 79.306C230.514 79.5234 230.353 79.6996 230.155 79.6996Z" fill="#FBFBFB"/>
</g>
<g clip-path="url(#clip1_2113_27843)">
<path d="M166.992 115.981L327.941 104.031V127.931L166.992 115.981Z" fill="url(#paint1_linear_2113_27843)" fill-opacity="0.08"/>
<path d="M167.181 116.052L314.336 49.7746L322.511 72.2331L167.181 116.052Z" fill="url(#paint2_linear_2113_27843)" fill-opacity="0.08"/>
<path d="M167.212 116.004L282.825 3.39351L298.188 21.7018L167.212 116.004Z" fill="url(#paint3_linear_2113_27843)" fill-opacity="0.08"/>
<path d="M166.997 116.166L237.123 -29.1944L257.821 -17.2445L166.997 116.166Z" fill="url(#paint4_linear_2113_27843)" fill-opacity="0.08"/>
<path d="M166.989 116.146L183.169 -44.4325L206.706 -40.2823L166.989 116.146Z" fill="url(#paint5_linear_2113_27843)" fill-opacity="0.08"/>
<path d="M167.183 115.734L127.466 -40.6942L151.002 -44.8444L167.183 115.734Z" fill="url(#paint6_linear_2113_27843)" fill-opacity="0.08"/>
<path d="M167.615 116.578L76.7911 -16.8329L97.489 -28.7828L167.615 116.578Z" fill="url(#paint7_linear_2113_27843)" fill-opacity="0.08"/>
<path d="M167.257 116.004L36.2821 21.7018L51.6446 3.39351L167.257 116.004Z" fill="url(#paint8_linear_2113_27843)" fill-opacity="0.08"/>
<path d="M167.831 116.052L12.5017 72.2336L20.676 49.7751L167.831 116.052Z" fill="url(#paint9_linear_2113_27843)" fill-opacity="0.08"/>
<path d="M168.229 115.981L7.27957 127.931V104.031L168.229 115.981Z" fill="url(#paint10_linear_2113_27843)" fill-opacity="0.08"/>
<path d="M167.421 115.973L20.2651 182.25L12.0909 159.791L167.421 115.973Z" fill="url(#paint11_linear_2113_27843)" fill-opacity="0.08"/>
<path d="M167.204 115.672L97.0783 261.033L76.3804 249.083L167.204 115.672Z" fill="url(#paint12_linear_2113_27843)" fill-opacity="0.08"/>
<path d="M167.183 115.7L151.003 276.278L127.466 272.128L167.183 115.7Z" fill="url(#paint13_linear_2113_27843)" fill-opacity="0.08"/>
<path d="M166.989 115.7L206.706 272.128L183.169 276.278L166.989 115.7Z" fill="url(#paint14_linear_2113_27843)" fill-opacity="0.08"/>
<path d="M166.997 115.672L257.82 249.083L237.122 261.033L166.997 115.672Z" fill="url(#paint15_linear_2113_27843)" fill-opacity="0.08"/>
<path d="M166.801 115.636L297.776 209.938L282.414 228.247L166.801 115.636Z" fill="url(#paint16_linear_2113_27843)" fill-opacity="0.08"/>
<path d="M167.18 115.973L322.51 159.791L314.336 182.25L167.18 115.973Z" fill="url(#paint17_linear_2113_27843)" fill-opacity="0.08"/>
<path d="M167.258 115.636L51.6454 228.246L36.2829 209.938L167.258 115.636Z" fill="url(#paint18_linear_2113_27843)" fill-opacity="0.08"/>
<g clip-path="url(#clip2_2113_27843)">
<path d="M317.282 13.724L306.31 36.4447L306.901 36.6446L317.282 13.724Z" fill="white"/>
<path d="M296.83 19.0426C296.826 18.4414 297.369 17.95 298.045 17.9451C298.72 17.9403 299.271 18.4237 299.275 19.0249C299.279 19.6261 298.735 20.1175 298.06 20.1224C297.385 20.1272 296.834 19.6438 296.83 19.0426Z" fill="white"/>
<path d="M285.697 11.1825L284.307 10.5688L283.598 9.34054L282.906 10.5789L281.526 11.2127L282.915 11.8264L283.625 13.0546L284.316 11.8162L285.697 11.1825Z" fill="white"/>
<path d="M329.813 85.1483L327.561 84.1536L326.412 82.163L325.291 84.17L323.054 85.1971L325.306 86.1918L326.455 88.1824L327.576 86.1754L329.813 85.1483Z" fill="white"/>
</g>
<g clip-path="url(#clip3_2113_27843)">
<mask id="mask1_2113_27843" style="mask-type:luminance" maskUnits="userSpaceOnUse" x="238" y="17" width="97" height="102">
<path d="M238.5 17H334.755V118.321H238.5V17Z" fill="white"/>
</mask>
<g mask="url(#mask1_2113_27843)">
<path d="M287.624 105.502C272.958 105.502 261.068 103.274 261.068 100.525C261.068 97.7767 272.958 95.5486 287.624 95.5486C302.29 95.5486 314.18 97.7767 314.18 100.525C314.18 103.274 302.29 105.502 287.624 105.502Z" fill="#0C2C7D" fill-opacity="0.11"/>
<path d="M286.627 101.352C265.866 101.352 249.036 84.4246 249.036 63.5441C249.036 42.6636 265.866 25.7366 286.627 25.7366C307.388 25.7366 324.218 42.6636 324.218 63.5441C324.218 84.4246 307.388 101.352 286.627 101.352Z" fill="url(#paint19_radial_2113_27843)" fill-opacity="0.5"/>
<path d="M286.804 93.4029C270.506 93.4029 257.294 80.1146 257.294 63.7226C257.294 47.3306 270.506 34.0422 286.804 34.0422C303.102 34.0422 316.314 47.3306 316.314 63.7226C316.314 80.1146 303.102 93.4029 286.804 93.4029Z" stroke="white" stroke-width="0.821862"/>
<path d="M277.799 86.8867C277.122 88.077 275.705 90.9489 275.456 92.9152C275.207 94.8807 275.723 97.2773 276.013 98.229" stroke="#332C43" stroke-width="0.821862" stroke-linecap="round"/>
<path d="M276.344 97.5524C277.515 96.9896 278.205 98.3135 277.298 98.7962C275.658 99.669 273.249 101.201 271.69 100.748C271.075 100.57 270.228 99.6991 270.768 99.0926C271.308 98.4854 274.313 98.5284 276.344 97.5524Z" fill="#332C43" stroke="#332C43" stroke-width="0.410931" stroke-linecap="round"/>
<path d="M294.855 86.0974C295.545 87.3104 296.989 90.2369 297.242 92.2404C297.496 94.2439 296.97 96.6857 296.675 97.6559" stroke="#332C43" stroke-width="0.821862" stroke-linecap="round"/>
<path d="M297.497 97.2119C296.408 96.5395 295.57 97.7783 296.408 98.3447C297.923 99.3694 299.99 101.594 301.582 101.303C302.211 101.187 303.279 99.9386 302.819 99.2856C302.358 98.6326 299.386 98.3769 297.497 97.2119Z" fill="#332C43" stroke="#332C43" stroke-width="0.410931" stroke-linecap="round"/>
<path d="M259.46 60.2888C257.471 58.8199 253.698 61.1828 253.698 66.1235" stroke="#332C43" stroke-width="0.821862" stroke-linecap="round"/>
<path d="M255.906 70.0236C255.906 70.0525 256.018 70.3246 256.075 70.4571L256.444 70.9266C256.523 71.3119 256.68 72.1301 256.68 72.1879C256.68 72.2457 256.523 72.6454 256.444 72.8381C256.265 72.9103 255.879 73.0475 255.771 73.0187C255.664 72.9897 255.255 72.7658 255.065 72.6575L254.554 71.7906L254.19 71.2797L253.921 72.1827L253.45 73.0496L252.593 73.8855H252.155L251.617 73.6688L251.549 73.2353L251.348 72.9825L250.776 72.8381L250.506 72.5852L250.372 72.0796L250.136 71.9351L249.598 71.7906L249.463 71.321L249.598 70.3459L250.421 68.7514L251.633 66.8371L253.012 66.0786L253.988 66.187L255.373 66.9804L255.906 68.3767V70.0236Z" fill="#FF9916"/>
<path d="M251.453 73.0686C251.453 73.0686 250.154 73.2926 250.389 71.9442M250.389 71.9442C250.266 72.1097 249.904 72.1378 249.67 72.0303C248.678 71.5747 250.529 67.9404 250.958 67.3401C251.628 66.4014 252.951 65.9695 254.255 66.3019C255.799 66.6957 256.226 68.5216 255.87 69.8821C256.424 70.7564 257.207 72.7823 255.87 72.8895C254.869 72.9698 254.392 71.3355 254.281 70.8886C254.272 70.854 254.225 70.8492 254.212 70.8816C253.658 72.2639 253.08 74.4026 251.842 73.8563C250.706 73.3549 252.41 70.5624 252.41 70.5624M250.389 71.9442C250.466 71.5046 250.706 70.8976 251.207 70.0611" stroke="#332C43" stroke-width="0.410931" stroke-linecap="round"/>
<g filter="url(#filter0_d_2113_27843)">
<path d="M286.791 92.1854C271.161 92.1854 258.491 79.442 258.491 63.7223C258.491 48.0026 271.161 35.2593 286.791 35.2593C302.421 35.2593 315.091 48.0026 315.091 63.7223C315.091 79.442 302.421 92.1854 286.791 92.1854Z" fill="#FFAF16"/>
</g>
<path d="M286.79 92.5426C270.964 92.5426 258.135 79.6389 258.135 63.7215C258.135 47.804 270.964 34.9004 286.79 34.9004C302.617 34.9004 315.446 47.804 315.446 63.7215C315.446 79.6389 302.617 92.5426 286.79 92.5426Z" stroke="#332C43" stroke-width="0.587044"/>
<path d="M308.979 46.0508C312.6 58.4097 307.498 71.6823 294.303 77.2906C277.939 84.2459 258.492 72.314 258.984 58.4097C258.661 60.1306 258.492 61.9061 258.492 63.7214C258.492 79.4411 271.162 92.1844 286.792 92.1844C302.422 92.1844 315.092 79.4411 315.092 63.7214C315.092 57.0448 312.806 50.9052 308.979 46.0508Z" fill="#FF9916"/>
<path d="M306.206 65.0115C303.611 65.7108 301.222 65.2071 300.87 63.8864C300.519 62.5656 302.337 60.928 304.932 60.2287C307.527 59.5293 309.916 60.0331 310.268 61.3538C310.62 62.6745 308.801 64.3121 306.206 65.0115Z" fill="#F05D0E"/>
<path d="M264.718 65.3043C262.287 64.6492 260.602 63.0474 260.954 61.7267C261.305 60.406 263.561 59.8664 265.992 60.5215C268.423 61.1767 270.109 62.7784 269.757 64.0992C269.405 65.4199 267.149 65.9595 264.718 65.3043Z" fill="#F05D0E"/>
<path d="M290.017 81.7501C299.372 80.5553 306.468 73.6609 308.846 70.363C307.162 73.9098 302.504 81.7501 291.405 84.3635C282.526 86.4542 271.915 82.1234 267.72 79.6966C276.124 87.761 288.795 86.4791 294.081 84.8302C311.126 79.0059 313.603 64.9183 312.711 58.6025C314.165 65.9762 312.315 81.974 293.288 86.9769C274.261 91.9799 263.492 77.9855 260.485 70.363C268.017 81.7501 278.324 83.2435 290.017 81.7501Z" fill="#FE7800"/>
<path d="M315.105 57.3136C315.283 58.1729 315.568 59.8198 315.639 60.5359C315.769 60.7865 316.037 61.3092 316.066 61.3951C316.094 61.4811 316.315 60.8581 316.422 60.5359L315.888 56.7408L315.176 55.4161C314.974 55.3325 314.834 56.0078 315.105 57.3136Z" fill="white"/>
<path d="M258.54 57.0266C258.469 57.4562 258.16 58.6711 258.006 59.3394C257.769 59.3489 257.535 59.3883 257.309 59.4567L257.294 59.4611L257.401 58.0648L258.006 56.9192C258.207 56.8595 258.578 56.7936 258.54 57.0266Z" fill="white"/>
<path d="M327.043 66.3662C327.123 66.1062 326.982 65.831 326.729 65.7438L326.704 65.7359L321.946 64.3663C321.796 64.3231 321.635 64.3531 321.511 64.446L321.487 64.4654L319.596 66.0741C319.559 66.1057 319.527 66.1425 319.5 66.1835L318.986 66.9783C318.811 67.2493 318.933 67.6108 319.23 67.7213L319.259 67.7312L325.514 69.6426C325.768 69.7202 326.036 69.5838 326.127 69.3358L326.135 69.3114L327.043 66.3662Z" fill="#FFCE2D" stroke="#332C43" stroke-width="0.587044"/>
<path d="M325.865 65.1675C325.945 64.9074 325.804 64.6323 325.551 64.545L325.526 64.5372L320.768 63.1676C320.618 63.1244 320.457 63.1544 320.333 63.2473L320.309 63.2667L318.418 64.8754C318.381 64.9069 318.348 64.9438 318.322 64.9848L317.808 65.7796C317.633 66.0506 317.755 66.4121 318.051 66.5226L318.081 66.5325L324.336 68.4439C324.59 68.5215 324.858 68.3851 324.948 68.137L324.957 68.1128L325.865 65.1675Z" fill="#FFF196" stroke="#332C43" stroke-width="0.587044"/>
<path d="M310.563 62.6528L326.076 67.4099C326.978 67.6867 327.487 68.6471 327.212 69.5549L323.94 80.3464C323.665 81.2543 322.71 81.7659 321.807 81.4891L306.295 76.7319C305.392 76.4551 304.883 75.4947 305.158 74.5869L308.43 63.7954C308.705 62.8875 309.66 62.376 310.563 62.6528Z" fill="#1861AA" stroke="#332C43" stroke-width="0.587044"/>
<path d="M311.968 63.0836L326.076 67.4099C326.978 67.6867 327.487 68.6471 327.212 69.5549L323.94 80.3464C323.665 81.2543 322.71 81.7659 321.807 81.4891L307.7 77.1627C306.797 76.8859 306.288 75.9256 306.563 75.0177L309.835 64.2262C310.11 63.3184 311.065 62.8068 311.968 63.0836Z" fill="#4F90BE" stroke="#332C43" stroke-width="0.587044"/>
<path d="M318.986 67.7334C320.446 64.0815 317.74 60.7519 315.462 60.1074" stroke="#332C43" stroke-width="0.821862" stroke-linecap="square"/>
<path d="M317.075 67.6777C319.473 66.8492 320.66 68.9635 320.705 69.811C320.928 71.2982 319.586 72.335 319.427 73.346C319.278 74.2959 318.949 74.5684 318.557 74.6355C317.668 74.788 317.306 73.8754 317.292 73.5445C316.834 74.7992 315.665 74.2051 315.416 73.4575C313.84 74.1262 313.982 72.2007 314.25 71.1544C314.433 70.2724 315.413 68.2519 317.075 67.6777Z" fill="#FF9916"/>
<path d="M315.416 73.4575C313.84 74.1262 313.982 72.2007 314.25 71.1544C314.433 70.2724 315.413 68.2519 317.075 67.6777C319.473 66.8492 320.66 68.9635 320.705 69.811C320.928 71.2982 319.586 72.335 319.427 73.346C319.278 74.2959 318.949 74.5684 318.557 74.6355C317.668 74.788 317.306 73.8754 317.292 73.5445M315.416 73.4575C315.287 73.0672 315.149 71.8776 316.207 70.8609M315.416 73.4575C315.665 74.2051 316.834 74.7992 317.292 73.5445M317.292 73.5445C317.272 73.0475 317.465 72.2212 317.926 71.573" stroke="#332C43" stroke-width="0.410931" stroke-linecap="round"/>
<path d="M327.137 51.2253L314.606 54.7731L314.7 55.092L327.137 51.2253Z" fill="white"/>
<path d="M308.417 27.2371L300.641 37.737L300.908 37.9326L308.417 27.2371Z" fill="white"/>
<path d="M258.271 31.584L266.328 41.8666L266.585 41.658L258.271 31.584Z" fill="white"/>
<path d="M260.843 97.7054L268.659 87.2362L268.393 87.0396L260.843 97.7054Z" fill="white"/>
<path d="M311.846 98.04L304.03 87.5706L304.296 87.374L311.846 98.04Z" fill="white"/>
<path d="M316.635 44.4949C316.3 44.4949 316.029 44.2224 316.029 43.8862C316.029 43.5501 316.3 43.2776 316.635 43.2776C316.969 43.2776 317.24 43.5501 317.24 43.8862C317.24 44.2224 316.969 44.4949 316.635 44.4949Z" fill="white"/>
<path d="M254.018 77.5079C253.782 77.5079 253.591 77.3156 253.591 77.0783C253.591 76.841 253.782 76.6487 254.018 76.6487C254.254 76.6487 254.445 76.841 254.445 77.0783C254.445 77.3156 254.254 77.5079 254.018 77.5079Z" fill="white"/>
<path d="M258.896 44.2105C258.562 44.2105 258.291 43.938 258.291 43.6018C258.291 43.2657 258.562 42.9932 258.896 42.9932C259.231 42.9932 259.501 43.2657 259.501 43.6018C259.501 43.938 259.231 44.2105 258.896 44.2105Z" fill="white"/>
<path d="M313.218 83.5246C313.041 83.5246 312.897 83.3803 312.897 83.2024C312.897 83.0244 313.041 82.8801 313.218 82.8801C313.395 82.8801 313.538 83.0244 313.538 83.2024C313.538 83.3803 313.395 83.5246 313.218 83.5246Z" fill="white"/>
<path d="M268.722 92.2561L268.375 92.9457L267.689 93.2944L268.375 93.6431L268.722 94.3327L269.068 93.6431L269.754 93.2944L269.068 92.9457L268.722 92.2561Z" fill="white"/>
<path d="M268.722 92.2561L268.375 92.9457L267.689 93.2944L268.375 93.6431L268.722 94.3327L269.068 93.6431L269.754 93.2944L269.068 92.9457L268.722 92.2561Z" fill="white"/>
<path d="M322.616 58.7449L322.269 59.4344L321.583 59.7831L322.269 60.1319L322.616 60.8214L322.962 60.1319L323.648 59.7831L322.962 59.4344L322.616 58.7449Z" fill="white"/>
<path d="M254.482 49.7251L254.136 50.4147L253.45 50.7634L254.136 51.1121L254.482 51.8016L254.829 51.1121L255.515 50.7634L254.829 50.4147L254.482 49.7251Z" fill="white"/>
<path d="M295.775 28.0266L295.213 29.1442L294.102 29.7093L295.213 30.2745L295.775 31.3921L296.337 30.2745L297.448 29.7093L296.337 29.1442L295.775 28.0266Z" fill="white"/>
<path d="M291.681 62.1836C290.952 63.2603 288.552 65.191 284.769 65.191C281.773 65.191 279.585 63.4088 279.008 62.1836" stroke="#332C43" stroke-width="0.939271" stroke-linecap="round"/>
<path d="M298.089 62.6117C296.241 62.6117 294.743 61.105 294.743 59.2463C294.743 57.3876 296.241 55.8809 298.089 55.8809C299.937 55.8809 301.435 57.3876 301.435 59.2463C301.435 61.105 299.937 62.6117 298.089 62.6117Z" fill="#332C43"/>
<path d="M299.656 59.1742C299.185 59.1742 298.802 58.7734 298.802 58.2791C298.802 57.7848 299.185 57.384 299.656 57.384C300.128 57.384 300.511 57.7848 300.511 58.2791C300.511 58.7734 300.128 59.1742 299.656 59.1742Z" fill="#FBFBFB"/>
<path d="M298.41 57.5301C298.272 57.5301 298.16 57.4019 298.16 57.2437C298.16 57.0855 298.272 56.9573 298.41 56.9573C298.547 56.9573 298.659 57.0855 298.659 57.2437C298.659 57.4019 298.547 57.5301 298.41 57.5301Z" fill="#FBFBFB"/>
<path d="M272.6 62.9721C270.752 62.9721 269.254 61.4653 269.254 59.6067C269.254 57.748 270.752 56.2412 272.6 56.2412C274.448 56.2412 275.946 57.748 275.946 59.6067C275.946 61.4653 274.448 62.9721 272.6 62.9721Z" fill="#332C43"/>
<path d="M274.133 59.6764C273.563 59.6764 273.101 59.2116 273.101 58.6381C273.101 58.0647 273.563 57.5999 274.133 57.5999C274.703 57.5999 275.166 58.0647 275.166 58.6381C275.166 59.2116 274.703 59.6764 274.133 59.6764Z" fill="#FBFBFB"/>
<path d="M272.673 57.7437C272.515 57.7437 272.388 57.6155 272.388 57.4573C272.388 57.2991 272.515 57.1709 272.673 57.1709C272.83 57.1709 272.958 57.2991 272.958 57.4573C272.958 57.6155 272.83 57.7437 272.673 57.7437Z" fill="#FBFBFB"/>
</g>
</g>
<path d="M255.139 109.897C256.133 109.04 257.397 104.726 258.509 103.004C259.621 101.281 264.708 102.601 265.023 103.316C265.337 104.032 263.617 108.209 262.796 111.125" stroke="#312C42" stroke-width="0.529997" stroke-linecap="round"/>
<path d="M266.126 110.426C265.461 108.92 265.109 103.23 264.157 102.533C263.206 101.837 258.938 102.889 258.297 103.215C257.656 103.542 258.649 107.052 258.767 109.715" stroke="#312C42" stroke-width="0.529997" stroke-linecap="round"/>
<path d="M268.095 111.129C262.978 110.27 253.148 108.004 252.044 108.535C250.941 109.066 250.091 115.201 248.877 117.758C247.663 120.315 245.59 125.641 245.71 126.98C245.77 127.639 250.42 128.235 255.234 128.706C258.818 129.058 265.549 130.424 267.152 130.766C267.294 127.805 267.434 122.525 267.506 121.022C267.645 118.129 268.033 112.413 268.033 112.413L268.095 111.129Z" fill="#78BFC7"/>
<path d="M267.152 130.766C268.414 130.458 269.931 131.068 270.383 129.978C270.621 129.403 269.624 123.105 269.845 120.32C270.066 117.535 270.038 112.509 270.038 112.509L268.033 112.413C268.033 112.413 267.645 118.129 267.506 121.022C267.434 122.525 267.294 127.805 267.152 130.766Z" fill="#C3E2E5"/>
<path d="M270.017 111.44C269.824 111.085 268.549 111.009 268.095 111.129L268.033 112.413L270.038 112.509C270.038 112.509 270.21 111.794 270.017 111.44Z" fill="#ACDCE2"/>
<path d="M267.152 130.766C268.414 130.458 269.931 131.068 270.383 129.978C270.621 129.403 269.624 123.105 269.845 120.32C270.066 117.535 270.038 112.509 270.038 112.509M267.152 130.766C265.549 130.424 258.818 129.058 255.234 128.706C250.42 128.235 245.77 127.639 245.71 126.98C245.59 125.641 247.663 120.315 248.877 117.758C250.091 115.201 250.941 109.066 252.044 108.535C253.148 108.004 262.978 110.27 268.095 111.129M267.152 130.766C267.294 127.805 267.434 122.525 267.506 121.022C267.645 118.129 268.033 112.413 268.033 112.413M268.095 111.129C268.549 111.009 269.824 111.085 270.017 111.44C270.21 111.794 270.038 112.509 270.038 112.509M268.095 111.129C268.071 111.63 268.033 112.413 268.033 112.413M268.095 111.129L268.033 112.413M268.033 112.413L270.038 112.509" stroke="#312C42" stroke-width="0.529997" stroke-linecap="round"/>
<path d="M253.865 108.82C254.499 108.888 255.039 109.003 255.672 109.074C255.969 109.108 256.275 109.197 256.572 109.23C256.83 109.259 258.113 109.507 258.113 109.507C258.371 109.535 258.71 109.624 258.924 109.672C258.924 109.672 258.994 109.676 259.156 109.714C259.374 109.739 259.374 109.739 259.597 109.765C259.975 109.839 261.02 110.071 261.02 110.071L261.603 110.174C262.162 110.283 262.508 110.369 263.106 110.472C263.21 110.49 263.857 110.631 264.299 110.713C266.551 111.134 266.625 111.132 267.794 111.376C267.727 111.712 267.765 113.036 267.703 113.265C267.703 113.265 267.711 113.128 267.681 113.721C267.672 113.92 267.608 114.342 267.599 114.545C267.578 114.99 267.559 115.409 267.536 115.854C267.525 116.084 267.513 116.333 267.502 116.568C267.278 121.142 267.069 125.959 266.903 130.421C266.699 130.413 264.882 129.994 264.575 129.941C264.404 129.934 264.318 129.881 264.144 129.874C263.61 129.839 263.177 129.798 262.651 129.699C262.547 129.681 262.444 129.662 262.336 129.642C262.085 129.597 261.833 129.55 261.582 129.503C261.584 129.455 261.586 129.407 261.589 129.358C261.828 129.37 262.066 129.381 262.312 129.393C262.313 129.301 262.313 129.209 262.314 129.114C262.348 127.773 262.569 126.479 262.802 125.162C262.869 124.782 262.934 124.401 263 124.021C263.739 119.748 263.739 119.748 264.252 117.783C264.578 116.486 264.786 115.177 264.944 113.85C264.788 113.817 264.788 113.817 264.629 113.784C263.567 113.559 262.516 113.305 261.465 113.03C261.319 112.992 261.172 112.954 261.021 112.915C258.892 112.361 258.892 112.361 258.274 112.07C257.834 111.876 256.92 111.563 256.47 111.355C256.47 111.355 255.552 110.907 255.463 110.789C255.374 110.672 253.73 109.204 253.865 108.82Z" fill="#59A5AB"/>
<ellipse cx="257.54" cy="124.504" rx="1.07013" ry="1.00286" transform="rotate(2.74744 257.54 124.504)" fill="white" fill-opacity="0.73"/>
<ellipse cx="259.008" cy="116.272" rx="0.784653" ry="0.735328" transform="rotate(2.74744 259.008 116.272)" fill="white" fill-opacity="0.73"/>
<ellipse cx="263.953" cy="126.217" rx="0.427942" ry="0.401041" transform="rotate(2.74744 263.953 126.217)" fill="white" fill-opacity="0.73"/>
<ellipse cx="260.719" cy="121.28" rx="0.427942" ry="0.401041" transform="rotate(2.74744 260.719 121.28)" fill="white" fill-opacity="0.73"/>
<ellipse cx="251.132" cy="124.196" rx="0.427942" ry="0.401041" transform="rotate(2.74744 251.132 124.196)" fill="white" fill-opacity="0.73"/>
<ellipse cx="250.033" cy="120.566" rx="0.641914" ry="0.601561" transform="rotate(2.74744 250.033 120.566)" fill="white" fill-opacity="0.73"/>
<ellipse cx="253.201" cy="118.879" rx="0.32496" ry="0.304532" transform="rotate(2.74744 253.201 118.879)" fill="white" fill-opacity="0.73"/>
<ellipse cx="255.829" cy="114.274" rx="0.496275" ry="0.465078" transform="rotate(2.74744 255.829 114.274)" fill="white" fill-opacity="0.73"/>
<ellipse cx="266.253" cy="114.757" rx="0.279129" ry="0.261582" transform="rotate(2.74744 266.253 114.757)" fill="white" fill-opacity="0.73"/>
<ellipse cx="260.683" cy="113.119" rx="0.279129" ry="0.261582" transform="rotate(2.74744 260.683 113.119)" fill="white" fill-opacity="0.73"/>
<ellipse cx="254.626" cy="122.346" rx="0.201685" ry="0.189007" transform="rotate(2.74744 254.626 122.346)" fill="white" fill-opacity="0.73"/>
<path d="M159.63 110.559C159.63 110.559 155.885 110.41 155.939 110.937C155.993 111.465 156.101 112.519 156.155 113.046C156.662 112.994 157.079 113.017 157.474 113.039C158.204 113.079 158.855 113.115 159.846 112.668L159.63 110.559Z" fill="#FDFDFC"/>
<path d="M161.739 131.121C161.739 131.121 163.428 132.013 163.956 131.959C164.483 131.905 177.236 126.885 178.813 126.173C179.415 125.901 177.449 121.753 176.158 119.028C175.72 118.103 175.359 117.342 175.204 116.953C174.182 114.402 173.401 111.705 172.872 109.882C172.482 108.538 172.23 107.668 172.121 107.679C171.593 107.733 167.957 108.639 167.957 108.639L159.63 110.559L159.846 112.668L161.739 131.121Z" fill="#FD7264"/>
<path fill-rule="evenodd" clip-rule="evenodd" d="M167.957 108.639C167.957 108.639 162.853 109.163 160.276 109.234C157.41 109.313 154.463 109.548 154.249 110.045C154.044 110.522 154.183 114.492 154.032 118.742C153.83 124.43 153.397 130.683 153.668 130.35C154.141 129.769 157.94 130.445 157.94 130.445L156.155 113.046C156.101 112.519 155.993 111.465 155.939 110.937C155.885 110.41 159.63 110.559 159.63 110.559L167.957 108.639Z" fill="#FDFDFD"/>
<path d="M157.94 130.445C157.94 130.445 157.993 130.972 158.048 131.499C158.102 132.027 161.739 131.121 161.739 131.121L159.846 112.668C158.855 113.115 158.204 113.079 157.474 113.039C157.079 113.017 156.662 112.994 156.155 113.046L157.94 130.445Z" fill="#C55050"/>
<path d="M167.957 108.639C167.957 108.639 171.593 107.733 172.121 107.679C172.23 107.668 172.482 108.538 172.872 109.882C173.401 111.705 174.182 114.402 175.204 116.953C175.359 117.342 175.72 118.103 176.158 119.028C177.449 121.753 179.415 125.901 178.813 126.173C177.236 126.885 164.483 131.905 163.956 131.959C163.428 132.013 161.739 131.121 161.739 131.121M167.957 108.639L159.63 110.559M167.957 108.639C167.957 108.639 162.853 109.163 160.276 109.234C157.41 109.313 154.463 109.548 154.249 110.045C154.044 110.522 154.183 114.492 154.032 118.742C153.83 124.43 153.397 130.683 153.668 130.35C154.141 129.769 157.94 130.445 157.94 130.445M157.94 130.445C157.94 130.445 157.993 130.972 158.048 131.499C158.102 132.027 161.739 131.121 161.739 131.121M157.94 130.445C157.94 130.445 156.852 119.841 156.155 113.046M157.94 130.445L156.155 113.046M161.739 131.121L159.846 112.668M159.63 110.559C159.63 110.559 155.885 110.41 155.939 110.937C155.993 111.465 156.101 112.519 156.155 113.046M159.63 110.559L159.846 112.668M156.155 113.046C156.662 112.994 157.079 113.017 157.474 113.039C158.204 113.079 158.855 113.115 159.846 112.668" stroke="#332C43" stroke-width="0.529997" stroke-linecap="round"/>
<path d="M156.755 121.641L155.617 129.872L157.655 130.115L156.755 121.641Z" fill="#DBDBDB"/>
<ellipse cx="164.981" cy="128.731" rx="0.366888" ry="0.338685" transform="rotate(-5.85606 164.981 128.731)" fill="#D4C3C3" fill-opacity="0.37"/>
<ellipse cx="162.303" cy="114.911" rx="0.274395" ry="0.253303" transform="rotate(-5.85606 162.303 114.911)" fill="#D4C3C3" fill-opacity="0.37"/>
<ellipse cx="171.852" cy="115.638" rx="0.481102" ry="0.44412" transform="rotate(-5.85606 171.852 115.638)" fill="#D4C3C3" fill-opacity="0.37"/>
<ellipse cx="173.154" cy="123.637" rx="0.690825" ry="0.677242" transform="rotate(-5.85606 173.154 123.637)" fill="#DFDFDF" fill-opacity="0.77"/>
<ellipse cx="170.564" cy="121.362" rx="0.555431" ry="0.54451" transform="rotate(-5.85606 170.564 121.362)" fill="#D4C3C3" fill-opacity="0.37"/>
<path d="M159.927 110.771C159.927 110.771 171.419 108.005 171.994 107.946C172.268 107.918 172.79 110.377 173.306 112.172C173.87 114.136 174.416 115.454 174.34 115.526C174.195 115.663 173.695 115.17 172.974 114.629C172.254 114.088 171.841 114.597 171.568 114.418C171.295 114.238 171.128 113.83 170.711 113.71C169.912 113.481 169.756 115.062 168.942 114.895C168.317 114.766 168.404 113.888 167.783 113.741C167.04 113.565 166.939 114.535 166.05 114.434C165.16 114.333 165.417 113.59 164.777 113.393C164.086 113.181 163.608 114.102 162.965 113.772C162.41 113.487 162.747 112.62 162.167 112.388C161.57 112.15 161.214 113.088 160.6 112.896C160.058 112.727 159.927 110.771 159.927 110.771Z" fill="#FB8B7F"/>
<ellipse cx="167.712" cy="111.989" rx="0.274395" ry="0.253303" transform="rotate(-5.85606 167.712 111.989)" fill="white" fill-opacity="0.37"/>
<path d="M197.509 124.382C198.343 124.636 198.343 124.636 198.669 124.962C198.615 125.319 198.547 125.661 198.469 126.013C197.883 129.095 198.178 132.321 198.669 135.396C198.827 135.389 198.986 135.381 199.149 135.374C199.683 135.396 199.683 135.396 200.109 135.759C200.419 136.202 200.554 136.594 200.511 137.136C200.28 137.784 199.66 138.087 199.103 138.44C198.982 138.517 198.982 138.517 198.858 138.597C198.387 138.899 197.912 139.195 197.435 139.488C196.971 139.772 196.511 140.063 196.053 140.358C195.87 140.476 195.87 140.476 195.682 140.596C195.444 140.749 195.206 140.903 194.969 141.058C193.892 141.747 192.997 142.043 191.712 141.918C190.765 141.661 190.23 141.11 189.684 140.324C189.364 139.749 189.251 139.289 189.24 138.63C189.435 138.02 189.712 137.727 190.263 137.425C190.889 137.247 191.523 137.151 192.165 137.054C193.469 136.849 194.674 136.569 195.915 136.121C196.466 135.942 196.921 135.831 197.509 135.831C197.48 135.703 197.45 135.575 197.419 135.443C197.38 135.269 197.341 135.095 197.301 134.916C197.262 134.746 197.224 134.577 197.184 134.402C196.898 132.949 196.898 131.469 196.895 129.994C196.893 129.657 196.889 129.321 196.884 128.984C196.874 127.463 197.016 126.011 197.364 124.527C197.412 124.479 197.46 124.432 197.509 124.382Z" fill="#353046"/>
<path d="M227.706 124.549C228.235 126.315 228.347 128.034 228.349 129.865C228.35 129.972 228.351 130.078 228.352 130.188C228.36 131.573 228.234 132.863 227.944 134.217C227.833 134.707 227.833 134.707 227.851 135.273C229.676 136.36 231.548 137.23 233.541 137.966C235.637 138.747 235.637 138.747 236.257 139.62C236.388 140.246 236.314 140.52 236.03 141.088C235.345 141.896 234.573 142.403 233.51 142.561C232.096 142.657 230.816 141.943 229.757 141.063C229.309 140.655 228.883 140.229 228.46 139.795C228.07 139.404 227.658 139.046 227.24 138.686C226.895 138.385 226.572 138.069 226.257 137.736C226.147 137.62 226.036 137.503 225.922 137.383C225.61 136.91 225.577 136.7 225.678 136.142C225.794 135.992 225.91 135.842 226.029 135.687C226.461 135.101 226.565 134.562 226.656 133.851C226.681 133.677 226.681 133.677 226.707 133.499C226.753 133.173 226.795 132.846 226.837 132.519C226.856 132.385 226.875 132.252 226.895 132.114C227.192 129.759 226.959 127.31 226.547 124.983C227.38 124.549 227.38 124.549 227.706 124.549Z" fill="#353045"/>
<path d="M212.72 46.5303C235.557 46.5305 254.06 64.8077 254.06 87.3398C254.06 109.872 235.557 128.149 212.72 128.149C189.882 128.149 171.38 109.872 171.38 87.3398C171.38 64.8076 189.882 46.5303 212.72 46.5303Z" fill="#FCAD20"/>
<path d="M212.72 46.5303C235.557 46.5305 254.06 64.8077 254.06 87.3398C254.06 109.872 235.557 128.149 212.72 128.149C189.882 128.149 171.38 109.872 171.38 87.3398C171.38 64.8076 189.882 46.5303 212.72 46.5303Z" stroke="black" stroke-width="1.05999"/>
<path d="M212.72 46.5303C235.557 46.5305 254.06 64.8077 254.06 87.3398C254.06 109.872 235.557 128.149 212.72 128.149C189.882 128.149 171.38 109.872 171.38 87.3398C171.38 64.8076 189.882 46.5303 212.72 46.5303Z" stroke="white" stroke-opacity="0.2" stroke-width="1.05999"/>
<path d="M250.703 79.9194C250.703 94.3636 238.125 107.26 222.024 111.903C198.878 118.577 174.224 99.0063 172.713 89.7208C172.211 91.2684 172.921 95.9112 173.217 96.9429C178.249 114.482 193.236 127.379 212.966 127.379C235.608 126.347 246.507 113.117 250.703 100.22C251.207 98.6726 252.716 88.1732 250.703 79.9194Z" fill="#FF9916"/>
<path d="M246.31 83.3479C246.829 83.8588 247.141 84.2916 247.27 85.0145C247.008 86.48 246.08 87.4307 244.899 88.2668C242.279 89.9167 238.92 90.8763 235.832 90.1994C235.049 89.9063 234.276 89.4631 233.828 88.7344C233.538 88.0157 233.55 87.1923 233.845 86.4779C235.35 84.0599 237.873 83.0649 240.487 82.3697C242.433 81.9192 244.68 82.1039 246.31 83.3479Z" fill="#E85E13"/>
<path d="M193.895 86.2082C191.26 86.2082 189.125 84.0603 189.125 81.4108C189.125 78.7612 191.26 76.6133 193.895 76.6133C196.529 76.6133 198.665 78.7612 198.665 81.4108C198.665 84.0603 196.529 86.2082 193.895 86.2082Z" fill="#332C43"/>
<path d="M196.132 81.3072C195.46 81.3072 194.914 80.7361 194.914 80.0315C194.914 79.327 195.46 78.7559 196.132 78.7559C196.804 78.7559 197.35 79.327 197.35 80.0315C197.35 80.7361 196.804 81.3072 196.132 81.3072Z" fill="#FBFBFB"/>
<path d="M194.353 78.9641C194.157 78.9641 193.998 78.7814 193.998 78.5559C193.998 78.3305 194.157 78.1477 194.353 78.1477C194.549 78.1477 194.708 78.3305 194.708 78.5559C194.708 78.7814 194.549 78.9641 194.353 78.9641Z" fill="#FBFBFB"/>
<path d="M229.938 86.2082C227.303 86.2082 225.168 84.0603 225.168 81.4108C225.168 78.7612 227.303 76.6133 229.938 76.6133C232.572 76.6133 234.708 78.7612 234.708 81.4108C234.708 84.0603 232.572 86.2082 229.938 86.2082Z" fill="#332C43"/>
<path d="M232.173 81.3072C231.501 81.3072 230.956 80.7361 230.956 80.0315C230.956 79.327 231.501 78.7559 232.173 78.7559C232.846 78.7559 233.391 79.327 233.391 80.0315C233.391 80.7361 232.846 81.3072 232.173 81.3072Z" fill="#FBFBFB"/>
<path d="M230.394 78.9641C230.198 78.9641 230.039 78.7814 230.039 78.5559C230.039 78.3305 230.198 78.1477 230.394 78.1477C230.591 78.1477 230.75 78.3305 230.75 78.5559C230.75 78.7814 230.591 78.9641 230.394 78.9641Z" fill="#FBFBFB"/>
<path d="M182.319 82.6959C182.445 82.6967 182.571 82.6975 182.7 82.6984C185.17 82.7652 187.557 83.7604 189.342 85.4754C189.972 86.1714 190.4 86.8411 190.452 87.7953C190.402 88.5949 190.029 89.0591 189.465 89.6068C188.541 90.2156 187.677 90.3819 186.594 90.3676C186.474 90.3663 186.354 90.365 186.23 90.3636C183.643 90.2921 181.087 89.2187 179.266 87.3684C178.68 86.6909 178.408 86.0823 178.27 85.2048C178.433 84.2898 179.06 83.7236 179.792 83.2031C180.657 82.8169 181.375 82.6885 182.319 82.6959Z" fill="#E75E12"/>
<path d="M220.668 86.2798C219.692 87.7978 216.481 90.5198 211.418 90.5198C207.409 90.5198 204.479 88.0072 203.709 86.2798" stroke="#332C43" stroke-width="1.58999" stroke-linecap="round"/>
<path d="M217.61 117.066C230.062 115.934 239.575 108.728 242.775 105.266C240.494 109.001 234.982 115.917 220.195 118.528C208.365 120.617 193.537 117.203 187.986 114.571C201.06 121.789 215.9 122.235 222.977 120.389C245.707 114.46 251.133 100.31 251.207 93.42C252.158 103.501 245.127 116.676 222.952 122.798C197.596 127.829 182.384 112.697 178.473 104.575C188.358 116.752 202.045 118.482 217.61 117.066Z" fill="#FE7800"/>
<path d="M158.128 109.917C158.128 109.917 158.128 105.677 159.188 103.557C160.21 101.512 164.489 102.497 165.019 103.027C165.549 103.557 165.019 108.857 165.019 108.857" stroke="#332C43" stroke-width="0.529997" stroke-linecap="round"/>
<path d="M160.248 109.386C160.248 109.386 158.659 105.146 159.188 103.556C159.717 101.967 164.489 101.966 165.019 102.496C165.549 103.027 167.669 109.386 167.669 109.386" stroke="#332C43" stroke-width="0.529997" stroke-linecap="round"/>
<path d="M170.362 88.4359C167.654 86.7789 163.07 90.1997 163.603 96.4975" stroke="#332C43" stroke-width="1.03177" stroke-linecap="round"/>
<path d="M166.849 101.229C166.852 101.266 167.025 101.601 167.112 101.764L167.636 102.322C167.779 102.805 168.068 103.831 168.074 103.904C168.08 103.978 167.922 104.504 167.842 104.759C167.62 104.87 167.14 105.087 166.999 105.062C166.858 105.037 166.31 104.795 166.054 104.678L165.306 103.628L164.784 103.016L164.537 104.197L164.026 105.353L163.018 106.511L162.456 106.558L161.836 105.889L161.61 105.795L161.324 105.495L160.575 105.373L160.202 105.08L159.975 104.45L159.658 104.291L158.952 104.165L158.729 103.581L158.797 102.323L159.68 100.202L161.027 97.6305L162.714 96.5142L163.977 96.5466L165.837 97.408L166.671 99.1301L166.849 101.229Z" fill="#FF9916"/>
<path d="M161.467 105.593C161.467 105.593 159.826 106.019 159.982 104.275M159.982 104.275C159.842 104.499 159.381 104.574 159.07 104.463C157.748 103.989 159.731 99.1563 160.216 98.3447C160.974 97.0756 162.624 96.3817 164.331 96.6641C166.353 96.9989 167.097 99.2801 166.788 101.053C167.591 102.107 168.814 104.605 167.111 104.886C165.837 105.097 165.049 103.066 164.858 102.508C164.843 102.465 164.782 102.464 164.769 102.506C164.207 104.329 164.01 106.981 162.364 106.419C160.853 105.903 162.425 102.295 162.425 102.295M159.982 104.275C160.034 103.706 160.276 102.907 160.828 101.786" stroke="#332C43" stroke-width="0.515885" stroke-linecap="round"/>
<path d="M255.105 88.71C257.615 89.2228 262.388 90.7124 261.856 97.0102" stroke="#332C43" stroke-width="1.03177" stroke-linecap="round"/>
<path d="M258.606 101.742C258.603 101.779 258.429 102.114 258.343 102.276L257.819 102.835C257.676 103.317 257.387 104.343 257.381 104.417C257.374 104.491 257.532 105.017 257.613 105.271C257.835 105.383 258.315 105.6 258.456 105.574C258.597 105.549 259.145 105.308 259.4 105.191L260.149 104.141L260.67 103.529L260.918 104.709L261.429 105.865L262.437 107.024L262.998 107.071L263.619 106.402L263.845 106.308L264.131 106.007L264.88 105.885L265.252 105.592L265.479 104.962L265.797 104.804L266.502 104.678L266.726 104.094L266.658 102.836L265.775 100.715L265.274 99.3606L264.427 98.1432L262.74 97.0269L261.478 97.0593L259.617 97.9207L258.783 99.6428L258.606 101.742Z" fill="#FF9916"/>
<path d="M263.986 106.106C263.986 106.106 265.627 106.533 265.471 104.788M265.471 104.788C265.611 105.013 266.072 105.088 266.383 104.976C267.705 104.503 265.722 99.6695 265.237 98.8579C264.479 97.5887 262.829 96.8949 261.122 97.1773C259.1 97.5121 258.356 99.7933 258.666 101.566C257.862 102.62 256.639 105.118 258.342 105.4C259.616 105.61 260.404 103.579 260.595 103.021C260.61 102.978 260.671 102.977 260.684 103.02C261.246 104.842 261.443 107.495 263.089 106.932C264.6 106.416 263.028 102.808 263.028 102.808M265.471 104.788C265.419 104.22 265.177 103.42 264.625 102.299" stroke="#332C43" stroke-width="0.515885" stroke-linecap="round"/>
<path d="M211.384 143.49C197.053 143.486 185.435 141.499 185.434 139.053C185.433 136.607 197.05 134.628 211.381 134.632C225.711 134.636 237.329 136.623 237.33 139.069C237.331 141.515 225.714 143.494 211.384 143.49Z" fill="#0C2C7D" fill-opacity="0.11"/>
<g clip-path="url(#clip4_2113_27843)">
<path d="M297.455 159.898C297.451 160.5 297.994 160.991 298.67 160.996C299.345 161.001 299.896 160.517 299.9 159.916C299.904 159.315 299.36 158.823 298.685 158.819C298.01 158.814 297.459 159.297 297.455 159.898Z" fill="white"/>
<path d="M330.438 93.7926L328.186 94.7873L327.037 96.7779L325.916 94.7709L323.679 93.7438L325.931 92.7491L327.08 90.7585L328.201 92.7656L330.438 93.7926Z" fill="white"/>
</g>
</g>
<g clip-path="url(#clip5_2113_27843)">
<path d="M27.7088 49.7955L50.3495 60.9318L50.5537 60.3419L27.7088 49.7955Z" fill="white"/>
<path d="M24.1026 137.163C23.6782 137.163 23.3342 136.776 23.3342 136.3C23.3342 135.823 23.6782 135.437 24.1026 135.437C24.527 135.437 24.8711 135.823 24.8711 136.3C24.8711 136.776 24.527 137.163 24.1026 137.163Z" fill="white"/>
<path d="M43.4114 78.4214C42.8101 78.4214 42.3227 77.8741 42.3227 77.199C42.3227 76.5239 42.8101 75.9766 43.4114 75.9766C44.0126 75.9766 44.5 76.5239 44.5 77.199C44.5 77.8741 44.0126 78.4214 43.4114 78.4214Z" fill="white"/>
<path d="M24.9388 81.3621L24.3151 82.747L23.0817 83.4474L24.3151 84.1478L24.9388 85.5327L25.5625 84.1478L26.7959 83.4474L25.5625 82.747L24.9388 81.3621Z" fill="white"/>
<path d="M65.2865 125.155L64.3188 127.304L62.4051 128.391L64.3188 129.477L65.2865 131.626L66.2543 129.477L68.168 128.391L66.2543 127.304L65.2865 125.155Z" fill="white"/>
</g>
</g>
<defs>
<filter id="filter0_d_2113_27843" x="258.491" y="35.2593" width="57.2454" height="58.8633" filterUnits="userSpaceOnUse" color-interpolation-filters="sRGB">
<feFlood flood-opacity="0" result="BackgroundImageFix"/>
<feColorMatrix in="SourceAlpha" type="matrix" values="0 0 0 0 0 0 0 0 0 0 0 0 0 0 0 0 0 0 127 0" result="hardAlpha"/>
<feOffset dx="0.645749" dy="1.93725"/>
<feComposite in2="hardAlpha" operator="out"/>
<feColorMatrix type="matrix" values="0 0 0 0 0.988235 0 0 0 0 0.870588 0 0 0 0 0.552941 0 0 0 1 0"/>
<feBlend mode="normal" in2="BackgroundImageFix" result="effect1_dropShadow_2113_27843"/>
<feBlend mode="normal" in="SourceGraphic" in2="effect1_dropShadow_2113_27843" result="shape"/>
</filter>
<radialGradient id="paint0_radial_2113_27843" cx="0" cy="0" r="1" gradientUnits="userSpaceOnUse" gradientTransform="translate(213.206 87.9648) rotate(90) scale(51.9584 54.0747)">
<stop offset="0.490385" stop-color="#FFFAEF"/>
<stop offset="1" stop-color="#FDD886" stop-opacity="0.11"/>
</radialGradient>
<linearGradient id="paint1_linear_2113_27843" x1="166.992" y1="115.981" x2="381.591" y2="115.981" gradientUnits="userSpaceOnUse">
<stop stop-color="white"/>
<stop offset="0.841346" stop-color="white" stop-opacity="0.25"/>
<stop offset="0.9999" stop-color="white" stop-opacity="0.08"/>
<stop offset="1" stop-color="white" stop-opacity="0"/>
</linearGradient>
<linearGradient id="paint2_linear_2113_27843" x1="167.181" y1="116.052" x2="368.838" y2="42.6546" gradientUnits="userSpaceOnUse">
<stop stop-color="white"/>
<stop offset="0.841346" stop-color="white" stop-opacity="0.25"/>
<stop offset="0.9999" stop-color="white" stop-opacity="0.08"/>
<stop offset="1" stop-color="white" stop-opacity="0"/>
</linearGradient>
<linearGradient id="paint3_linear_2113_27843" x1="167.212" y1="116.004" x2="331.605" y2="-21.9377" gradientUnits="userSpaceOnUse">
<stop stop-color="white"/>
<stop offset="0.841346" stop-color="white" stop-opacity="0.25"/>
<stop offset="0.9999" stop-color="white" stop-opacity="0.08"/>
<stop offset="1" stop-color="white" stop-opacity="0"/>
</linearGradient>
<linearGradient id="paint4_linear_2113_27843" x1="166.997" y1="116.166" x2="274.297" y2="-69.6815" gradientUnits="userSpaceOnUse">
<stop stop-color="white"/>
<stop offset="0.841346" stop-color="white" stop-opacity="0.25"/>
<stop offset="0.9999" stop-color="white" stop-opacity="0.08"/>
<stop offset="1" stop-color="white" stop-opacity="0"/>
</linearGradient>
<linearGradient id="paint5_linear_2113_27843" x1="166.989" y1="116.146" x2="204.254" y2="-95.192" gradientUnits="userSpaceOnUse">
<stop stop-color="white"/>
<stop offset="0.841346" stop-color="white" stop-opacity="0.25"/>
<stop offset="0.9999" stop-color="white" stop-opacity="0.08"/>
<stop offset="1" stop-color="white" stop-opacity="0"/>
</linearGradient>
<linearGradient id="paint6_linear_2113_27843" x1="167.183" y1="115.734" x2="129.918" y2="-95.6039" gradientUnits="userSpaceOnUse">
<stop stop-color="white"/>
<stop offset="0.841346" stop-color="white" stop-opacity="0.25"/>
<stop offset="0.9999" stop-color="white" stop-opacity="0.08"/>
<stop offset="1" stop-color="white" stop-opacity="0"/>
</linearGradient>
<linearGradient id="paint7_linear_2113_27843" x1="167.615" y1="116.578" x2="60.3153" y2="-69.2698" gradientUnits="userSpaceOnUse">
<stop stop-color="white"/>
<stop offset="0.841346" stop-color="white" stop-opacity="0.25"/>
<stop offset="0.9999" stop-color="white" stop-opacity="0.08"/>
<stop offset="1" stop-color="white" stop-opacity="0"/>
</linearGradient>
<linearGradient id="paint8_linear_2113_27843" x1="167.257" y1="116.004" x2="2.86533" y2="-21.9376" gradientUnits="userSpaceOnUse">
<stop stop-color="white"/>
<stop offset="0.841346" stop-color="white" stop-opacity="0.25"/>
<stop offset="0.9999" stop-color="white" stop-opacity="0.08"/>
<stop offset="1" stop-color="white" stop-opacity="0"/>
</linearGradient>
<linearGradient id="paint9_linear_2113_27843" x1="167.831" y1="116.052" x2="-33.8253" y2="42.6551" gradientUnits="userSpaceOnUse">
<stop stop-color="white"/>
<stop offset="0.841346" stop-color="white" stop-opacity="0.25"/>
<stop offset="0.9999" stop-color="white" stop-opacity="0.08"/>
<stop offset="1" stop-color="white" stop-opacity="0"/>
</linearGradient>
<linearGradient id="paint10_linear_2113_27843" x1="168.229" y1="115.981" x2="-46.3701" y2="115.981" gradientUnits="userSpaceOnUse">
<stop stop-color="white"/>
<stop offset="0.841346" stop-color="white" stop-opacity="0.25"/>
<stop offset="0.9999" stop-color="white" stop-opacity="0.08"/>
<stop offset="1" stop-color="white" stop-opacity="0"/>
</linearGradient>
<linearGradient id="paint11_linear_2113_27843" x1="167.421" y1="115.973" x2="-34.2362" y2="189.37" gradientUnits="userSpaceOnUse">
<stop stop-color="white"/>
<stop offset="0.841346" stop-color="white" stop-opacity="0.25"/>
<stop offset="0.9999" stop-color="white" stop-opacity="0.08"/>
<stop offset="1" stop-color="white" stop-opacity="0"/>
</linearGradient>
<linearGradient id="paint12_linear_2113_27843" x1="167.204" y1="115.672" x2="59.9045" y2="301.52" gradientUnits="userSpaceOnUse">
<stop stop-color="white"/>
<stop offset="0.841346" stop-color="white" stop-opacity="0.25"/>
<stop offset="0.9999" stop-color="white" stop-opacity="0.08"/>
<stop offset="1" stop-color="white" stop-opacity="0"/>
</linearGradient>
<linearGradient id="paint13_linear_2113_27843" x1="167.183" y1="115.7" x2="129.918" y2="327.038" gradientUnits="userSpaceOnUse">
<stop stop-color="white"/>
<stop offset="0.841346" stop-color="white" stop-opacity="0.25"/>
<stop offset="0.9999" stop-color="white" stop-opacity="0.08"/>
<stop offset="1" stop-color="white" stop-opacity="0"/>
</linearGradient>
<linearGradient id="paint14_linear_2113_27843" x1="166.989" y1="115.7" x2="204.254" y2="327.038" gradientUnits="userSpaceOnUse">
<stop stop-color="white"/>
<stop offset="0.841346" stop-color="white" stop-opacity="0.25"/>
<stop offset="0.9999" stop-color="white" stop-opacity="0.08"/>
<stop offset="1" stop-color="white" stop-opacity="0"/>
</linearGradient>
<linearGradient id="paint15_linear_2113_27843" x1="166.997" y1="115.672" x2="274.296" y2="301.52" gradientUnits="userSpaceOnUse">
<stop stop-color="white"/>
<stop offset="0.841346" stop-color="white" stop-opacity="0.25"/>
<stop offset="0.9999" stop-color="white" stop-opacity="0.08"/>
<stop offset="1" stop-color="white" stop-opacity="0"/>
</linearGradient>
<linearGradient id="paint16_linear_2113_27843" x1="166.801" y1="115.636" x2="331.193" y2="253.578" gradientUnits="userSpaceOnUse">
<stop stop-color="white"/>
<stop offset="0.841346" stop-color="white" stop-opacity="0.25"/>
<stop offset="0.9999" stop-color="white" stop-opacity="0.08"/>
<stop offset="1" stop-color="white" stop-opacity="0"/>
</linearGradient>
<linearGradient id="paint17_linear_2113_27843" x1="167.18" y1="115.973" x2="368.837" y2="189.37" gradientUnits="userSpaceOnUse">
<stop stop-color="white"/>
<stop offset="0.841346" stop-color="white" stop-opacity="0.25"/>
<stop offset="0.9999" stop-color="white" stop-opacity="0.08"/>
<stop offset="1" stop-color="white" stop-opacity="0"/>
</linearGradient>
<linearGradient id="paint18_linear_2113_27843" x1="167.258" y1="115.636" x2="2.86614" y2="253.577" gradientUnits="userSpaceOnUse">
<stop stop-color="white"/>
<stop offset="0.841346" stop-color="white" stop-opacity="0.25"/>
<stop offset="0.9999" stop-color="white" stop-opacity="0.08"/>
<stop offset="1" stop-color="white" stop-opacity="0"/>
</linearGradient>
<radialGradient id="paint19_radial_2113_27843" cx="0" cy="0" r="1" gradientUnits="userSpaceOnUse" gradientTransform="translate(286.627 63.5441) rotate(90) scale(37.8075 37.5908)">
<stop offset="0.490385" stop-color="#FFFBF2"/>
<stop offset="1" stop-color="#FDD886" stop-opacity="0.11"/>
</radialGradient>
<clipPath id="clip0_2113_27843">
<rect width="342" height="166" rx="12" fill="white"/>
</clipPath>
<clipPath id="clip1_2113_27843">
<rect x="6" y="6" width="330" height="154" rx="10" fill="white"/>
</clipPath>
<clipPath id="clip2_2113_27843">
<rect width="73" height="69.7006" fill="white" transform="translate(330.848 8.9165) rotate(89.5859)"/>
</clipPath>
<clipPath id="clip3_2113_27843">
<rect width="96.2553" height="101.321" fill="white" transform="matrix(-1 0 0 1 334.755 17)"/>
</clipPath>
<clipPath id="clip4_2113_27843">
<rect width="73" height="142" fill="white" transform="matrix(0.00722759 -0.999974 -0.999974 -0.00722759 331.473 170.024)"/>
</clipPath>
<clipPath id="clip5_2113_27843">
<rect width="73" height="142" fill="white" transform="translate(23 36)"/>
</clipPath>
</defs>
</svg>
