<svg width="342" height="172" viewBox="0 0 342 172" fill="none" xmlns="http://www.w3.org/2000/svg">
<g clip-path="url(#clip0_2113_28181)">
<g opacity="0.13">
<path d="M217.879 77.9104L268.577 99.4616L214.895 111.826L210.065 166.7L181.717 119.467L128.036 131.83L164.197 90.2746L135.85 43.0404L186.547 64.5912L222.71 23.035L217.879 77.9104ZM190.075 79.9059L166.888 70.0492L179.852 91.6524L163.313 110.659L187.865 105.004L200.831 126.607L203.04 101.509L227.592 95.854L204.405 85.9976L206.614 60.8994L190.075 79.9059Z" fill="white"/>
<path d="M251.342 59.465L374.042 111.624L244.118 141.547L232.429 274.359L163.82 160.041L33.8965 189.964L121.419 89.3882L52.8112 -24.9295L175.51 27.2292L263.032 -73.3469L251.342 59.465ZM181.432 45.6668L95.1974 9.00887L143.415 89.353L81.9044 160.039L173.216 139.008L221.434 219.352L229.65 126.011L320.962 104.98L234.728 68.3225L242.943 -25.0192L181.432 45.6668Z" fill="white"/>
</g>
<g clip-path="url(#clip1_2113_28181)">
<mask id="mask0_2113_28181" style="mask-type:luminance" maskUnits="userSpaceOnUse" x="1" y="46" width="162" height="147">
<path d="M1.04346 46.9102H162.354V192.09H1.04346V46.9102Z" fill="white"/>
</mask>
<g mask="url(#mask0_2113_28181)">
<path d="M27.4366 101.127C27.3134 101.763 26.7798 103.561 26.5124 104.55C26.1033 104.564 25.6978 104.623 25.306 104.724L25.2801 104.73L25.465 102.664L26.5124 100.969C26.8611 100.88 27.5032 100.783 27.4366 101.127Z" fill="white"/>
<path d="M26.971 63.4751L40.9176 78.6923L41.3628 78.3835L26.971 63.4751Z" fill="white"/>
<path d="M31.4241 161.328L44.9531 145.835L44.492 145.544L31.4241 161.328Z" fill="white"/>
<path d="M19.6107 131.438C19.2024 131.438 18.8714 131.153 18.8714 130.802C18.8714 130.451 19.2024 130.166 19.6107 130.166C20.0191 130.166 20.3501 130.451 20.3501 130.802C20.3501 131.153 20.0191 131.438 19.6107 131.438Z" fill="white"/>
<path d="M28.0546 82.1608C27.4761 82.1608 27.0072 81.7576 27.0072 81.2601C27.0072 80.7626 27.4761 80.3594 28.0546 80.3594C28.6331 80.3594 29.1021 80.7626 29.1021 81.2601C29.1021 81.7576 28.6331 82.1608 28.0546 82.1608Z" fill="white"/>
<path d="M45.0608 153.263L44.4607 154.284L43.274 154.8L44.4607 155.316L45.0608 156.336L45.661 155.316L46.8477 154.8L45.661 154.284L45.0608 153.263Z" fill="white"/>
<path d="M45.0608 153.263L44.4607 154.284L43.274 154.8L44.4607 155.316L45.0608 156.336L45.661 155.316L46.8477 154.8L45.661 154.284L45.0608 153.263Z" fill="white"/>
<path d="M96.4457 101.873C96.2075 101.873 96.0144 101.683 96.0144 101.449C96.0144 101.215 96.2075 101.025 96.4457 101.025C96.6839 101.025 96.877 101.215 96.877 101.449C96.877 101.683 96.6839 101.873 96.4457 101.873Z" fill="#FBFBFB"/>
</g>
</g>
<mask id="mask1_2113_28181" style="mask-type:luminance" maskUnits="userSpaceOnUse" x="175" y="25" width="169" height="169">
<path d="M175.5 25H343.553V194H175.5V25Z" fill="white"/>
</mask>
<g mask="url(#mask1_2113_28181)">
<path d="M259.526 165.695C223.28 165.695 193.896 137.462 193.896 102.634C193.896 67.8059 223.28 39.5723 259.526 39.5723C295.773 39.5723 325.156 67.8059 325.156 102.634C325.156 137.462 295.773 165.695 259.526 165.695Z" fill="url(#paint0_radial_2113_28181)" fill-opacity="0.8"/>
<path d="M210.487 91.7623C210.363 92.4789 209.825 94.5054 209.555 95.6201C209.142 95.636 208.733 95.7016 208.338 95.8157L208.312 95.8231L208.499 93.4941L209.555 91.5832C209.907 91.4837 210.554 91.3737 210.487 91.7623Z" fill="white"/>
<path d="M330.252 82.0864L308.375 88.0039L308.538 88.5359L330.252 82.0864Z" fill="white"/>
<path d="M297.571 42.075L283.995 59.5885L284.462 59.9147L297.571 42.075Z" fill="white"/>
<path d="M210.021 49.3254L224.088 66.4765L224.538 66.1285L210.021 49.3254Z" fill="white"/>
<path d="M214.514 159.614L228.161 142.152L227.696 141.824L214.514 159.614Z" fill="white"/>
<path d="M303.556 160.172L289.909 142.709L290.374 142.381L303.556 160.172Z" fill="white"/>
<path d="M311.914 70.8607C311.331 70.8607 310.858 70.4062 310.858 69.8455C310.858 69.2848 311.331 68.8303 311.914 68.8303C312.498 68.8303 312.971 69.2848 312.971 69.8455C312.971 70.4062 312.498 70.8607 311.914 70.8607Z" fill="white"/>
<path d="M202.595 125.925C202.183 125.925 201.849 125.604 201.849 125.209C201.849 124.813 202.183 124.492 202.595 124.492C203.006 124.492 203.34 124.813 203.34 125.209C203.34 125.604 203.006 125.925 202.595 125.925Z" fill="white"/>
<path d="M211.11 70.3863C210.527 70.3863 210.054 69.9318 210.054 69.3712C210.054 68.8105 210.527 68.356 211.11 68.356C211.694 68.356 212.167 68.8105 212.167 69.3712C212.167 69.9318 211.694 70.3863 211.11 70.3863Z" fill="white"/>
<path d="M305.95 135.96C305.641 135.96 305.391 135.719 305.391 135.422C305.391 135.126 305.641 134.885 305.95 134.885C306.259 134.885 306.51 135.126 306.51 135.422C306.51 135.719 306.259 135.96 305.95 135.96Z" fill="white"/>
<path d="M228.267 150.524L227.661 151.674L226.464 152.256L227.661 152.837L228.267 153.988L228.872 152.837L230.069 152.256L228.872 151.674L228.267 150.524Z" fill="white"/>
<path d="M228.267 150.524L227.661 151.674L226.464 152.256L227.661 152.837L228.267 153.988L228.872 152.837L230.069 152.256L228.872 151.674L228.267 150.524Z" fill="white"/>
<path d="M322.359 94.6287L321.754 95.7788L320.557 96.3605L321.754 96.9421L322.359 98.0923L322.965 96.9421L324.162 96.3605L322.965 95.7788L322.359 94.6287Z" fill="white"/>
<path d="M203.405 79.584L202.799 80.7341L201.602 81.3158L202.799 81.8974L203.405 83.0476L204.01 81.8974L205.207 81.3158L204.01 80.7341L203.405 79.584Z" fill="white"/>
<path d="M275.497 43.3916L274.516 45.2556L272.576 46.1983L274.516 47.141L275.497 49.005L276.479 47.141L278.418 46.1983L276.479 45.2556L275.497 43.3916Z" fill="white"/>
<path d="M280.098 92.6024C279.858 92.6024 279.663 92.3886 279.663 92.1247C279.663 91.8609 279.858 91.647 280.098 91.647C280.338 91.647 280.533 91.8609 280.533 92.1247C280.533 92.3886 280.338 92.6024 280.098 92.6024Z" fill="#FBFBFB"/>
</g>
<path d="M246.188 135.52C246.943 135.75 246.943 135.75 247.239 136.045C247.19 136.368 247.128 136.679 247.058 136.997C246.527 139.79 246.794 142.713 247.239 145.5C247.382 145.493 247.526 145.486 247.674 145.479C248.158 145.5 248.158 145.5 248.543 145.828C248.824 146.229 248.947 146.584 248.908 147.076C248.699 147.663 248.137 147.938 247.633 148.257C247.523 148.327 247.523 148.327 247.411 148.399C246.983 148.673 246.553 148.941 246.12 149.206C245.7 149.464 245.284 149.728 244.869 149.995C244.702 150.102 244.702 150.102 244.533 150.211C244.317 150.35 244.101 150.489 243.886 150.629C242.91 151.254 242.1 151.522 240.936 151.408C240.077 151.176 239.593 150.677 239.097 149.964C238.808 149.443 238.705 149.026 238.695 148.429C238.873 147.876 239.123 147.611 239.623 147.338C240.19 147.177 240.764 147.089 241.346 147.001C242.527 146.816 243.619 146.562 244.744 146.156C245.243 145.994 245.655 145.893 246.188 145.893C246.161 145.777 246.134 145.662 246.107 145.542C246.071 145.384 246.036 145.227 245.999 145.065C245.964 144.911 245.929 144.757 245.893 144.598C245.634 143.282 245.635 141.941 245.631 140.605C245.63 140.3 245.626 139.995 245.622 139.69C245.612 138.311 245.741 136.996 246.057 135.651C246.1 135.608 246.143 135.565 246.188 135.52Z" fill="#353046"/>
<path d="M273.549 135.671C274.028 137.271 274.13 138.829 274.132 140.488C274.133 140.585 274.133 140.681 274.134 140.781C274.141 142.035 274.027 143.204 273.765 144.432C273.664 144.875 273.664 144.875 273.68 145.388C275.334 146.373 277.03 147.161 278.835 147.828C280.735 148.536 280.735 148.536 281.296 149.327C281.416 149.894 281.348 150.142 281.091 150.657C280.47 151.389 279.771 151.849 278.808 151.991C277.526 152.079 276.367 151.431 275.407 150.634C275.001 150.265 274.615 149.878 274.232 149.485C273.879 149.131 273.505 148.807 273.127 148.481C272.814 148.208 272.522 147.921 272.236 147.62C272.136 147.514 272.036 147.409 271.932 147.3C271.65 146.871 271.62 146.681 271.711 146.176C271.816 146.039 271.921 145.903 272.029 145.763C272.421 145.232 272.515 144.744 272.597 144.099C272.62 143.942 272.62 143.942 272.643 143.781C272.685 143.485 272.724 143.189 272.761 142.893C272.779 142.772 272.796 142.651 272.814 142.526C273.083 140.392 272.872 138.173 272.499 136.065C273.254 135.671 273.254 135.671 273.549 135.671Z" fill="#353045"/>
<path d="M259.97 64.9805C280.662 64.9807 297.426 81.5413 297.426 101.957C297.426 122.373 280.662 138.933 259.97 138.934C239.277 138.934 222.513 122.373 222.513 101.957C222.513 81.5411 239.277 64.9805 259.97 64.9805Z" fill="#FCAD20"/>
<path d="M259.97 64.9805C280.662 64.9807 297.426 81.5413 297.426 101.957C297.426 122.373 280.662 138.933 259.97 138.934C239.277 138.934 222.513 122.373 222.513 101.957C222.513 81.5411 239.277 64.9805 259.97 64.9805Z" stroke="black" stroke-width="0.960432"/>
<path d="M259.97 64.9805C280.662 64.9807 297.426 81.5413 297.426 101.957C297.426 122.373 280.662 138.933 259.97 138.934C239.277 138.934 222.513 122.373 222.513 101.957C222.513 81.5411 239.277 64.9805 259.97 64.9805Z" stroke="white" stroke-opacity="0.2" stroke-width="0.960432"/>
<path d="M294.384 95.2336C294.384 108.321 282.988 120.006 268.399 124.213C247.428 130.26 225.089 112.528 223.72 104.114C223.265 105.517 223.909 109.723 224.177 110.658C228.736 126.55 242.315 138.235 260.192 138.235C280.707 137.3 290.583 125.313 294.385 113.628C294.841 112.225 296.209 102.712 294.384 95.2336Z" fill="#FF9916"/>
<path d="M290.403 98.3398C290.873 98.8027 291.156 99.1948 291.272 99.8499C291.035 101.178 290.195 102.039 289.125 102.797C286.751 104.292 283.707 105.161 280.909 104.548C280.2 104.282 279.499 103.881 279.094 103.22C278.831 102.569 278.842 101.823 279.109 101.176C280.472 98.9849 282.758 98.0833 285.127 97.4535C286.89 97.0452 288.926 97.2126 290.403 98.3398Z" fill="#E85E13"/>
<path d="M242.912 100.932C240.525 100.932 238.59 98.9856 238.59 96.5849C238.59 94.1842 240.525 92.238 242.912 92.238C245.299 92.238 247.234 94.1842 247.234 96.5849C247.234 98.9856 245.299 100.932 242.912 100.932Z" fill="#332C43"/>
<path d="M244.939 96.4907C244.329 96.4907 243.835 95.9732 243.835 95.3348C243.835 94.6964 244.329 94.179 244.939 94.179C245.548 94.179 246.042 94.6964 246.042 95.3348C246.042 95.9732 245.548 96.4907 244.939 96.4907Z" fill="#FBFBFB"/>
<path d="M243.327 94.3682C243.149 94.3682 243.005 94.2026 243.005 93.9983C243.005 93.794 243.149 93.6284 243.327 93.6284C243.504 93.6284 243.648 93.794 243.648 93.9983C243.648 94.2026 243.504 94.3682 243.327 94.3682Z" fill="#FBFBFB"/>
<path d="M275.57 100.932C273.183 100.932 271.248 98.9856 271.248 96.5849C271.248 94.1842 273.183 92.238 275.57 92.238C277.957 92.238 279.892 94.1842 279.892 96.5849C279.892 98.9856 277.957 100.932 275.57 100.932Z" fill="#332C43"/>
<path d="M277.596 96.4907C276.987 96.4907 276.493 95.9732 276.493 95.3348C276.493 94.6964 276.987 94.179 277.596 94.179C278.205 94.179 278.699 94.6964 278.699 95.3348C278.699 95.9732 278.205 96.4907 277.596 96.4907Z" fill="#FBFBFB"/>
<path d="M275.984 94.3682C275.806 94.3682 275.662 94.2026 275.662 93.9983C275.662 93.794 275.806 93.6284 275.984 93.6284C276.162 93.6284 276.306 93.794 276.306 93.9983C276.306 94.2026 276.162 94.3682 275.984 94.3682Z" fill="#FBFBFB"/>
<path d="M232.423 97.749C232.537 97.7498 232.652 97.7505 232.769 97.7513C235.006 97.8119 237.17 98.7136 238.787 100.268C239.358 100.898 239.745 101.505 239.793 102.369C239.748 103.094 239.409 103.515 238.899 104.011C238.061 104.563 237.278 104.713 236.297 104.7C236.188 104.699 236.079 104.698 235.967 104.697C233.623 104.632 231.308 103.659 229.658 101.983C229.126 101.369 228.88 100.817 228.755 100.022C228.902 99.1932 229.471 98.6803 230.134 98.2086C230.917 97.8588 231.569 97.7424 232.423 97.749Z" fill="#E75E12"/>
<path d="M267.171 100.996C266.286 102.372 263.377 104.838 258.789 104.838C255.157 104.838 252.502 102.561 251.804 100.996" stroke="#332C43" stroke-width="1.44065" stroke-linecap="round"/>
<path d="M264.399 128.891C275.682 127.865 284.301 121.336 287.2 118.199C285.134 121.584 280.14 127.85 266.742 130.216C256.023 132.109 242.587 129.016 237.558 126.631C249.404 133.171 262.85 133.575 269.262 131.902C289.857 126.529 294.773 113.708 294.84 107.466C295.703 116.6 289.332 128.538 269.239 134.084C246.265 138.643 232.482 124.932 228.939 117.573C237.895 128.606 250.296 130.174 264.399 128.891Z" fill="#FE7800"/>
<path d="M221.588 102.95C219.134 101.449 214.981 104.549 215.464 110.255" stroke="#332C43" stroke-width="0.934859" stroke-linecap="round"/>
<path d="M219.667 112.198C219.687 112.225 219.977 112.406 220.12 112.492L220.786 112.685C221.121 112.994 221.821 113.66 221.86 113.714C221.899 113.769 222.02 114.252 222.075 114.487C221.953 114.677 221.68 115.068 221.559 115.113C221.437 115.159 220.899 115.225 220.645 115.252L219.576 114.781L218.887 114.546L219.24 115.58L219.378 116.717L219.129 118.085L218.714 118.382L217.92 118.149L217.701 118.18L217.339 118.078L216.699 118.33L216.273 118.274L215.805 117.888L215.484 117.912L214.876 118.141L214.432 117.789L213.902 116.778L213.608 114.717L213.305 112.814L214.264 110.44L215.262 109.881L217.11 109.69L218.557 110.645L219.667 112.198Z" fill="#FF9916"/>
<path d="M217.498 118.088C217.498 118.088 216.417 119.18 215.731 117.749M215.731 117.749C215.726 117.989 215.401 118.261 215.107 118.318C213.859 118.561 213.165 113.879 213.167 113.022C213.17 111.683 214.134 110.378 215.594 109.808C217.324 109.132 218.96 110.564 219.539 112.089C220.653 112.538 222.762 113.917 221.566 114.924C220.671 115.679 219.117 114.461 218.71 114.115C218.679 114.089 218.631 114.116 218.64 114.155C219.046 115.835 220.121 117.992 218.579 118.316C217.163 118.614 216.716 115.076 216.716 115.076M215.731 117.749C215.507 117.282 215.326 116.547 215.237 115.419" stroke="#332C43" stroke-width="0.467429" stroke-linecap="round"/>
<path d="M297.906 102.917C300.047 103.813 304.029 105.974 302.452 111.479" stroke="#332C43" stroke-width="0.934859" stroke-linecap="round"/>
<path d="M298.735 115.116C298.726 115.148 298.513 115.415 298.408 115.545L297.844 115.949C297.632 116.353 297.196 117.215 297.177 117.279C297.159 117.344 297.207 117.839 297.234 118.079C297.412 118.217 297.8 118.494 297.93 118.497C298.06 118.499 298.589 118.381 298.837 118.321L299.686 117.519L300.257 117.067L300.27 118.159L300.522 119.276L301.215 120.483L301.706 120.623L302.375 120.137L302.592 120.093L302.899 119.876L303.586 119.899L303.969 119.704L304.281 119.183L304.591 119.098L305.24 119.11L305.541 118.63L305.701 117.5L305.288 115.459L305.08 114.168L304.541 112.937L303.237 111.649L302.109 111.457L300.304 111.896L299.261 113.281L298.735 115.116Z" fill="#FF9916"/>
<path d="M302.753 119.939C302.753 119.939 304.137 120.605 304.304 119.027M304.304 119.027C304.389 119.251 304.786 119.399 305.082 119.354C306.34 119.165 305.425 114.521 305.136 113.715C304.685 112.454 303.339 111.548 301.772 111.499C299.916 111.443 298.855 113.34 298.819 114.97C297.92 115.767 296.395 117.773 297.859 118.321C298.956 118.732 300.012 117.064 300.28 116.602C300.3 116.566 300.354 116.576 300.359 116.616C300.539 118.334 300.249 120.727 301.811 120.516C303.244 120.322 302.48 116.839 302.48 116.839M304.304 119.027C304.358 118.513 304.283 117.76 303.988 116.667" stroke="#332C43" stroke-width="0.467429" stroke-linecap="round"/>
<path d="M259.49 157.645C242.08 157.64 227.965 154.952 227.964 151.641C227.963 148.33 242.076 145.65 259.486 145.656C276.896 145.661 291.011 148.349 291.012 151.66C291.013 154.97 276.9 157.65 259.49 157.645Z" fill="#0C7D19" fill-opacity="0.11"/>
<path d="M259.185 35.0049H259.192L259.561 35.0166C263.343 35.1773 266.386 36.5246 269.166 39.1543L269.178 39.165L269.188 39.1758C270.339 40.4057 270.97 41.0761 271.295 41.583C271.471 41.8579 271.572 42.1057 271.622 42.3809C271.631 42.4321 271.637 42.484 271.643 42.5361C272.058 42.3795 272.37 42.1284 272.831 41.7129L272.843 41.7031L272.854 41.6943C274.846 40.1013 277.217 39.5051 279.663 39.5156L280.153 39.5254L280.177 39.5264L280.2 39.5293C283.317 39.9399 285.845 41.1543 287.949 43.4434L288.364 43.915L288.377 43.9297L288.388 43.9453C290.395 46.7443 290.964 49.5075 290.556 52.8604L290.554 52.8799L290.55 52.9004C289.953 55.8068 288.209 57.9632 285.926 59.6572L285.91 59.6689L285.894 59.6797C282.868 61.5803 279.164 61.9182 275.766 61.2197L275.733 61.2129L275.702 61.2021C274.166 60.6676 272.788 59.8517 271.469 58.999C271.401 59.0607 271.333 59.1237 271.264 59.1865L271.256 59.1934C266.9 62.979 262.04 63.8054 256.521 63.4277L256.505 63.4268L256.488 63.4248C254.59 63.167 252.989 62.5412 251.342 61.6416V61.6406C250.874 61.3943 250.398 61.1886 249.898 60.9902C249.819 61.0807 249.739 61.1721 249.658 61.2646L249.647 61.2764L249.636 61.2881C247.616 63.3073 245.268 64.1693 242.517 64.2832L242.501 64.2842L242.485 64.2832C239.75 64.2243 237.472 63.1742 235.547 61.2578L235.528 61.2393L235.513 61.2197C233.273 58.4802 232.818 55.7022 233.058 52.3271L233.059 52.3115L233.061 52.2969C233.371 49.9422 234.836 47.9688 236.598 46.582L236.605 46.5762L236.614 46.5703C238.469 45.2271 240.609 44.7304 242.822 44.9141L243.266 44.96L243.302 44.9639L243.337 44.9736C244.125 45.1891 244.892 45.4402 245.65 45.7168C245.685 42.8381 247.607 40.4159 249.33 38.5576L249.339 38.5479L249.349 38.5381C251.824 36.139 255.26 34.9738 258.621 35.001L258.622 35C258.808 35.0014 258.993 35.0034 259.185 35.0049Z" fill="#FEFEFE" stroke="black"/>
<path d="M271.922 60.1062L271.925 60.1072C274.956 61.7006 277.54 62.1189 280.819 62.2937C280.712 64.0964 280.51 65.8729 280.233 67.6638V67.6648C280.203 67.8672 280.172 68.0696 280.141 68.2781C279.952 69.46 279.862 70.0233 279.767 70.4011C279.686 70.7223 279.604 70.8989 279.428 71.2498C278.899 71.5527 278.475 71.7436 277.892 71.9343L277.884 71.9363C277.707 71.9981 277.53 72.0601 277.348 72.1238C275.266 72.8244 273.131 73.3407 270.969 73.7976H270.968L269.769 74.0623C261.83 75.8816 252.545 74.8975 244.839 72.4246L244.831 72.4216L244.823 72.4197L244.312 72.2781C244.082 72.0628 243.953 71.7997 243.869 71.4802C243.772 71.1119 243.746 70.731 243.68 70.2644L243.679 70.2576L243.587 69.6775C243.352 68.1299 243.207 66.5789 243.12 65.0125C243.259 64.9796 243.398 64.9474 243.54 64.9138L243.544 64.9128C246.002 64.3072 248.084 63.5532 250.079 61.8708C250.673 62.1093 251.265 62.3482 251.854 62.5935L251.857 62.5955C256.729 64.5689 261.931 64.6699 266.857 62.7312L266.867 62.7273L266.876 62.7234C268.46 62.0067 270.161 61.1217 271.486 59.8728C271.63 59.9496 271.774 60.0274 271.922 60.1062Z" fill="#FEFEFE" stroke="black" stroke-width="0.8"/>
<path d="M289.808 48.4944C289.891 48.4944 289.974 48.4944 290.06 48.4944C290.203 51.9029 290.071 54.6093 287.786 57.3408C285.608 59.6303 282.996 60.9051 279.845 60.977C276.482 61.0039 274.246 60.2206 271.418 58.3705C271.256 58.5174 271.094 58.6643 270.927 58.8157C266.706 62.4839 261.997 63.3012 256.556 62.9288C254.734 62.6813 253.192 62.0819 251.582 61.2026C250.986 60.8882 250.382 60.638 249.754 60.3964C249.598 60.574 249.442 60.7516 249.282 60.9345C247.363 62.8523 245.141 63.6739 242.496 63.7834C239.881 63.7271 237.772 62.7192 235.899 60.9029C235.501 60.4086 235.202 59.9403 234.892 59.3835C235.647 59.3835 235.647 59.3835 236.34 59.8583C238.347 61.1775 240.414 60.9875 242.701 60.6497C244.457 60.1452 245.951 59.2129 246.936 57.6425C247.261 56.7832 247.396 55.9911 247.487 55.0785C247.744 55.3001 248.001 55.5216 248.258 55.7432C248.421 55.882 248.583 56.0207 248.75 56.1636C249.062 56.4345 249.37 56.7101 249.672 56.9926C252.68 59.7646 256.4 60.2976 260.332 60.2302C263.842 60.0676 267.507 58.4424 269.907 55.8382C270.298 55.2608 270.603 54.6926 270.915 54.0655C271.076 54.2379 271.237 54.4103 271.403 54.5878C273.617 56.7893 275.76 58.1992 278.944 58.2439C282.012 58.1974 284.54 57.2 286.785 55.0785C288.348 53.1508 289.242 50.8982 289.808 48.4944Z" fill="#E8E4E8"/>
<path d="M271.725 59.7896C272.09 59.9162 272.181 60.0338 272.416 60.1596C275.493 61.7792 277.008 62.1796 280.451 62.3411C280.417 62.8438 280.392 63.0195 280.353 63.5124C278.295 64.7534 276.567 64.2881 274.365 63.8325C273.554 63.607 272.944 63.3139 272.213 62.9076C271.63 62.6101 271.63 62.6101 270.971 62.5752C269.846 63.0409 268.874 63.6697 267.861 64.3402C264.522 66.4538 260.085 66.5575 256.316 65.8198C254.894 65.478 253.586 64.9812 252.258 64.3696C250.996 63.8407 250.996 63.8407 249.694 64.0847C249.482 64.2029 249.27 64.3211 249.051 64.4428C247.85 65.1005 246.351 65.6004 244.974 65.5841C244.724 65.5818 244.474 65.5795 244.217 65.5771C243.93 65.5727 243.868 65.7066 243.576 65.7021C243.553 65.553 243.552 65.2523 243.552 65.0801C243.741 65.0246 244.015 64.9508 244.21 64.8936C245.822 64.3907 247.83 63.5457 249.25 62.6259C249.429 62.5116 249.566 62.3716 249.75 62.2539C249.993 62.085 249.847 62.1782 250.095 62.0058C250.323 61.8915 250.809 61.7786 251.47 62.0717C251.704 62.2117 251.939 62.3518 252.18 62.4961C256.287 64.6883 261.422 64.5507 265.436 63.3349C269.449 62.1191 271.361 59.663 271.725 59.7896Z" fill="#E9E5E9"/>
<path d="M222.697 101.962C223.082 101.779 222.385 105.352 225.728 109.056C229.07 112.76 236.112 117.296 236.112 117.296C236.112 117.296 237.249 118.038 239.983 119.248C242.716 120.457 250.504 122.973 259.514 123.176C268.523 123.379 277.852 120.136 280.167 119.248C282.481 118.36 282.598 118.143 283.409 117.656C285.046 116.674 288.113 114.241 290.604 112.377C293.094 110.514 297.649 105.352 297.757 104.34C297.865 103.327 298.294 106.011 297.533 108.364C297.202 109.387 295.294 113.029 292.241 115.568C288.273 118.868 283.464 121.624 283.464 121.624L283.852 129.491C284.365 134.412 285.33 139.574 285.33 140.125C285.33 141.116 272.807 146.004 261.422 145.625C250.036 145.247 234.455 141.263 234.258 140.125C234.061 138.988 236.112 129.297 236.112 121.493C226.91 114.929 225.728 113.673 223.696 111.014C222.22 109.082 221.908 108.431 221.799 106.003C221.727 104.388 222.313 102.145 222.697 101.962Z" fill="#804BB5"/>
<path d="M283.464 121.624C283.464 121.624 283.365 119.607 283.409 117.656M283.464 121.624C283.464 121.624 283.444 125.575 283.852 129.491M283.464 121.624L283.852 129.491M283.464 121.624C283.464 121.624 288.274 118.868 292.241 115.568C295.294 113.029 297.202 109.387 297.533 108.364C298.294 106.011 297.865 103.327 297.757 104.34C297.649 105.352 293.094 110.514 290.604 112.377C288.113 114.241 285.046 116.674 283.409 117.656M283.409 117.656C282.598 118.143 282.481 118.36 280.167 119.248C277.852 120.136 268.523 123.379 259.514 123.176C250.504 122.973 242.716 120.457 239.983 119.248C237.249 118.038 236.112 117.296 236.112 117.296M236.112 117.296C236.112 117.296 229.07 112.76 225.728 109.056C222.385 105.352 223.082 101.779 222.697 101.962C222.313 102.145 221.727 104.388 221.799 106.003C221.908 108.431 222.22 109.082 223.696 111.014C225.728 113.673 226.91 114.929 236.112 121.493M236.112 117.296C236.112 119.213 236.261 119.993 236.112 121.493M236.112 121.493C236.112 129.297 234.061 138.988 234.258 140.125C234.455 141.263 250.036 145.247 261.422 145.625C272.807 146.004 285.33 141.116 285.33 140.125C285.33 139.574 284.365 134.412 283.852 129.491M247.027 127.961C246.722 129.181 246.008 134.9 248.613 137.783C250.542 139.918 258.13 140.65 258.13 140.65C258.13 140.65 264.484 140.997 267.464 139.979C269.842 139.167 271.47 137.469 272.227 135.874C272.687 134.904 273.363 128.671 273.078 128.671C272.793 128.671 266.186 129.299 259.96 129.181C253.553 129.059 247.181 127.342 247.027 127.961Z" stroke="#353046" stroke-width="0.5" stroke-linecap="round"/>
</g>
<defs>
<radialGradient id="paint0_radial_2113_28181" cx="0" cy="0" r="1" gradientUnits="userSpaceOnUse" gradientTransform="translate(259.526 102.634) rotate(90) scale(63.0615 65.6301)">
<stop offset="0.490385" stop-color="#FFFAEF"/>
<stop offset="1" stop-color="#FDD886" stop-opacity="0.11"/>
</radialGradient>
<clipPath id="clip0_2113_28181">
<rect x="6" y="6" width="330" height="160" rx="10" fill="white"/>
</clipPath>
<clipPath id="clip1_2113_28181">
<rect width="99" height="145" fill="white" transform="translate(1 47)"/>
</clipPath>
</defs>
</svg>
