<svg width="375" height="442" viewBox="0 0 375 442" fill="none" xmlns="http://www.w3.org/2000/svg">
<g opacity="0.1">
<path d="M245.455 129.607L325.488 163.629L240.742 183.148L233.117 269.778L188.366 195.211L103.619 214.729L160.708 149.126L115.957 74.5581L195.99 108.58L253.079 42.9764L245.455 129.607ZM201.559 132.757L164.954 117.196L185.421 151.301L159.311 181.306L198.071 172.378L218.539 206.484L222.026 166.862L260.787 157.934L224.182 142.373L227.669 102.752L201.559 132.757Z" fill="white"/>
<path d="M298.281 100.487L491.983 182.828L286.875 230.068L268.421 439.735L160.112 259.263L-44.9963 306.503L93.1724 147.726L-15.1362 -32.7451L178.566 49.5967L316.735 -109.18L298.281 100.487ZM187.913 78.705L51.7767 20.8344L127.898 147.671L30.7909 259.262L174.943 226.061L251.064 352.899L264.034 205.542L408.186 172.342L272.05 114.471L285.02 -32.8857L187.913 78.705Z" fill="white"/>
</g>
</svg>
