<svg width="41" height="40" viewBox="0 0 41 40" fill="none" xmlns="http://www.w3.org/2000/svg">
<path d="M40.762 20C40.762 8.95434 31.8077 4.57764e-05 20.762 4.57764e-05C9.71629 4.57764e-05 0.761993 8.95434 0.761993 20C0.761993 29.9826 8.07571 38.2567 17.637 39.7571V25.7813H12.5589V20H17.637V15.5938C17.637 10.5813 20.6229 7.81254 25.1913 7.81254C27.3795 7.81254 29.6682 8.20317 29.6682 8.20317V13.125H27.1463C24.6618 13.125 23.887 14.6667 23.887 16.2484V20H29.4339L28.5471 25.7813H23.887V39.7571C33.4483 38.2567 40.762 29.9826 40.762 20Z" fill="#1877F2"/>
</svg>
