<svg width="41" height="40" viewBox="0 0 41 40" fill="none" xmlns="http://www.w3.org/2000/svg">
<path fill-rule="evenodd" clip-rule="evenodd" d="M39.4382 20.4552C39.4382 19.037 39.3109 17.6733 39.0746 16.3643H20.2382V24.1006H31.0019C30.5382 26.6006 29.1291 28.7188 27.0109 30.137V35.1552H33.4746C37.2564 31.6733 39.4382 26.5461 39.4382 20.4552Z" fill="#4285F4"/>
<path fill-rule="evenodd" clip-rule="evenodd" d="M20.2358 40C25.6358 40 30.1631 38.2091 33.4721 35.1546L27.0085 30.1364C25.2176 31.3364 22.9267 32.0455 20.2358 32.0455C15.0267 32.0455 10.6176 28.5273 9.04487 23.8H2.36305V28.9819C5.65396 35.5182 12.4176 40 20.2358 40Z" fill="#34A853"/>
<path fill-rule="evenodd" clip-rule="evenodd" d="M9.04731 23.7999C8.64731 22.5999 8.42004 21.3181 8.42004 19.9999C8.42004 18.6817 8.64731 17.3999 9.04731 16.1999V11.0181H2.36549C1.01095 13.7181 0.23822 16.7726 0.23822 19.9999C0.23822 23.2272 1.01095 26.2817 2.36549 28.9817L9.04731 23.7999Z" fill="#FBBC05"/>
<path fill-rule="evenodd" clip-rule="evenodd" d="M20.2358 7.95455C23.1721 7.95455 25.8085 8.96364 27.8812 10.9455L33.6176 5.20909C30.154 1.98182 25.6267 0 20.2358 0C12.4176 0 5.65396 4.48182 2.36305 11.0182L9.04487 16.2C10.6176 11.4727 15.0267 7.95455 20.2358 7.95455Z" fill="#EA4335"/>
</svg>
