<svg width="20" height="22" viewBox="0 0 20 22" fill="none" xmlns="http://www.w3.org/2000/svg">
<path d="M11.0588 1C11.728 1 12.6471 1.52546 12.6471 2.05092V4.15275C12.8235 3.97759 13.3451 3.10183 14.2353 3.10183C15.1255 3.10183 15.8235 3.62729 15.8235 4.15275V7.30549C16 7.13034 16.3529 6.25458 17.4118 6.25458C17.9412 6.25458 19 6.78004 19 7.30549V13.611C19 16.2383 17.2 20.547 12.1176 20.9674C7.03529 21.3878 4.35294 17.6395 3.64706 15.7128L1 10.4582C1.52941 10.1079 2.90588 9.61751 4.17647 10.4582C4.66937 10.7844 5.23529 10.9837 6.29412 12.5601V5.20366C6.29412 4.50305 6.29412 3.10183 7.88235 3.10183C8.94118 3.10183 9.47059 4.15275 9.47059 4.6782V2.05092C9.47059 1.52546 10.3896 1 11.0588 1Z" fill="#FFD93B"/>
<path d="M12.6471 9.40732V4.15275M9.47059 10.4582V4.6782M12.6471 4.15275V2.05092C12.6471 1.52546 11.728 1 11.0588 1C10.3896 1 9.47059 1.52546 9.47059 2.05092V4.6782M12.6471 4.15275C12.8235 3.97759 13.3451 3.10183 14.2353 3.10183C15.1255 3.10183 15.8235 3.62729 15.8235 4.15275V7.30549M15.8235 10.4582V7.30549M15.8235 7.30549C16 7.13034 16.3529 6.25458 17.4118 6.25458C17.9412 6.25458 19 6.78004 19 7.30549V13.611C19 16.2383 17.2 20.547 12.1176 20.9674C7.03529 21.3878 4.35294 17.6395 3.64706 15.7128L1 10.4582C1.52941 10.1079 2.90588 9.61751 4.17647 10.4582C4.66937 10.7844 5.23529 10.9837 6.29412 12.5601V5.20366C6.29412 4.50305 6.29412 3.10183 7.88235 3.10183C8.94118 3.10183 9.47059 4.15275 9.47059 4.6782" stroke="#C58219" stroke-width="1.5"/>
</svg>
