<svg width="164" height="84" viewBox="0 0 164 84" fill="none" xmlns="http://www.w3.org/2000/svg">
<path d="M55.066 67.8679V21.7663M124.623 20.0588V67.8679M55.066 -1V7.15289M124.623 -1V7.15289" stroke="#DDCFF2" stroke-width="1.9402"/>
<path d="M110.236 0.212891H94.8355V7.48864H110.236V0.212891Z" fill="#27232C"/>
<path d="M79.4352 7.48864V15.8557H94.8355V7.48864H79.4352Z" fill="#27232C"/>
<path d="M94.8355 21.07H110.236V15.8557H94.8355V21.07Z" fill="#27232C"/>
<path d="M126 15.8557V7.48864H110.236V15.8557H126Z" fill="#27232C"/>
<path d="M63.6711 21.07H79.4352V15.8557H63.6711V21.07Z" fill="#27232C"/>
<path d="M79.4352 0.212891H63.6711V7.48864H79.4352V0.212891Z" fill="#27232C"/>
<path d="M53 7.48864V10.6415V15.8557H63.6711V7.48864H53Z" fill="#27232C"/>
<path d="M126 21.07H63.6711M126 21.07V15.8557M126 21.07H110.236M126 0.212891H63.6711M126 0.212891V7.48864M126 0.212891H110.236M63.6711 0.212891H53V7.48864M63.6711 0.212891V7.48864M63.6711 0.212891H79.4352M63.6711 21.07H53V15.8557M63.6711 21.07V15.8557M63.6711 21.07H79.4352M79.4352 0.212891V7.48864M79.4352 0.212891H94.8355M79.4352 21.07V15.8557M79.4352 21.07H94.8355M94.8355 0.212891V7.48864M94.8355 0.212891H110.236M94.8355 21.07V15.8557M94.8355 21.07H110.236M110.236 0.212891V7.48864M110.236 21.07V15.8557M53 7.48864V10.6415V15.8557M53 7.48864H63.6711M126 7.48864V15.8557M126 7.48864H110.236M53 15.8557H63.6711M126 15.8557H110.236M63.6711 15.8557V7.48864M63.6711 15.8557H79.4352M79.4352 15.8557V7.48864M79.4352 15.8557H94.8355M79.4352 7.48864H63.6711M79.4352 7.48864H94.8355M94.8355 7.48864V15.8557M94.8355 7.48864H110.236M94.8355 15.8557H110.236M110.236 15.8557V7.48864" stroke="#CBAEF9" stroke-width="0.48505"/>
<path d="M63.6711 0.212891H53V7.48864H63.6711V0.212891Z" fill="#DDCFF2"/>
<path d="M53 21.0698H63.6711V15.8555H53V21.0698Z" fill="#DDCFF2"/>
<path d="M79.4353 15.8556V7.48853H63.6711V15.8556H79.4353Z" fill="#DDCFF2"/>
<path d="M94.8358 0.212891H79.4354V7.48864H94.8358V0.212891Z" fill="#DDCFF2"/>
<path d="M79.4354 21.0698H94.8358V15.8555H79.4354V21.0698Z" fill="#DDCFF2"/>
<path d="M110.236 15.8556V7.48853H94.8352V15.8556H110.236Z" fill="#DDCFF2"/>
<path d="M110.236 21.0698H126V15.8555H110.236V21.0698Z" fill="#DDCFF2"/>
<path d="M126 0.212891H110.236V7.48864H126V0.212891Z" fill="#DDCFF2"/>
<mask id="mask0_3497_24515" style="mask-type:alpha" maskUnits="userSpaceOnUse" x="0" y="1" width="164" height="82">
<rect y="1" width="164" height="82" fill="#D9D9D9"/>
</mask>
<g mask="url(#mask0_3497_24515)">
<path d="M83.8765 100.248L193.356 50.9392L199.438 67.6478L83.8765 100.248Z" fill="url(#paint0_linear_3497_24515)" fill-opacity="0.1"/>
<path d="M83.8997 100.212L169.913 16.4331L181.342 30.054L83.8997 100.212Z" fill="url(#paint1_linear_3497_24515)" fill-opacity="0.1"/>
<path d="M83.7399 100.332L135.912 -7.81272L151.31 1.0777L83.7399 100.332Z" fill="url(#paint2_linear_3497_24515)" fill-opacity="0.1"/>
<path d="M83.7337 100.319L95.7713 -19.1476L113.282 -16.0599L83.7337 100.319Z" fill="url(#paint3_linear_3497_24515)" fill-opacity="0.1"/>
<path d="M83.878 100.011L54.3297 -16.3677L71.8404 -19.4553L83.878 100.011Z" fill="url(#paint4_linear_3497_24515)" fill-opacity="0.1"/>
<path d="M84.1997 100.639L16.6294 1.38449L32.0281 -7.50593L84.1997 100.639Z" fill="url(#paint5_linear_3497_24515)" fill-opacity="0.1"/>
<path d="M83.9331 100.212L-13.5091 30.0536L-2.07976 16.4327L83.9331 100.212Z" fill="url(#paint6_linear_3497_24515)" fill-opacity="0.1"/>
<path d="M84.3607 100.248L-31.2005 67.6484L-25.1191 50.9399L84.3607 100.248Z" fill="url(#paint7_linear_3497_24515)" fill-opacity="0.1"/>
</g>
<path d="M76.6513 33.0756C81.8189 34.306 87.4785 31.3531 93.6304 22.2484C97.1625 17.0209 102.173 14.4382 105.934 13.3359L103.473 19.2956C105.114 19.7057 108.592 20.8212 109.379 22.0024C106.918 21.8383 101.062 23.2819 97.3215 30.3688C92.8194 38.8991 82.1567 40.128 75.4402 38.4496C75.6371 37.2799 75.0173 34.1194 74.6828 32.6854C75.3766 32.8004 76.0393 32.9299 76.6513 33.0756Z" fill="#41A43C"/>
<path d="M47.2559 79.6411C61.4286 79.6411 72.9178 77.5004 72.9178 74.8596C72.9178 72.2189 61.4286 70.0781 47.2559 70.0781C33.0833 70.0781 21.5941 72.2189 21.5941 74.8596C21.5941 77.5004 33.0833 79.6411 47.2559 79.6411Z" fill="#7D0C0C" fill-opacity="0.11"/>
<path d="M48.2198 75.6512C68.2818 75.6512 84.5454 59.3877 84.5454 39.3256C84.5454 19.2635 68.2818 3 48.2198 3C28.1577 3 11.8942 19.2635 11.8942 39.3256C11.8942 59.3877 28.1577 75.6512 48.2198 75.6512Z" fill="url(#paint8_radial_3497_24515)"/>
<path d="M48.1162 67.9441C63.8657 67.9441 76.6332 55.1766 76.6332 39.4271C76.6332 23.6776 63.8657 10.9102 48.1162 10.9102C32.3667 10.9102 19.5992 23.6776 19.5992 39.4271C19.5992 55.1766 32.3667 67.9441 48.1162 67.9441Z" stroke="white" stroke-width="0.963179"/>
<path d="M9.0719 27.4922L21.1804 30.9009L21.0904 31.2073L9.0719 27.4922Z" fill="white"/>
<path d="M27.1632 4.44336L34.6772 14.5318L34.419 14.7197L27.1632 4.44336Z" fill="white"/>
<path d="M75.6215 8.61914L67.8352 18.4987L67.5867 18.2983L75.6215 8.61914Z" fill="white"/>
<path d="M73.1344 72.1501L65.5812 62.0913L65.8387 61.9023L73.1344 72.1501Z" fill="white"/>
<path d="M23.8481 72.4667L31.4016 62.4077L31.1441 62.2188L23.8481 72.4667Z" fill="white"/>
<path d="M19.2199 21.0231C19.5429 21.0231 19.8047 20.7613 19.8047 20.4383C19.8047 20.1153 19.5429 19.8535 19.2199 19.8535C18.8969 19.8535 18.6351 20.1153 18.6351 20.4383C18.6351 20.7613 18.8969 21.0231 19.2199 21.0231Z" fill="white"/>
<path d="M79.7288 52.7396C79.9568 52.7396 80.1416 52.5548 80.1416 52.3269C80.1416 52.0989 79.9568 51.9141 79.7288 51.9141C79.5009 51.9141 79.316 52.0989 79.316 52.3269C79.316 52.5548 79.5009 52.7396 79.7288 52.7396Z" fill="white"/>
<path d="M75.0163 20.7497C75.3393 20.7497 75.6011 20.4878 75.6011 20.1649C75.6011 19.8419 75.3393 19.5801 75.0163 19.5801C74.6933 19.5801 74.4315 19.8419 74.4315 20.1649C74.4315 20.4878 74.6933 20.7497 75.0163 20.7497Z" fill="white"/>
<path d="M22.5225 58.5196C22.6935 58.5196 22.8321 58.381 22.8321 58.21C22.8321 58.039 22.6935 57.9004 22.5225 57.9004C22.3515 57.9004 22.2129 58.039 22.2129 58.21C22.2129 58.381 22.3515 58.5196 22.5225 58.5196Z" fill="white"/>
<path d="M65.5222 66.9124L65.8573 67.5749L66.5198 67.9099L65.8573 68.245L65.5222 68.9075L65.1872 68.245L64.5247 67.9099L65.1872 67.5749L65.5222 66.9124Z" fill="white"/>
<path d="M65.5222 66.9124L65.8573 67.5749L66.5198 67.9099L65.8573 68.245L65.5222 68.9075L65.1872 68.245L64.5247 67.9099L65.1872 67.5749L65.5222 66.9124Z" fill="white"/>
<path d="M14.8858 37.6074L15.2208 38.27L15.8833 38.605L15.2208 38.94L14.8858 39.6026L14.5507 38.94L13.8882 38.605L14.5507 38.27L14.8858 37.6074Z" fill="white"/>
<path d="M82.4469 39.1875L82.782 39.85L83.4445 40.1851L82.782 40.5201L82.4469 41.1827L82.1119 40.5201L81.4493 40.1851L82.1119 39.85L82.4469 39.1875Z" fill="white"/>
<path d="M39.3784 5.20117L39.9214 6.27491L40.9951 6.81794L39.9214 7.36096L39.3784 8.4347L38.8353 7.36096L37.7616 6.81794L38.8353 6.27491L39.3784 5.20117Z" fill="white"/>
<path d="M37.9102 72.2337C39.0021 71.6757 39.8421 72.7036 39.0021 73.1735C37.4832 74.0238 35.4113 75.8697 33.8154 75.6275C33.1855 75.5319 32.1145 74.4965 32.5765 73.9544C33.0385 73.4129 36.0169 73.2003 37.9102 72.2337Z" fill="#332C43" stroke="#332C43" stroke-width="0.481589" stroke-linecap="round"/>
<path d="M36.4894 67.8418C36.7646 69.9058 37.7966 71.3849 38.9317 72.3481" stroke="#332C43" stroke-width="0.963179" stroke-linecap="round"/>
<path d="M38.6147 62.9922C37.1287 64.4508 36.5645 66.1639 36.4751 67.6499" stroke="#332C43" stroke-width="0.963179" stroke-linecap="round"/>
<path d="M78.3809 57.1869C77.7269 56.1496 78.675 55.2205 79.2193 56.0147C80.2022 57.451 82.2278 59.3482 82.1302 60.9594C82.0917 61.5954 81.1562 62.7553 80.5747 62.344C79.9939 61.9327 79.5147 58.9854 78.3809 57.1869Z" fill="#332C43" stroke="#332C43" stroke-width="0.481589" stroke-linecap="round"/>
<path d="M71.8893 55.5554C73.7681 56.4531 74.8574 57.8906 75.4239 59.2673L78.09 57.2699" stroke="#332C43" stroke-width="0.963179" stroke-linecap="round"/>
<path d="M56.4956 62.9922C57.9817 64.4507 58.5458 66.1638 58.6352 67.6498" stroke="#332C43" stroke-width="0.963179" stroke-linecap="round"/>
<g filter="url(#filter0_d_3497_24515)">
<path d="M49.8872 66.921C64.9483 65.7899 76.2409 52.6635 75.1098 37.6024C73.9787 22.5412 60.8524 11.2487 45.7912 12.3798C30.7301 13.5108 19.4375 26.6372 20.5686 41.6983C21.6997 56.7595 34.8261 68.052 49.8872 66.921Z" fill="#FFAF16"/>
</g>
<path d="M49.9133 67.2648C65.1639 66.1195 76.5985 52.8281 75.4532 37.5775C74.3079 22.3269 61.0164 10.8923 45.7659 12.0376C30.5153 13.1829 19.0807 26.4744 20.226 41.725C21.3713 56.9755 34.6628 68.4101 49.9133 67.2648Z" stroke="#332C43" stroke-width="0.687985"/>
<path d="M22.0107 30.5762C22.5833 42.9423 31.3807 55.4271 45.1921 56.3538C62.3212 57.503 76.3652 38.4846 71.5507 26.0139C72.3859 27.4746 73.098 29.0335 73.6677 30.6819C78.6026 44.9565 71.0313 60.5288 56.7568 65.4634C42.4822 70.3983 26.9099 62.8271 21.975 48.5524C19.8791 42.4896 20.0392 36.1928 22.0107 30.5762Z" fill="#FF9916"/>
<path d="M50.5344 57.0044C41.6153 58.8731 32.9706 54.8528 29.7631 52.609C32.4152 55.2979 39.1303 60.9468 50.0877 59.8155C58.8536 58.9106 67.1844 51.6278 70.2542 48.0996C65.1106 58.0759 53.1352 60.9127 47.7905 61.0842C30.3947 61.1771 23.7095 49.1668 22.5414 43.15C23.5287 50.3047 30.2403 64.2476 49.1885 62.7832C68.1366 61.3187 73.5788 45.2107 73.931 37.3398C70.6273 50.0581 61.6832 54.6683 50.5344 57.0044Z" fill="#FE7800"/>
<path d="M20.0821 41.7458C16.3132 42.3503 10.5663 40.6433 11.7832 33.168" stroke="#332C43" stroke-width="0.963179" stroke-linecap="round"/>
<path d="M14.8033 30.7584C15.8499 28.3789 14.2913 28.5233 14.2691 28.8568C14.1522 27.6221 12.6982 26.7851 10.7715 27.5038C8.84031 28.2241 8.97433 30.0051 9.02159 30.6337L9.02249 30.6458C9.10752 31.7782 9.58828 33.5876 11.7694 33.2336C13.7463 32.9127 14.0231 32.9264 14.8033 30.7584Z" fill="#FF9916"/>
<path d="M14.2719 28.8895C14.1881 28.5352 15.8836 28.3022 14.8033 30.7584C14.0231 32.9264 13.7463 32.9127 11.7694 33.2336C9.5883 33.5876 9.10754 31.7782 9.02251 30.6458C8.97614 30.0283 8.82781 28.2287 10.7716 27.5038C12.7153 26.7788 14.1778 27.6369 14.2719 28.8895ZM14.2719 28.8895C14.3862 30.4127 13.9038 31.797 13.0163 30.5156M13.0163 30.5156C12.9856 30.1067 12.9675 29.8665 12.7458 28.7793M13.0163 30.5156C13.0551 31.0328 12.5112 32.0871 11.4886 31.367M11.4886 31.367C11.8137 30.6596 11.6264 29.9506 11.4591 29.1008M11.4886 31.367C11.3173 31.8693 9.91888 32.4758 9.89281 29.3731" stroke="#332C43" stroke-width="0.481589" stroke-linecap="round"/>
<path d="M75.6495 37.5737C79.4665 37.6086 82.3017 37.0742 83.9914 33.3828" stroke="#332C43" stroke-width="0.963179" stroke-linecap="round"/>
<path d="M83.874 33.6671C84.9775 30.4451 84.2255 27.3279 82.8867 25.1172" stroke="#332C43" stroke-width="0.963179" stroke-linecap="round"/>
<path d="M79.682 23.7165C78.0047 21.3236 79.7549 21.1397 79.8526 21.5026C79.7102 20.1156 81.1288 18.873 83.4109 19.2413C85.6984 19.6104 85.9427 21.6034 86.0287 22.3068L86.0307 22.3204C86.1862 23.5874 86.0541 25.6881 83.5719 25.7778C81.3215 25.859 81.0194 25.935 79.682 23.7165Z" fill="#FF9916"/>
<path d="M79.8566 21.5392C79.871 21.1302 77.9509 21.2464 79.6818 23.7165C81.0193 25.935 81.3213 25.859 83.5717 25.7778C86.054 25.6881 86.1861 23.5874 86.0306 22.3204C85.9459 21.6294 85.7134 19.6128 83.4107 19.2413C81.1087 18.8698 79.6846 20.1376 79.8566 21.5392ZM79.8566 21.5392C80.0657 23.2437 80.9023 24.6635 81.5986 23.0556M81.5986 23.0556C81.5428 22.598 81.5098 22.3293 81.5153 21.0819M81.5986 23.0556C81.6701 23.6344 82.5012 24.6769 83.4706 23.6582M83.4706 23.6582C82.9567 22.9498 83.0069 22.1269 83.0041 21.1532M83.4706 23.6582C83.7699 24.1741 85.4451 24.5351 84.7908 21.1088" stroke="#332C43" stroke-width="0.481589" stroke-linecap="round"/>
<path d="M27.1958 39.8962C29.1069 40.4083 30.8662 40.0395 31.1253 39.0724C31.3844 38.1054 30.0452 36.9063 28.1341 36.3942C26.2231 35.8822 24.4638 36.251 24.2046 37.218C23.9455 38.1851 25.2847 39.3842 27.1958 39.8962Z" fill="#F05D0E"/>
<path d="M60.2537 40.2329C62.6029 39.6035 64.2316 38.0645 63.8916 36.7955C63.5516 35.5266 61.3715 35.0081 59.0224 35.6376C56.6732 36.2671 55.0444 37.806 55.3845 39.075C55.7245 40.344 57.9045 40.8624 60.2537 40.2329Z" fill="#F05D0E"/>
<path d="M52.9651 34.2518C54.7478 34.1465 56.1076 32.616 56.0024 30.8333C55.8971 29.0506 54.3666 27.6907 52.5839 27.796C50.8011 27.9012 49.4413 29.4318 49.5466 31.2145C49.6518 32.9972 51.1823 34.3571 52.9651 34.2518Z" fill="#332C43"/>
<path d="M35.2477 35.7301C37.0304 35.6248 38.3902 34.0943 38.285 32.3116C38.1797 30.5288 36.6492 29.169 34.8665 29.2742C33.0837 29.3795 31.7239 30.91 31.8291 32.6928C31.9344 34.4755 33.4649 35.8353 35.2477 35.7301Z" fill="#332C43"/>
<path d="M51.3022 31.1809C51.8522 31.1485 52.2717 30.6763 52.2392 30.1263C52.2067 29.5763 51.7346 29.1568 51.1846 29.1892C50.6346 29.2217 50.215 29.6939 50.2475 30.2439C50.28 30.7939 50.7522 31.2134 51.3022 31.1809Z" fill="#FBFBFB"/>
<path d="M33.5846 32.6594C34.1346 32.627 34.5542 32.1548 34.5217 31.6048C34.4892 31.0548 34.017 30.6353 33.467 30.6678C32.917 30.7002 32.4975 31.1724 32.53 31.7224C32.5625 32.2724 33.0346 32.6919 33.5846 32.6594Z" fill="#FBFBFB"/>
<path d="M52.6009 29.2424C52.7526 29.2335 52.8683 29.1032 52.8594 28.9515C52.8504 28.7998 52.7201 28.684 52.5684 28.693C52.4167 28.702 52.301 28.8322 52.3099 28.9839C52.3189 29.1357 52.4491 29.2514 52.6009 29.2424Z" fill="#FBFBFB"/>
<path d="M34.8833 30.7207C35.0351 30.7118 35.1508 30.5815 35.1418 30.4298C35.1329 30.2781 35.0026 30.1623 34.8509 30.1713C34.6992 30.1802 34.5834 30.3105 34.5924 30.4622C34.6014 30.6139 34.7316 30.7297 34.8833 30.7207Z" fill="#FBFBFB"/>
<path d="M44.4593 43.3754C41.1127 43.7692 38.9637 41.2428 38.3075 39.9304C40.4934 40.3667 45.504 40.6109 50.119 38.7207L49.8729 39.4383C49.4628 40.5866 47.8059 42.9817 44.4593 43.3754Z" stroke="#332C43" stroke-width="1.10078" stroke-linecap="round"/>
<path d="M36.3876 60.8838C41.7192 60.8838 54.1541 61.7204 61.241 65.067C70.0996 69.2503 73.0525 73.1874 85.3561 73.6796C97.6598 74.1717 110.456 71.2189 121.775 75.8942C128.078 78.4977 131.488 81.4111 133.117 83.5226L129.403 74.1717L139 73.9257C133.586 69.4964 119.019 61.1299 104.058 63.0985C85.3561 65.5592 79.4504 65.8053 70.0996 62.1142C62.9635 58.6691 51.3981 53.5016 35.6494 53.5016C31.8655 53.5016 26.4519 54.186 23.9912 53.5016C20.8105 52.617 16.6283 49.5073 20.0733 44.0937C20.1826 43.922 20.3193 43.8474 20.3193 43.8474C20.0098 43.0599 19.7989 41.2043 19.8272 40.4023C17.592 42.0682 16.1065 43.9882 15.6247 46.5577C14.1483 54.432 19.7474 60.4455 36.3876 60.8838Z" fill="#41A43C"/>
<defs>
<filter id="filter0_d_3497_24515" x="20.4906" y="12.3018" width="54.6973" height="56.9676" filterUnits="userSpaceOnUse" color-interpolation-filters="sRGB">
<feFlood flood-opacity="0" result="BackgroundImageFix"/>
<feColorMatrix in="SourceAlpha" type="matrix" values="0 0 0 0 0 0 0 0 0 0 0 0 0 0 0 0 0 0 127 0" result="hardAlpha"/>
<feOffset dy="2.27035"/>
<feComposite in2="hardAlpha" operator="out"/>
<feColorMatrix type="matrix" values="0 0 0 0 0.988235 0 0 0 0 0.870588 0 0 0 0 0.552941 0 0 0 1 0"/>
<feBlend mode="normal" in2="BackgroundImageFix" result="effect1_dropShadow_3497_24515"/>
<feBlend mode="normal" in="SourceGraphic" in2="effect1_dropShadow_3497_24515" result="shape"/>
</filter>
<linearGradient id="paint0_linear_3497_24515" x1="83.8765" y1="100.248" x2="233.904" y2="45.6421" gradientUnits="userSpaceOnUse">
<stop stop-color="white"/>
<stop offset="0.576923" stop-color="white" stop-opacity="0.25"/>
<stop offset="0.769231" stop-color="white" stop-opacity="0"/>
<stop offset="1" stop-color="white" stop-opacity="0"/>
</linearGradient>
<linearGradient id="paint1_linear_3497_24515" x1="83.8997" y1="100.212" x2="206.203" y2="-2.41262" gradientUnits="userSpaceOnUse">
<stop stop-color="white"/>
<stop offset="0.576923" stop-color="white" stop-opacity="0.25"/>
<stop offset="0.769231" stop-color="white" stop-opacity="0"/>
<stop offset="1" stop-color="white" stop-opacity="0"/>
</linearGradient>
<linearGradient id="paint2_linear_3497_24515" x1="83.7399" y1="100.332" x2="163.568" y2="-37.934" gradientUnits="userSpaceOnUse">
<stop stop-color="white"/>
<stop offset="0.576923" stop-color="white" stop-opacity="0.25"/>
<stop offset="0.769231" stop-color="white" stop-opacity="0"/>
<stop offset="1" stop-color="white" stop-opacity="0"/>
</linearGradient>
<linearGradient id="paint3_linear_3497_24515" x1="83.7337" y1="100.319" x2="111.458" y2="-56.9113" gradientUnits="userSpaceOnUse">
<stop stop-color="white"/>
<stop offset="0.576923" stop-color="white" stop-opacity="0.25"/>
<stop offset="0.769231" stop-color="white" stop-opacity="0"/>
<stop offset="1" stop-color="white" stop-opacity="0"/>
</linearGradient>
<linearGradient id="paint4_linear_3497_24515" x1="83.878" y1="100.011" x2="56.154" y2="-57.2191" gradientUnits="userSpaceOnUse">
<stop stop-color="white"/>
<stop offset="0.576923" stop-color="white" stop-opacity="0.25"/>
<stop offset="0.769231" stop-color="white" stop-opacity="0"/>
<stop offset="1" stop-color="white" stop-opacity="0"/>
</linearGradient>
<linearGradient id="paint5_linear_3497_24515" x1="84.1997" y1="100.639" x2="4.37179" y2="-37.6272" gradientUnits="userSpaceOnUse">
<stop stop-color="white"/>
<stop offset="0.576923" stop-color="white" stop-opacity="0.25"/>
<stop offset="0.769231" stop-color="white" stop-opacity="0"/>
<stop offset="1" stop-color="white" stop-opacity="0"/>
</linearGradient>
<linearGradient id="paint6_linear_3497_24515" x1="83.9331" y1="100.212" x2="-38.3703" y2="-2.41305" gradientUnits="userSpaceOnUse">
<stop stop-color="white"/>
<stop offset="0.576923" stop-color="white" stop-opacity="0.25"/>
<stop offset="0.769231" stop-color="white" stop-opacity="0"/>
<stop offset="1" stop-color="white" stop-opacity="0"/>
</linearGradient>
<linearGradient id="paint7_linear_3497_24515" x1="84.3607" y1="100.248" x2="-65.6666" y2="45.6427" gradientUnits="userSpaceOnUse">
<stop stop-color="white"/>
<stop offset="0.576923" stop-color="white" stop-opacity="0.25"/>
<stop offset="0.769231" stop-color="white" stop-opacity="0"/>
<stop offset="1" stop-color="white" stop-opacity="0"/>
</linearGradient>
<radialGradient id="paint8_radial_3497_24515" cx="0" cy="0" r="1" gradientUnits="userSpaceOnUse" gradientTransform="translate(48.2198 39.3256) rotate(90) scale(36.3256)">
<stop offset="0.490385" stop-color="#FFB828"/>
<stop offset="1" stop-color="#FDD886" stop-opacity="0.11"/>
</radialGradient>
</defs>
</svg>
