<svg width="70" height="70" viewBox="0 0 70 70" fill="none" xmlns="http://www.w3.org/2000/svg">
<circle cx="35" cy="35" r="35" fill="white"/>
<path d="M50.7836 19.0325C46.4147 14.6775 41.1531 12.5 35.0012 12.5C34.9952 12.5 34.9904 12.5 34.9844 12.5C28.6844 12.5 23.5828 14.6823 19.2175 19.0325C18.3967 19.8508 17.6538 20.7 16.9864 21.5804C16.8246 21.7954 16.6688 22.0116 16.5166 22.2289C16.4867 22.2708 16.4579 22.3126 16.428 22.3556C16.2806 22.5682 16.138 22.782 16.0002 22.9982C15.9762 23.0352 15.9534 23.0734 15.9295 23.1117C15.7989 23.3183 15.6718 23.5261 15.5496 23.7352C15.5364 23.7591 15.5221 23.7818 15.5077 23.8056C15.3783 24.0278 15.2549 24.2524 15.135 24.4781C15.1099 24.5247 15.0847 24.5725 15.0607 24.6191C14.9421 24.8448 14.8283 25.073 14.718 25.3035C14.7048 25.3298 14.6941 25.3573 14.6809 25.3835C14.579 25.5997 14.482 25.8171 14.3873 26.0369C14.3705 26.0763 14.3525 26.1158 14.3358 26.1564C14.2375 26.3881 14.1453 26.6222 14.0554 26.8575C14.0374 26.9053 14.0194 26.9543 14.0015 27.002C13.8217 27.487 13.66 27.9803 13.5162 28.4808C13.5018 28.531 13.4874 28.5799 13.473 28.6301C13.4047 28.8738 13.3412 29.1186 13.2825 29.3659C13.2717 29.4101 13.2621 29.4543 13.2513 29.4985C13.1962 29.7326 13.1447 29.9691 13.098 30.2068C13.092 30.2355 13.086 30.2641 13.08 30.2928C13.0309 30.546 12.9865 30.8016 12.947 31.0585C12.9386 31.1134 12.9302 31.1695 12.9218 31.2245C12.8835 31.4825 12.8475 31.7405 12.8176 32.0021C12.814 32.0332 12.8116 32.0654 12.808 32.0965C12.7804 32.3413 12.7577 32.5874 12.7385 32.8358C12.7349 32.8824 12.7301 32.929 12.7277 32.9768C12.7085 33.2396 12.6941 33.5047 12.6834 33.7711C12.681 33.8272 12.6798 33.8822 12.6774 33.9383C12.6678 34.2131 12.6618 34.4902 12.6618 34.7685C12.6618 40.9021 14.8462 46.147 19.2151 50.5008C19.3889 50.674 19.5638 50.8413 19.74 51.0073C19.7879 51.0527 19.8358 51.0969 19.8838 51.1411C20.0324 51.2784 20.181 51.4134 20.3307 51.546C20.3631 51.5747 20.3942 51.6033 20.4266 51.632C20.6063 51.7885 20.7873 51.9414 20.9694 52.0919C21.0102 52.1253 21.0521 52.1588 21.0928 52.1922C21.245 52.3152 21.3984 52.4371 21.5518 52.5553C21.5937 52.5876 21.6345 52.6198 21.6764 52.6509C21.8657 52.7942 22.0562 52.9352 22.248 53.0725C22.2671 53.0869 22.2875 53.1 22.3067 53.1131C22.4816 53.2374 22.659 53.358 22.8363 53.4763C22.8783 53.5037 22.919 53.5312 22.9609 53.5587C23.3588 53.8191 23.7614 54.0651 24.1712 54.2957C24.2059 54.3148 24.2407 54.3351 24.2754 54.3542C24.4672 54.4617 24.6613 54.5656 24.8554 54.6659C24.8698 54.6731 24.8854 54.6815 24.8997 54.6886C25.1166 54.7997 25.3347 54.906 25.554 55.0099C25.572 55.0183 25.5888 55.0267 25.6067 55.0338C25.8104 55.1282 26.0141 55.2202 26.2202 55.3074C26.2442 55.3181 26.2682 55.3277 26.2921 55.3384C26.7379 55.5272 27.1884 55.6992 27.6474 55.8556C27.6714 55.864 27.6953 55.8724 27.7205 55.8807C28.1818 56.0372 28.6503 56.1769 29.1249 56.3024C29.1428 56.3071 29.1608 56.3119 29.1788 56.3167C29.4124 56.3776 29.6485 56.4349 29.8858 56.4875C29.8882 56.4875 29.8906 56.4875 29.8929 56.4887C31.5154 56.8506 33.2122 57.0334 34.9832 57.0346V47.5636C32.1984 47.56 29.7384 46.8004 27.6007 45.2882C27.4988 45.2165 27.3969 45.1448 27.2963 45.0696C27.2304 45.0194 27.1645 44.9669 27.0986 44.9155C27.0039 44.8414 26.9093 44.7686 26.8158 44.6921C26.7319 44.6228 26.6492 44.55 26.5665 44.4771C26.4934 44.4138 26.4192 44.3529 26.3473 44.2872C26.1915 44.1463 26.0381 44.0017 25.8871 43.8524C23.4055 41.3536 22.1641 38.3244 22.1641 34.7685C22.1641 34.569 22.1689 34.3731 22.1773 34.1772C22.1797 34.1175 22.1833 34.059 22.1869 33.9992C22.194 33.8583 22.2036 33.7185 22.2156 33.58C22.2204 33.5179 22.2252 33.457 22.2312 33.3948C22.2468 33.2324 22.2659 33.0723 22.2863 32.9123C22.2899 32.8824 22.2935 32.8526 22.2971 32.8227C22.3235 32.6376 22.3534 32.456 22.387 32.2744C22.3978 32.2147 22.4109 32.155 22.4229 32.0965C22.4481 31.9698 22.4744 31.8456 22.5044 31.7202C22.52 31.6545 22.5356 31.5888 22.5511 31.5231C22.5835 31.3929 22.6182 31.2639 22.6554 31.1361C22.6698 31.0847 22.6829 31.0346 22.6985 30.9832C22.7488 30.8148 22.8028 30.6476 22.8603 30.4827C22.8819 30.4194 22.9058 30.3585 22.9286 30.2964C22.9693 30.1865 23.0101 30.0778 23.0532 29.9691C23.0808 29.8986 23.1095 29.8294 23.1395 29.7589C23.1838 29.6526 23.2306 29.5487 23.2785 29.4435C23.3072 29.3802 23.3348 29.3169 23.3648 29.2548C23.4379 29.1007 23.5145 28.949 23.5948 28.7985C23.6284 28.7352 23.6643 28.6731 23.6991 28.6098C23.753 28.5119 23.8081 28.4151 23.8644 28.3195C23.9064 28.2491 23.9483 28.1786 23.9927 28.1093C24.049 28.0185 24.1077 27.9278 24.1664 27.837C24.2095 27.7713 24.2515 27.7056 24.2958 27.6399C24.7524 26.971 25.2808 26.3319 25.8847 25.724C28.3879 23.2287 31.4208 21.9781 34.9808 21.9745C34.9868 21.9745 34.9916 21.9745 34.9976 21.9745C38.5397 21.9745 41.6282 23.1625 44.0721 25.724C46.3504 28.1118 47.8335 31.2388 47.8335 34.7697V52.3582C47.8335 53.6721 48.2984 54.7687 49.2295 55.6442C50.1605 56.5723 51.2582 57.0358 52.5259 57.0358H52.6422C53.9087 57.0358 55.0075 56.5723 55.9386 55.6442C56.8697 54.7687 57.3346 53.6721 57.3346 52.3582V34.7697C57.3346 28.6373 55.1501 23.3924 50.7812 19.0361L50.7836 19.0325Z" fill="url(#paint0_linear_635_28512)"/>
<path d="M53.0017 21.5649L45.6598 27.5432L45.6503 27.5922C47.1062 29.6837 47.8359 32.075 47.8359 34.7662C47.8359 38.3221 47.8839 38.0749 47.8839 39.7376H47.8335V53.0607C47.9737 54.0664 48.4231 54.9264 49.1816 55.6395C50.1126 56.5676 51.2103 57.0311 52.478 57.0311H52.6458C53.9124 57.0311 55.0112 56.5676 55.9422 55.6395C56.8733 54.764 57.3382 53.6675 57.3382 52.3535V34.765C57.3382 29.7769 55.8931 25.3765 53.0029 21.5637L53.0017 21.5649Z" fill="#7B47CC"/>
<path d="M47.8754 50.2595L47.7388 49.3254C47.6106 48.924 47.5183 48.5956 47.2559 48.1417C46.9791 47.6627 46.6196 47.2374 46.205 46.8707L46.0684 46.7489C45.6634 46.3906 45.1889 46.1158 44.6689 45.9665C43.5065 45.6321 41.9404 45.6166 40.5444 46.2771C38.3803 47.302 37.7644 47.4967 35 47.56C33.6328 47.591 32.3422 47.3784 31.1308 47.0117C29.1812 46.4264 27.4329 45.3741 25.8871 43.8487C24.2263 42.1765 23.1215 40.2653 22.5727 38.1189L22.5284 38.0735L13.739 41.7775C14.7923 44.999 16.6173 47.9064 19.2175 50.4972C21.7495 53.0223 24.5834 54.8116 27.7157 55.8723V55.8747C27.79 55.8997 27.8655 55.9236 27.941 55.9487C27.9745 55.9595 28.0081 55.9714 28.0416 55.9822C30.2189 56.6869 32.5387 57.1109 35.0012 57.0297C40.7121 56.8422 42.3538 56.1565 44.7983 54.7865C47.166 53.3018 47.5998 52.1515 47.74 51.6689C47.897 51.1254 47.8754 50.7014 47.8754 50.2571V50.2595Z" fill="url(#paint1_linear_635_28512)"/>
<path d="M47.8754 50.2596L47.7389 49.3255C47.6106 48.9242 47.5184 48.5957 47.2559 48.1418C46.9791 47.6628 46.6197 47.2376 46.2051 46.8709L46.0685 46.7491C45.6634 46.3907 45.1889 46.116 44.6689 45.9667C43.5066 45.6322 41.9404 45.6167 40.5444 46.2772C38.3803 47.3021 37.7644 47.4968 35 47.5601C33.6328 47.5912 32.3422 47.3785 31.1308 47.0118C29.1812 46.4265 24.5834 54.8117 27.7157 55.8736V55.876C27.79 55.9011 27.8655 55.925 27.941 55.95C27.9745 55.9608 28.0081 55.9727 28.0416 55.9835C30.2189 56.6882 32.5388 57.1123 35.0012 57.031C40.7122 56.8435 42.3538 56.1579 44.7983 54.7878C47.1661 53.3031 47.5999 52.1528 47.7401 51.6703C47.897 51.1268 47.8754 50.7027 47.8754 50.2584V50.2596Z" fill="#FFD93B"/>
<defs>
<linearGradient id="paint0_linear_635_28512" x1="19.2775" y1="46.8541" x2="58.4408" y2="25.4294" gradientUnits="userSpaceOnUse">
<stop stop-color="#FFD93B"/>
<stop offset="0.17" stop-color="#D1A66C"/>
<stop offset="0.34" stop-color="#AC7D96"/>
<stop offset="0.49" stop-color="#915FB3"/>
<stop offset="0.62" stop-color="#804DC5"/>
<stop offset="0.71" stop-color="#7B47CC"/>
</linearGradient>
<linearGradient id="paint1_linear_635_28512" x1="30.8971" y1="46.2831" x2="59.6658" y2="-36.3165" gradientUnits="userSpaceOnUse">
<stop stop-color="#FFD93B"/>
<stop offset="0.03" stop-color="#EAC251"/>
<stop offset="0.08" stop-color="#CDA171"/>
<stop offset="0.13" stop-color="#B3858E"/>
<stop offset="0.19" stop-color="#9E6EA4"/>
<stop offset="0.26" stop-color="#8E5CB6"/>
<stop offset="0.34" stop-color="#8350C2"/>
<stop offset="0.46" stop-color="#7C49C9"/>
<stop offset="0.72" stop-color="#7B47CC"/>
</linearGradient>
</defs>
</svg>
