<svg width="89" height="78" viewBox="0 0 89 78" fill="none" xmlns="http://www.w3.org/2000/svg">
<rect x="-0.0347633" y="0.0347633" width="88.9305" height="75.9305" transform="matrix(-1 0 0 1 88.9305 1)" stroke="#7B47CC" stroke-width="0.0695266"/>
<path d="M42.8532 77.725C28.5306 77.725 16.9198 75.5616 16.9198 72.8929C16.9198 70.2242 28.5306 68.0608 42.8532 68.0608C57.1758 68.0608 68.7866 70.2242 68.7866 72.8929C68.7866 75.5616 57.1758 77.725 42.8532 77.725Z" fill="#7D0C0C" fill-opacity="0.11"/>
<path d="M41.8793 73.6953C21.6049 73.6953 5.16924 57.2596 5.16924 36.9852C5.16924 16.7108 21.6049 0.275146 41.8793 0.275146C62.1537 0.275146 78.5894 16.7108 78.5894 36.9852C78.5894 57.2596 62.1537 73.6953 41.8793 73.6953Z" fill="url(#paint0_radial_2572_28375)"/>
<path d="M42.0532 65.9777C26.137 65.9777 13.2344 53.0751 13.2344 37.1589C13.2344 21.2427 26.137 8.34009 42.0532 8.34009C57.9693 8.34009 70.8719 21.2427 70.8719 37.1589C70.8719 53.0751 57.9693 65.9777 42.0532 65.9777Z" stroke="white" stroke-width="0.973373"/>
<path d="M33.2585 59.6504C32.5971 60.8061 31.2136 63.5946 30.9703 65.5038C30.7271 67.4123 31.2316 69.7394 31.5143 70.6634" stroke="#332C43" stroke-width="0.973373" stroke-linecap="round"/>
<path d="M31.8371 70.0069C32.9809 69.4604 33.6545 70.746 32.7689 71.2146C31.1675 72.0621 28.8148 73.55 27.2927 73.1099C26.6919 72.9368 25.8652 72.0913 26.3923 71.5024C26.9195 70.9128 29.854 70.9546 31.8371 70.0069Z" fill="#332C43" stroke="#332C43" stroke-width="0.486686" stroke-linecap="round"/>
<path d="M49.9148 58.8843C50.5888 60.0621 51.9988 62.9036 52.2467 64.849C52.4945 66.7943 51.9803 69.1652 51.6922 70.1073" stroke="#332C43" stroke-width="0.973373" stroke-linecap="round"/>
<path d="M52.4947 69.676C51.4309 69.0231 50.6125 70.2259 51.4309 70.7759C52.9107 71.7708 54.9294 73.931 56.4843 73.648C57.098 73.5361 58.1415 72.3236 57.6914 71.6895C57.2413 71.0554 54.3394 70.8072 52.4947 69.676Z" fill="#332C43" stroke="#332C43" stroke-width="0.486686" stroke-linecap="round"/>
<path d="M15.35 33.8251C13.4074 32.3988 9.7225 34.6932 9.7225 39.4904" stroke="#332C43" stroke-width="0.973373" stroke-linecap="round"/>
<path d="M11.8785 43.2773C11.8785 43.3053 11.9884 43.5695 12.0433 43.6981L12.4041 44.154C12.4813 44.5281 12.6343 45.3226 12.6343 45.3787C12.6343 45.4348 12.4813 45.8229 12.4041 46.01C12.2289 46.0802 11.8521 46.2134 11.7471 46.1854C11.6421 46.1573 11.2431 45.9399 11.0574 45.8347L10.5582 44.993L10.2029 44.4969L9.94012 45.3737L9.47985 46.2154L8.64345 47.0271H8.21587L7.69024 46.8166L7.62419 46.3958L7.42743 46.1503L6.86844 46.01L6.60563 45.7645L6.47422 45.2735L6.24408 45.1332L5.71847 44.993L5.58706 44.537L5.71847 43.5901L6.52219 42.042L7.70553 40.1833L9.05296 39.4468L10.0055 39.552L11.3578 40.3224L11.8785 41.6782V43.2773Z" fill="#FF9916"/>
<path d="M7.53013 46.234C7.53013 46.234 6.26197 46.4514 6.49141 45.1422M6.49141 45.1422C6.37113 45.3029 6.01724 45.3301 5.78919 45.2258C4.81999 44.7834 6.62838 41.2546 7.04693 40.6718C7.70117 39.7603 8.99368 39.341 10.2667 39.6636C11.7747 40.046 12.1919 41.819 11.8443 43.14C12.3845 43.9888 13.15 45.9559 11.8443 46.0601C10.8667 46.138 10.4009 44.5511 10.2917 44.1172C10.2834 44.0836 10.2375 44.079 10.225 44.1104C9.68337 45.4526 9.11952 47.5292 7.91045 46.9988C6.80081 46.5119 8.46527 43.8005 8.46527 43.8005M6.49141 45.1422C6.5665 44.7153 6.8008 44.1259 7.29027 43.3138" stroke="#332C43" stroke-width="0.486686" stroke-linecap="round"/>
<g filter="url(#filter0_d_2572_28375)">
<path d="M42.0404 64.7956C26.777 64.7956 14.4036 52.4222 14.4036 37.1588C14.4036 21.8954 26.777 9.52197 42.0404 9.52197C57.3038 9.52197 69.6772 21.8954 69.6772 37.1588C69.6772 52.4222 57.3038 64.7956 42.0404 64.7956Z" fill="#FFAF16"/>
</g>
<path d="M42.0395 65.1423C26.5841 65.1423 14.055 52.6132 14.055 37.1578C14.055 21.7024 26.5841 9.17334 42.0395 9.17334C57.4949 9.17334 70.0239 21.7024 70.0239 37.1578C70.0239 52.6132 57.4949 65.1423 42.0395 65.1423Z" stroke="#332C43" stroke-width="0.695266"/>
<path d="M63.7079 20C67.2441 32.0002 62.2614 44.8875 49.3757 50.3329C33.3949 57.0864 14.4036 45.5008 14.8847 32.0002C14.569 33.6711 14.4036 35.3951 14.4036 37.1576C14.4036 52.421 26.7773 64.7945 42.0407 64.7945C57.3041 64.7945 69.6775 52.421 69.6775 37.1576C69.6775 30.6749 67.4454 24.7135 63.7079 20Z" fill="#FF9916"/>
<path d="M61.0005 38.4106C58.4663 39.0897 56.1333 38.6005 55.7897 37.3182C55.4461 36.0358 57.2219 34.4457 59.7562 33.7666C62.2904 33.0876 64.6234 33.5767 64.967 34.8591C65.3106 36.1415 63.5348 37.7315 61.0005 38.4106Z" fill="#F05D0E"/>
<path d="M20.4839 38.6945C18.1099 38.0584 16.4639 36.5032 16.8075 35.2208C17.1511 33.9384 19.3542 33.4145 21.7283 34.0506C24.1023 34.6867 25.7483 36.242 25.4047 37.5244C25.0611 38.8068 22.858 39.3307 20.4839 38.6945Z" fill="#F05D0E"/>
<path d="M45.1909 54.6629C54.3268 53.5028 61.256 46.8085 63.5787 43.6063C61.9335 47.0502 57.3849 54.6628 46.5458 57.2004C37.8746 59.2305 27.5129 55.0254 23.4159 52.669C31.6227 60.4993 43.9973 59.2546 49.1588 57.6535C65.8046 51.9984 68.224 38.3197 67.353 32.1873C68.7725 39.3468 66.966 54.8803 48.3846 59.7379C29.8033 64.5957 19.287 51.0076 16.3508 43.6063C23.7063 54.6629 33.7712 56.1129 45.1909 54.6629Z" fill="#FE7800"/>
<path d="M69.6903 30.9358C69.8641 31.7702 70.1422 33.3693 70.2118 34.0645C70.3392 34.3079 70.6011 34.8154 70.6289 34.8989C70.6567 34.9823 70.8723 34.3774 70.9766 34.0645L70.4551 30.3796L69.7598 29.0934C69.5629 29.0123 69.4261 29.6679 69.6903 30.9358Z" fill="white"/>
<path d="M14.4502 30.6571C14.3806 31.0742 14.0796 32.2539 13.9287 32.9028C13.6979 32.912 13.4692 32.9503 13.2481 33.0166L13.2335 33.021L13.3377 31.6652L13.9287 30.5528C14.1255 30.4948 14.4877 30.4308 14.4502 30.6571Z" fill="white"/>
<path d="M81.3489 39.7256C81.4272 39.4731 81.2895 39.2059 81.0422 39.1212L81.0179 39.1135L76.3714 37.7837C76.225 37.7418 76.0681 37.7709 75.9469 37.8611L75.9231 37.8799L74.0764 39.4419C74.0401 39.4726 74.0086 39.5084 73.9827 39.5482L73.4807 40.3199C73.3096 40.5831 73.4291 40.934 73.7187 41.0413L73.7472 41.051L79.8556 42.9069C80.1038 42.9822 80.3658 42.8498 80.454 42.6089L80.462 42.5853L81.3489 39.7256Z" fill="#FFCE2D" stroke="#332C43" stroke-width="0.695266"/>
<path d="M80.1983 38.5615C80.2767 38.309 80.139 38.0419 79.8917 37.9571L79.8674 37.9495L75.2209 36.6196C75.0745 36.5777 74.9176 36.6069 74.7964 36.697L74.7726 36.7159L72.9259 38.2779C72.8896 38.3085 72.8581 38.3443 72.8322 38.3841L72.3302 39.1558C72.1591 39.419 72.2786 39.77 72.5681 39.8772L72.5967 39.8869L78.7051 41.7428C78.9533 41.8182 79.2152 41.6857 79.3035 41.4449L79.3115 41.4213L80.1983 38.5615Z" fill="#FFF196" stroke="#332C43" stroke-width="0.695266"/>
<path d="M65.2545 36.1201L80.4039 40.7392C81.2854 41.0079 81.7821 41.9404 81.5133 42.8219L78.3185 53.3002C78.0498 54.1817 77.1173 54.6784 76.2358 54.4096L61.0864 49.7905C60.2049 49.5218 59.7081 48.5893 59.9769 47.7078L63.1717 37.2296C63.4405 36.3481 64.373 35.8513 65.2545 36.1201Z" fill="#1861AA" stroke="#332C43" stroke-width="0.695266"/>
<path d="M66.6265 36.5384L80.4039 40.7392C81.2854 41.0079 81.7821 41.9404 81.5133 42.8219L78.3185 53.3002C78.0498 54.1817 77.1173 54.6784 76.2358 54.4096L62.4584 50.2089C61.5769 49.9401 61.0802 49.0076 61.3489 48.1261L64.5438 37.6479C64.8125 36.7664 65.745 36.2697 66.6265 36.5384Z" fill="#5A83AB" stroke="#332C43" stroke-width="0.695266"/>
<path d="M73.4806 41.0533C74.9059 37.5074 72.2639 34.2744 70.039 33.6487" stroke="#332C43" stroke-width="0.973373" stroke-linecap="square"/>
<path d="M71.6146 40.9989C73.9566 40.1944 75.116 42.2474 75.1597 43.0702C75.3772 44.5143 74.0665 45.521 73.9116 46.5026C73.7661 47.425 73.4447 47.6896 73.0623 47.7547C72.1933 47.9028 71.8403 47.0166 71.8269 46.6953C71.3793 47.9137 70.2381 47.3368 69.995 46.6109C68.4554 47.2602 68.5939 45.3905 68.8556 44.3746C69.0342 43.5183 69.9917 41.5564 71.6146 40.9989Z" fill="#FF9916"/>
<path d="M69.995 46.6109C68.4554 47.2602 68.5939 45.3905 68.8556 44.3746C69.0342 43.5183 69.9917 41.5564 71.6146 40.9989C73.9566 40.1944 75.116 42.2474 75.1597 43.0702C75.3772 44.5143 74.0665 45.521 73.9116 46.5026C73.7661 47.425 73.4447 47.6896 73.0623 47.7547C72.1933 47.9028 71.8403 47.0166 71.8269 46.6953M69.995 46.6109C69.8681 46.2319 69.7334 45.0769 70.7666 44.0897M69.995 46.6109C70.2381 47.3368 71.3793 47.9137 71.8269 46.6953M71.8269 46.6953C71.8068 46.2128 71.9952 45.4105 72.4459 44.7811" stroke="#332C43" stroke-width="0.486686" stroke-linecap="round"/>
<path d="M81.4399 25.0249L69.2033 28.4697L69.2942 28.7793L81.4399 25.0249Z" fill="white"/>
<path d="M63.1587 1.73242L55.5652 11.9276L55.8261 12.1175L63.1587 1.73242Z" fill="white"/>
<path d="M14.1874 5.95312L22.0562 15.9373L22.3074 15.7347L14.1874 5.95312Z" fill="white"/>
<path d="M16.6998 70.1553L24.333 59.99L24.0728 59.7991L16.6998 70.1553Z" fill="white"/>
<path d="M66.5076 70.4799L58.8742 60.3145L59.1344 60.1235L66.5076 70.4799Z" fill="white"/>
<path d="M71.1844 18.4893C70.858 18.4893 70.5934 18.2247 70.5934 17.8983C70.5934 17.572 70.858 17.3074 71.1844 17.3074C71.5108 17.3074 71.7754 17.572 71.7754 17.8983C71.7754 18.2247 71.5108 18.4893 71.1844 18.4893Z" fill="white"/>
<path d="M10.0346 50.5438C9.80423 50.5438 9.61746 50.357 9.61746 50.1266C9.61746 49.8962 9.80423 49.7095 10.0346 49.7095C10.265 49.7095 10.4518 49.8962 10.4518 50.1266C10.4518 50.357 10.265 50.5438 10.0346 50.5438Z" fill="white"/>
<path d="M14.7988 18.213C14.4724 18.213 14.2078 17.9484 14.2078 17.622C14.2078 17.2956 14.4724 17.031 14.7988 17.031C15.1252 17.031 15.3898 17.2956 15.3898 17.622C15.3898 17.9484 15.1252 18.213 14.7988 18.213Z" fill="white"/>
<path d="M67.8478 56.386C67.675 56.386 67.5349 56.2459 67.5349 56.0731C67.5349 55.9003 67.675 55.7603 67.8478 55.7603C68.0206 55.7603 68.1606 55.9003 68.1606 56.0731C68.1606 56.2459 68.0206 56.386 67.8478 56.386Z" fill="white"/>
<path d="M24.3937 64.8638L24.0551 65.5333L23.3856 65.8719L24.0551 66.2105L24.3937 66.88L24.7323 66.2105L25.4019 65.8719L24.7323 65.5333L24.3937 64.8638Z" fill="white"/>
<path d="M24.3937 64.8638L24.0551 65.5333L23.3856 65.8719L24.0551 66.2105L24.3937 66.88L24.7323 66.2105L25.4019 65.8719L24.7323 65.5333L24.3937 64.8638Z" fill="white"/>
<path d="M77.0253 32.3254L76.6867 32.995L76.0172 33.3336L76.6867 33.6722L77.0253 34.3417L77.3639 33.6722L78.0334 33.3336L77.3639 32.995L77.0253 32.3254Z" fill="white"/>
<path d="M10.4884 23.5676L10.1499 24.2372L9.48031 24.5758L10.1499 24.9144L10.4884 25.5839L10.827 24.9144L11.4966 24.5758L10.827 24.2372L10.4884 23.5676Z" fill="white"/>
<path d="M50.8135 2.49854L50.2647 3.58364L49.1796 4.13241L50.2647 4.68118L50.8135 5.76629L51.3623 4.68118L52.4474 4.13241L51.3623 3.58364L50.8135 2.49854Z" fill="white"/>
<path d="M46.8153 35.665C46.1028 36.7105 43.7595 38.5852 40.0649 38.5852C37.1397 38.5852 35.0021 36.8547 34.4396 35.665" stroke="#332C43" stroke-width="1.11243" stroke-linecap="round"/>
<path d="M53.0728 36.0807C51.2681 36.0807 49.8051 34.6176 49.8051 32.8129C49.8051 31.0082 51.2681 29.5452 53.0728 29.5452C54.8776 29.5452 56.3406 31.0082 56.3406 32.8129C56.3406 34.6176 54.8776 36.0807 53.0728 36.0807Z" fill="#332C43"/>
<path d="M54.6039 32.7426C54.1431 32.7426 53.7696 32.3535 53.7696 31.8735C53.7696 31.3935 54.1431 31.0044 54.6039 31.0044C55.0647 31.0044 55.4382 31.3935 55.4382 31.8735C55.4382 32.3535 55.0647 32.7426 54.6039 32.7426Z" fill="#FBFBFB"/>
<path d="M53.3859 31.1461C53.2515 31.1461 53.1426 31.0215 53.1426 30.868C53.1426 30.7144 53.2515 30.5898 53.3859 30.5898C53.5203 30.5898 53.6293 30.7144 53.6293 30.868C53.6293 31.0215 53.5203 31.1461 53.3859 31.1461Z" fill="#FBFBFB"/>
<path d="M28.1818 36.4303C26.3771 36.4303 24.9141 34.9673 24.9141 33.1625C24.9141 31.3578 26.3771 29.8948 28.1818 29.8948C29.9866 29.8948 31.4496 31.3578 31.4496 33.1625C31.4496 34.9673 29.9866 36.4303 28.1818 36.4303Z" fill="#332C43"/>
<path d="M29.6783 33.2301C29.1215 33.2301 28.6701 32.7788 28.6701 32.222C28.6701 31.6652 29.1215 31.2139 29.6783 31.2139C30.235 31.2139 30.6864 31.6652 30.6864 32.222C30.6864 32.7788 30.235 33.2301 29.6783 33.2301Z" fill="#FBFBFB"/>
<path d="M28.2529 31.3533C28.0993 31.3533 27.9748 31.2288 27.9748 31.0752C27.9748 30.9216 28.0993 30.7971 28.2529 30.7971C28.4065 30.7971 28.531 30.9216 28.531 31.0752C28.531 31.2288 28.4065 31.3533 28.2529 31.3533Z" fill="#FBFBFB"/>
<defs>
<filter id="filter0_d_2572_28375" x="14.4036" y="9.52197" width="56.0385" height="57.5681" filterUnits="userSpaceOnUse" color-interpolation-filters="sRGB">
<feFlood flood-opacity="0" result="BackgroundImageFix"/>
<feColorMatrix in="SourceAlpha" type="matrix" values="0 0 0 0 0 0 0 0 0 0 0 0 0 0 0 0 0 0 127 0" result="hardAlpha"/>
<feOffset dx="0.764793" dy="2.29438"/>
<feComposite in2="hardAlpha" operator="out"/>
<feColorMatrix type="matrix" values="0 0 0 0 0.988235 0 0 0 0 0.870588 0 0 0 0 0.552941 0 0 0 1 0"/>
<feBlend mode="normal" in2="BackgroundImageFix" result="effect1_dropShadow_2572_28375"/>
<feBlend mode="normal" in="SourceGraphic" in2="effect1_dropShadow_2572_28375" result="shape"/>
</filter>
<radialGradient id="paint0_radial_2572_28375" cx="0" cy="0" r="1" gradientUnits="userSpaceOnUse" gradientTransform="translate(41.8793 36.9852) rotate(90) scale(36.7101)">
<stop offset="0.490385" stop-color="#FFB828"/>
<stop offset="1" stop-color="#FDD886" stop-opacity="0.11"/>
</radialGradient>
</defs>
</svg>
