<svg width="105" height="84" viewBox="0 0 105 84" fill="none" xmlns="http://www.w3.org/2000/svg">
<g clip-path="url(#clip0_2572_28350)">
<path d="M70.8765 100.248L180.356 50.9392L186.438 67.6478L70.8765 100.248Z" fill="url(#paint0_linear_2572_28350)" fill-opacity="0.1"/>
<path d="M70.8997 100.212L156.913 16.4331L168.342 30.054L70.8997 100.212Z" fill="url(#paint1_linear_2572_28350)" fill-opacity="0.1"/>
<path d="M70.7399 100.332L122.912 -7.81272L138.31 1.0777L70.7399 100.332Z" fill="url(#paint2_linear_2572_28350)" fill-opacity="0.1"/>
<path d="M70.7337 100.319L82.7713 -19.1476L100.282 -16.0599L70.7337 100.319Z" fill="url(#paint3_linear_2572_28350)" fill-opacity="0.1"/>
<path d="M70.878 100.011L41.3297 -16.3677L58.8404 -19.4553L70.878 100.011Z" fill="url(#paint4_linear_2572_28350)" fill-opacity="0.1"/>
<path d="M71.1997 100.639L3.62943 1.38449L19.0281 -7.50593L71.1997 100.639Z" fill="url(#paint5_linear_2572_28350)" fill-opacity="0.1"/>
<path d="M70.9331 100.212L-26.5091 30.0536L-15.0798 16.4327L70.9331 100.212Z" fill="url(#paint6_linear_2572_28350)" fill-opacity="0.1"/>
<path d="M71.3607 100.248L-44.2005 67.6484L-38.1191 50.9399L71.3607 100.248Z" fill="url(#paint7_linear_2572_28350)" fill-opacity="0.1"/>
</g>
<rect x="-0.0347633" y="0.0347633" width="88.9305" height="75.9305" transform="matrix(-1 0 0 1 100.93 4)" stroke="#7B47CC" stroke-width="0.0695266"/>
<mask id="mask0_2572_28350" style="mask-type:luminance" maskUnits="userSpaceOnUse" x="12" y="3" width="89" height="77">
<path d="M12 3.99976H101V79.9998H12V3.99976Z" fill="white"/>
</mask>
<g mask="url(#mask0_2572_28350)">
<path d="M54.8532 80.725C40.5306 80.725 28.9198 78.5616 28.9198 75.8929C28.9198 73.2242 40.5306 71.0608 54.8532 71.0608C69.1758 71.0608 80.7866 73.2242 80.7866 75.8929C80.7866 78.5616 69.1758 80.725 54.8532 80.725Z" fill="#7D0C0C" fill-opacity="0.11"/>
<path d="M53.8793 76.6951C33.6049 76.6951 17.1692 60.2595 17.1692 39.9851C17.1692 19.7107 33.6049 3.27502 53.8793 3.27502C74.1537 3.27502 90.5894 19.7107 90.5894 39.9851C90.5894 60.2595 74.1537 76.6951 53.8793 76.6951Z" fill="url(#paint8_radial_2572_28350)"/>
<path d="M54.0532 68.9774C38.137 68.9774 25.2344 56.0748 25.2344 40.1586C25.2344 24.2425 38.137 11.3398 54.0532 11.3398C69.9693 11.3398 82.8719 24.2425 82.8719 40.1586C82.8719 56.0748 69.9693 68.9774 54.0532 68.9774Z" stroke="white" stroke-width="0.973373"/>
<path d="M45.2585 62.6504C44.5971 63.8061 43.2136 66.5946 42.9703 68.5038C42.7271 70.4123 43.2316 72.7394 43.5143 73.6634" stroke="#332C43" stroke-width="0.973373" stroke-linecap="round"/>
<path d="M43.8371 73.0069C44.9809 72.4604 45.6545 73.746 44.7689 74.2146C43.1675 75.0621 40.8148 76.55 39.2927 76.1099C38.6919 75.9368 37.8652 75.0913 38.3923 74.5024C38.9195 73.9128 41.854 73.9546 43.8371 73.0069Z" fill="#332C43" stroke="#332C43" stroke-width="0.486686" stroke-linecap="round"/>
<path d="M61.9148 61.884C62.5888 63.0618 63.9988 65.9034 64.2467 67.8487C64.4945 69.7941 63.9803 72.1649 63.6922 73.107" stroke="#332C43" stroke-width="0.973373" stroke-linecap="round"/>
<path d="M64.4947 72.6757C63.4309 72.0229 62.6125 73.2257 63.4309 73.7756C64.9107 74.7706 66.9294 76.9308 68.4843 76.6478C69.098 76.5359 70.1415 75.3233 69.6914 74.6892C69.2413 74.0551 66.3394 73.8069 64.4947 72.6757Z" fill="#332C43" stroke="#332C43" stroke-width="0.486686" stroke-linecap="round"/>
<path d="M27.3501 36.8248C25.4075 35.3986 21.7226 37.6929 21.7226 42.4902" stroke="#332C43" stroke-width="0.973373" stroke-linecap="round"/>
<path d="M23.8785 46.277C23.8785 46.3051 23.9884 46.5693 24.0433 46.6979L24.4041 47.1538C24.4813 47.5279 24.6343 48.3224 24.6343 48.3785C24.6343 48.4346 24.4813 48.8227 24.4041 49.0098C24.2289 49.0799 23.8521 49.2131 23.7471 49.1851C23.6421 49.157 23.2431 48.9396 23.0574 48.8344L22.5582 47.9927L22.2029 47.4967L21.9401 48.3735L21.4799 49.2152L20.6434 50.0268H20.2159L19.6902 49.8164L19.6242 49.3955L19.4274 49.15L18.8684 49.0098L18.6056 48.7643L18.4742 48.2733L18.2441 48.133L17.7185 47.9927L17.5871 47.5368L17.7185 46.5899L18.5222 45.0418L19.7055 43.183L21.053 42.4465L22.0055 42.5517L23.3578 43.3222L23.8785 44.6779V46.277Z" fill="#FF9916"/>
<path d="M19.5303 49.2337C19.5303 49.2337 18.2621 49.4512 18.4915 48.1419M18.4915 48.1419C18.3713 48.3026 18.0174 48.3299 17.7893 48.2256C16.8201 47.7831 18.6285 44.2544 19.047 43.6715C19.7013 42.76 20.9938 42.3407 22.2668 42.6634C23.7749 43.0458 24.192 44.8187 23.8444 46.1397C24.3846 46.9886 25.1501 48.9557 23.8444 49.0598C22.8668 49.1378 22.401 47.5509 22.2919 47.117C22.2835 47.0834 22.2376 47.0787 22.2251 47.1102C21.6835 48.4524 21.1196 50.529 19.9106 49.9985C18.8009 49.5117 20.4654 46.8002 20.4654 46.8002M18.4915 48.1419C18.5666 47.715 18.8009 47.1257 19.2904 46.3135" stroke="#332C43" stroke-width="0.486686" stroke-linecap="round"/>
<g filter="url(#filter0_d_2572_28350)">
<path d="M54.0404 67.7956C38.777 67.7956 26.4036 55.4222 26.4036 40.1588C26.4036 24.8954 38.777 12.522 54.0404 12.522C69.3038 12.522 81.6772 24.8954 81.6772 40.1588C81.6772 55.4222 69.3038 67.7956 54.0404 67.7956Z" fill="#FFAF16"/>
</g>
<path d="M54.0395 68.1423C38.5841 68.1423 26.055 55.6132 26.055 40.1578C26.055 24.7024 38.5841 12.1733 54.0395 12.1733C69.4949 12.1733 82.0239 24.7024 82.0239 40.1578C82.0239 55.6132 69.4949 68.1423 54.0395 68.1423Z" stroke="#332C43" stroke-width="0.695266"/>
<path d="M75.7079 22.9998C79.2441 34.9999 74.2614 47.8872 61.3757 53.3327C45.3949 60.0862 26.4035 48.5006 26.8847 34.9999C26.569 36.6708 26.4036 38.3948 26.4036 40.1574C26.4036 55.4208 38.7773 67.7942 54.0407 67.7942C69.3041 67.7942 81.6775 55.4208 81.6775 40.1574C81.6775 33.6747 79.4454 27.7132 75.7079 22.9998Z" fill="#FF9916"/>
<path d="M73.0005 41.4104C70.4663 42.0894 68.1333 41.6003 67.7897 40.3179C67.4461 39.0355 69.2219 37.4454 71.7562 36.7664C74.2904 36.0873 76.6234 36.5764 76.967 37.8588C77.3106 39.1412 75.5348 40.7313 73.0005 41.4104Z" fill="#F05D0E"/>
<path d="M32.4839 41.6943C30.1099 41.0582 28.4639 39.5029 28.8075 38.2205C29.1511 36.9381 31.3542 36.4142 33.7283 37.0503C36.1023 37.6865 37.7483 39.2417 37.4047 40.5241C37.0611 41.8065 34.858 42.3304 32.4839 41.6943Z" fill="#F05D0E"/>
<path d="M57.1909 57.6628C66.3268 56.5028 73.256 49.8085 75.5787 46.6063C73.9335 50.0502 69.3849 57.6628 58.5458 60.2004C49.8746 62.2305 39.5129 58.0254 35.4159 55.669C43.6227 63.4993 55.9973 62.2546 61.1588 60.6535C77.8046 54.9984 80.224 41.3197 79.353 35.1873C80.7725 42.3468 78.966 57.8803 60.3846 62.7379C41.8033 67.5957 31.287 54.0076 28.3508 46.6063C35.7063 57.6628 45.7712 59.1129 57.1909 57.6628Z" fill="#FE7800"/>
<path d="M81.6903 33.9356C81.8641 34.7699 82.1422 36.369 82.2118 37.0643C82.3392 37.3076 82.6011 37.8152 82.6289 37.8986C82.6567 37.9821 82.8723 37.3772 82.9766 37.0643L82.4551 33.3794L81.7598 32.0931C81.5629 32.012 81.4261 32.6676 81.6903 33.9356Z" fill="white"/>
<path d="M26.4502 33.6568C26.3806 34.074 26.0796 35.2536 25.9287 35.9025C25.6979 35.9118 25.4692 35.95 25.2481 36.0164L25.2335 36.0207L25.3377 34.6649L25.9287 33.5525C26.1255 33.4946 26.4877 33.4306 26.4502 33.6568Z" fill="white"/>
<path d="M93.3489 42.7256C93.4272 42.4731 93.2895 42.2059 93.0422 42.1212L93.0179 42.1135L88.3714 40.7837C88.225 40.7418 88.0681 40.7709 87.9469 40.8611L87.9231 40.8799L86.0764 42.4419C86.0401 42.4726 86.0086 42.5084 85.9827 42.5482L85.4807 43.3199C85.3096 43.5831 85.4291 43.934 85.7187 44.0413L85.7472 44.051L91.8556 45.9069C92.1038 45.9822 92.3658 45.8498 92.454 45.6089L92.462 45.5853L93.3489 42.7256Z" fill="#FFCE2D" stroke="#332C43" stroke-width="0.695266"/>
<path d="M92.1983 41.5615C92.2767 41.309 92.139 41.0419 91.8917 40.9571L91.8674 40.9495L87.2209 39.6196C87.0745 39.5777 86.9176 39.6069 86.7964 39.697L86.7726 39.7159L84.9259 41.2779C84.8896 41.3085 84.8581 41.3443 84.8322 41.3841L84.3302 42.1558C84.1591 42.419 84.2786 42.77 84.5681 42.8772L84.5967 42.8869L90.7051 44.7428C90.9533 44.8182 91.2152 44.6857 91.3035 44.4449L91.3115 44.4213L92.1983 41.5615Z" fill="#FFF196" stroke="#332C43" stroke-width="0.695266"/>
<path d="M77.2545 39.1201L92.4039 43.7392C93.2854 44.0079 93.7821 44.9404 93.5133 45.8219L90.3185 56.3002C90.0498 57.1817 89.1173 57.6784 88.2358 57.4096L73.0864 52.7905C72.2049 52.5218 71.7081 51.5893 71.9769 50.7078L75.1717 40.2296C75.4405 39.3481 76.373 38.8513 77.2545 39.1201Z" fill="#1861AA" stroke="#332C43" stroke-width="0.695266"/>
<path d="M78.6265 39.5384L92.4039 43.7392C93.2854 44.0079 93.7821 44.9404 93.5133 45.8219L90.3185 56.3002C90.0498 57.1817 89.1173 57.6784 88.2358 57.4096L74.4584 53.2089C73.5769 52.9401 73.0802 52.0076 73.3489 51.1261L76.5438 40.6479C76.8125 39.7664 77.745 39.2697 78.6265 39.5384Z" fill="#5A83AB" stroke="#332C43" stroke-width="0.695266"/>
<path d="M85.4806 44.0533C86.9059 40.5074 84.2639 37.2744 82.039 36.6487" stroke="#332C43" stroke-width="0.973373" stroke-linecap="square"/>
<path d="M83.6146 43.9989C85.9566 43.1944 87.116 45.2474 87.1597 46.0702C87.3772 47.5143 86.0665 48.521 85.9116 49.5026C85.7661 50.425 85.4447 50.6896 85.0623 50.7547C84.1933 50.9028 83.8403 50.0166 83.8269 49.6953C83.3793 50.9137 82.2381 50.3368 81.995 49.6109C80.4554 50.2602 80.5939 48.3905 80.8556 47.3746C81.0342 46.5183 81.9917 44.5564 83.6146 43.9989Z" fill="#FF9916"/>
<path d="M81.995 49.6109C80.4554 50.2602 80.5939 48.3905 80.8556 47.3746C81.0342 46.5183 81.9917 44.5564 83.6146 43.9989C85.9566 43.1944 87.116 45.2474 87.1597 46.0702C87.3772 47.5143 86.0665 48.521 85.9116 49.5026C85.7661 50.425 85.4447 50.6896 85.0623 50.7547C84.1933 50.9028 83.8403 50.0166 83.8269 49.6953M81.995 49.6109C81.8681 49.2319 81.7334 48.0769 82.7666 47.0897M81.995 49.6109C82.2381 50.3368 83.3793 50.9137 83.8269 49.6953M83.8269 49.6953C83.8068 49.2128 83.9952 48.4105 84.4459 47.7811" stroke="#332C43" stroke-width="0.486686" stroke-linecap="round"/>
<path d="M93.4399 28.0247L81.2033 31.4694L81.2942 31.7791L93.4399 28.0247Z" fill="white"/>
<path d="M75.1587 4.73218L67.5652 14.9274L67.8261 15.1172L75.1587 4.73218Z" fill="white"/>
<path d="M26.1874 8.95312L34.0562 18.9373L34.3074 18.7347L26.1874 8.95312Z" fill="white"/>
<path d="M28.6998 73.1553L36.333 62.99L36.0728 62.7991L28.6998 73.1553Z" fill="white"/>
<path d="M78.5076 73.4799L70.8742 63.3145L71.1344 63.1235L78.5076 73.4799Z" fill="white"/>
<path d="M83.1844 21.4893C82.858 21.4893 82.5934 21.2247 82.5934 20.8983C82.5934 20.572 82.858 20.3074 83.1844 20.3074C83.5108 20.3074 83.7754 20.572 83.7754 20.8983C83.7754 21.2247 83.5108 21.4893 83.1844 21.4893Z" fill="white"/>
<path d="M22.0347 53.5438C21.8044 53.5438 21.6176 53.357 21.6176 53.1266C21.6176 52.8962 21.8044 52.7095 22.0347 52.7095C22.2651 52.7095 22.4519 52.8962 22.4519 53.1266C22.4519 53.357 22.2651 53.5438 22.0347 53.5438Z" fill="white"/>
<path d="M26.7989 21.213C26.4725 21.213 26.2079 20.9484 26.2079 20.622C26.2079 20.2956 26.4725 20.031 26.7989 20.031C27.1253 20.031 27.3899 20.2956 27.3899 20.622C27.3899 20.9484 27.1253 21.213 26.7989 21.213Z" fill="white"/>
<path d="M79.8478 59.386C79.675 59.386 79.5349 59.2459 79.5349 59.0731C79.5349 58.9003 79.675 58.7603 79.8478 58.7603C80.0206 58.7603 80.1606 58.9003 80.1606 59.0731C80.1606 59.2459 80.0206 59.386 79.8478 59.386Z" fill="white"/>
<path d="M36.3937 67.8638L36.0551 68.5333L35.3856 68.8719L36.0551 69.2105L36.3937 69.88L36.7323 69.2105L37.4019 68.8719L36.7323 68.5333L36.3937 67.8638Z" fill="white"/>
<path d="M36.3937 67.8638L36.0551 68.5333L35.3856 68.8719L36.0551 69.2105L36.3937 69.88L36.7323 69.2105L37.4019 68.8719L36.7323 68.5333L36.3937 67.8638Z" fill="white"/>
<path d="M89.0253 35.3254L88.6867 35.995L88.0172 36.3336L88.6867 36.6722L89.0253 37.3417L89.3639 36.6722L90.0334 36.3336L89.3639 35.995L89.0253 35.3254Z" fill="white"/>
<path d="M22.4884 26.5674L22.1499 27.2369L21.4803 27.5755L22.1499 27.9141L22.4884 28.5837L22.827 27.9141L23.4966 27.5755L22.827 27.2369L22.4884 26.5674Z" fill="white"/>
<path d="M62.8135 5.49854L62.2647 6.58364L61.1796 7.13241L62.2647 7.68119L62.8135 8.76629L63.3623 7.68119L64.4474 7.13241L63.3623 6.58364L62.8135 5.49854Z" fill="white"/>
<path d="M58.8153 38.6648C58.1028 39.7103 55.7595 41.5849 52.0649 41.5849C49.1397 41.5849 47.0021 39.8545 46.4396 38.6648" stroke="#332C43" stroke-width="1.11243" stroke-linecap="round"/>
<path d="M65.0728 39.0804C63.2681 39.0804 61.8051 37.6174 61.8051 35.8127C61.8051 34.0079 63.2681 32.5449 65.0728 32.5449C66.8776 32.5449 68.3406 34.0079 68.3406 35.8127C68.3406 37.6174 66.8776 39.0804 65.0728 39.0804Z" fill="#332C43"/>
<path d="M66.6039 35.7426C66.1431 35.7426 65.7696 35.3535 65.7696 34.8735C65.7696 34.3935 66.1431 34.0044 66.6039 34.0044C67.0647 34.0044 67.4382 34.3935 67.4382 34.8735C67.4382 35.3535 67.0647 35.7426 66.6039 35.7426Z" fill="#FBFBFB"/>
<path d="M65.3859 34.1461C65.2515 34.1461 65.1426 34.0215 65.1426 33.868C65.1426 33.7144 65.2515 33.5898 65.3859 33.5898C65.5203 33.5898 65.6293 33.7144 65.6293 33.868C65.6293 34.0215 65.5203 34.1461 65.3859 34.1461Z" fill="#FBFBFB"/>
<path d="M40.1818 39.43C38.3771 39.43 36.9141 37.967 36.9141 36.1623C36.9141 34.3576 38.3771 32.8945 40.1818 32.8945C41.9866 32.8945 43.4496 34.3576 43.4496 36.1623C43.4496 37.967 41.9866 39.43 40.1818 39.43Z" fill="#332C43"/>
<path d="M41.6783 36.2299C41.1215 36.2299 40.6701 35.7785 40.6701 35.2218C40.6701 34.665 41.1215 34.2136 41.6783 34.2136C42.235 34.2136 42.6864 34.665 42.6864 35.2218C42.6864 35.7785 42.235 36.2299 41.6783 36.2299Z" fill="#FBFBFB"/>
<path d="M40.2529 34.3533C40.0993 34.3533 39.9748 34.2288 39.9748 34.0752C39.9748 33.9216 40.0993 33.7971 40.2529 33.7971C40.4065 33.7971 40.531 33.9216 40.531 34.0752C40.531 34.2288 40.4065 34.3533 40.2529 34.3533Z" fill="#FBFBFB"/>
</g>
<defs>
<filter id="filter0_d_2572_28350" x="26.4036" y="12.522" width="56.0385" height="57.5681" filterUnits="userSpaceOnUse" color-interpolation-filters="sRGB">
<feFlood flood-opacity="0" result="BackgroundImageFix"/>
<feColorMatrix in="SourceAlpha" type="matrix" values="0 0 0 0 0 0 0 0 0 0 0 0 0 0 0 0 0 0 127 0" result="hardAlpha"/>
<feOffset dx="0.764793" dy="2.29438"/>
<feComposite in2="hardAlpha" operator="out"/>
<feColorMatrix type="matrix" values="0 0 0 0 0.988235 0 0 0 0 0.870588 0 0 0 0 0.552941 0 0 0 1 0"/>
<feBlend mode="normal" in2="BackgroundImageFix" result="effect1_dropShadow_2572_28350"/>
<feBlend mode="normal" in="SourceGraphic" in2="effect1_dropShadow_2572_28350" result="shape"/>
</filter>
<linearGradient id="paint0_linear_2572_28350" x1="70.8765" y1="100.248" x2="220.904" y2="45.6421" gradientUnits="userSpaceOnUse">
<stop stop-color="white"/>
<stop offset="0.576923" stop-color="white" stop-opacity="0.25"/>
<stop offset="0.769231" stop-color="white" stop-opacity="0"/>
<stop offset="1" stop-color="white" stop-opacity="0"/>
</linearGradient>
<linearGradient id="paint1_linear_2572_28350" x1="70.8997" y1="100.212" x2="193.203" y2="-2.41262" gradientUnits="userSpaceOnUse">
<stop stop-color="white"/>
<stop offset="0.576923" stop-color="white" stop-opacity="0.25"/>
<stop offset="0.769231" stop-color="white" stop-opacity="0"/>
<stop offset="1" stop-color="white" stop-opacity="0"/>
</linearGradient>
<linearGradient id="paint2_linear_2572_28350" x1="70.7399" y1="100.332" x2="150.568" y2="-37.934" gradientUnits="userSpaceOnUse">
<stop stop-color="white"/>
<stop offset="0.576923" stop-color="white" stop-opacity="0.25"/>
<stop offset="0.769231" stop-color="white" stop-opacity="0"/>
<stop offset="1" stop-color="white" stop-opacity="0"/>
</linearGradient>
<linearGradient id="paint3_linear_2572_28350" x1="70.7337" y1="100.319" x2="98.4576" y2="-56.9113" gradientUnits="userSpaceOnUse">
<stop stop-color="white"/>
<stop offset="0.576923" stop-color="white" stop-opacity="0.25"/>
<stop offset="0.769231" stop-color="white" stop-opacity="0"/>
<stop offset="1" stop-color="white" stop-opacity="0"/>
</linearGradient>
<linearGradient id="paint4_linear_2572_28350" x1="70.878" y1="100.011" x2="43.154" y2="-57.2191" gradientUnits="userSpaceOnUse">
<stop stop-color="white"/>
<stop offset="0.576923" stop-color="white" stop-opacity="0.25"/>
<stop offset="0.769231" stop-color="white" stop-opacity="0"/>
<stop offset="1" stop-color="white" stop-opacity="0"/>
</linearGradient>
<linearGradient id="paint5_linear_2572_28350" x1="71.1997" y1="100.639" x2="-8.62821" y2="-37.6272" gradientUnits="userSpaceOnUse">
<stop stop-color="white"/>
<stop offset="0.576923" stop-color="white" stop-opacity="0.25"/>
<stop offset="0.769231" stop-color="white" stop-opacity="0"/>
<stop offset="1" stop-color="white" stop-opacity="0"/>
</linearGradient>
<linearGradient id="paint6_linear_2572_28350" x1="70.9331" y1="100.212" x2="-51.3703" y2="-2.41305" gradientUnits="userSpaceOnUse">
<stop stop-color="white"/>
<stop offset="0.576923" stop-color="white" stop-opacity="0.25"/>
<stop offset="0.769231" stop-color="white" stop-opacity="0"/>
<stop offset="1" stop-color="white" stop-opacity="0"/>
</linearGradient>
<linearGradient id="paint7_linear_2572_28350" x1="71.3607" y1="100.248" x2="-78.6666" y2="45.6427" gradientUnits="userSpaceOnUse">
<stop stop-color="white"/>
<stop offset="0.576923" stop-color="white" stop-opacity="0.25"/>
<stop offset="0.769231" stop-color="white" stop-opacity="0"/>
<stop offset="1" stop-color="white" stop-opacity="0"/>
</linearGradient>
<radialGradient id="paint8_radial_2572_28350" cx="0" cy="0" r="1" gradientUnits="userSpaceOnUse" gradientTransform="translate(53.8793 39.9851) rotate(90) scale(36.7101)">
<stop offset="0.490385" stop-color="#FFB828"/>
<stop offset="1" stop-color="#FDD886" stop-opacity="0.11"/>
</radialGradient>
<clipPath id="clip0_2572_28350">
<rect width="105" height="84" fill="white"/>
</clipPath>
</defs>
</svg>
