<svg width="136" height="149" viewBox="0 0 136 149" fill="none" xmlns="http://www.w3.org/2000/svg">
<mask id="mask0_3481_19458" style="mask-type:luminance" maskUnits="userSpaceOnUse" x="0" y="-1" width="142" height="150">
<path d="M142 -0.000976562H0V148.616H142V-0.000976562Z" fill="white"/>
</mask>
<g mask="url(#mask0_3481_19458)">
<path d="M70.5297 133.816C92.1661 133.816 109.706 130.548 109.706 126.517C109.706 122.485 92.1661 119.217 70.5297 119.217C48.8934 119.217 31.3537 122.485 31.3537 126.517C31.3537 130.548 48.8934 133.816 70.5297 133.816Z" fill="#7D0C0C" fill-opacity="0.11"/>
<path d="M71.0003 123.724C101.628 123.724 126.456 98.8959 126.456 68.2686C126.456 37.6413 101.628 12.813 71.0003 12.813C40.373 12.813 15.5447 37.6413 15.5447 68.2686C15.5447 98.8959 40.373 123.724 71.0003 123.724Z" fill="url(#paint0_radial_3481_19458)"/>
<path d="M70.843 111.96C94.8866 111.96 114.378 92.4691 114.378 68.4255C114.378 44.3819 94.8866 24.8907 70.843 24.8907C46.7995 24.8907 27.3083 44.3819 27.3083 68.4255C27.3083 92.4691 46.7995 111.96 70.843 111.96Z" stroke="white" stroke-width="1.47041"/>
<path d="M11.2386 50.2039L29.7239 55.4077L29.5865 55.8755L11.2386 50.2039Z" fill="white"/>
<path d="M38.8554 15.0186L50.3265 30.4198L49.9323 30.7066L38.8554 15.0186Z" fill="white"/>
<path d="M112.832 21.3914L100.946 36.4738L100.566 36.1678L112.832 21.3914Z" fill="white"/>
<path d="M109.037 118.381L97.5058 103.025L97.8989 102.736L109.037 118.381Z" fill="white"/>
<path d="M33.7963 118.867L45.3276 103.511L44.9345 103.222L33.7963 118.867Z" fill="white"/>
<path d="M26.7299 40.3312C27.223 40.3312 27.6227 39.9315 27.6227 39.4384C27.6227 38.9454 27.223 38.5457 26.7299 38.5457C26.2369 38.5457 25.8372 38.9454 25.8372 39.4384C25.8372 39.9315 26.2369 40.3312 26.7299 40.3312Z" fill="white"/>
<path d="M119.104 88.75C119.452 88.75 119.734 88.4678 119.734 88.1198C119.734 87.7718 119.452 87.4896 119.104 87.4896C118.756 87.4896 118.474 87.7718 118.474 88.1198C118.474 88.4678 118.756 88.75 119.104 88.75Z" fill="white"/>
<path d="M111.909 39.9104C112.402 39.9104 112.802 39.5107 112.802 39.0176C112.802 38.5246 112.402 38.1249 111.909 38.1249C111.416 38.1249 111.017 38.5246 111.017 39.0176C111.017 39.5107 111.416 39.9104 111.909 39.9104Z" fill="white"/>
<path d="M31.7717 97.5716C32.0327 97.5716 32.2443 97.36 32.2443 97.099C32.2443 96.8379 32.0327 96.6263 31.7717 96.6263C31.5106 96.6263 31.299 96.8379 31.299 97.099C31.299 97.36 31.5106 97.5716 31.7717 97.5716Z" fill="white"/>
<path d="M97.4153 110.386L97.9268 111.398L98.9383 111.909L97.9268 112.421L97.4153 113.432L96.9038 112.421L95.8924 111.909L96.9038 111.398L97.4153 110.386Z" fill="white"/>
<path d="M97.4153 110.386L97.9268 111.398L98.9383 111.909L97.9268 112.421L97.4153 113.432L96.9038 112.421L95.8924 111.909L96.9038 111.398L97.4153 110.386Z" fill="white"/>
<path d="M20.1136 65.6434L20.6251 66.6549L21.6365 67.1664L20.6251 67.6779L20.1136 68.6893L19.6021 67.6779L18.5907 67.1664L19.6021 66.6549L20.1136 65.6434Z" fill="white"/>
<path d="M123.252 68.0587L123.764 69.0702L124.775 69.5816L123.764 70.0931L123.252 71.1046L122.741 70.0931L121.729 69.5816L122.741 69.0702L123.252 68.0587Z" fill="white"/>
<path d="M57.5036 16.1737L58.3326 17.8129L59.9718 18.6419L58.3326 19.4709L57.5036 21.1101L56.6746 19.4709L55.0354 18.6419L56.6746 17.8129L57.5036 16.1737Z" fill="white"/>
<path d="M84.0245 102.508C85.0236 104.254 87.1137 108.467 87.4812 111.351C87.8486 114.234 87.0864 117.749 86.6593 119.145" stroke="#332C43" stroke-width="1.47041" stroke-linecap="round"/>
<path d="M86.1709 118.155C84.4432 117.329 83.4254 119.271 84.7633 119.979C87.1826 121.26 90.7367 123.507 93.036 122.842C93.9435 122.581 95.1924 121.304 94.3961 120.414C93.5998 119.523 89.1668 119.586 86.1709 118.155Z" fill="#332C43" stroke="#332C43" stroke-width="0.735207" stroke-linecap="round"/>
<path d="M58.8622 101.353C57.8439 103.132 55.7139 107.425 55.3395 110.364C54.965 113.302 55.7418 116.884 56.1771 118.307" stroke="#332C43" stroke-width="1.47041" stroke-linecap="round"/>
<path d="M54.9642 117.651C56.5713 116.665 57.8076 118.482 56.5713 119.313C54.3357 120.816 51.2863 124.079 48.9374 123.652C48.0102 123.483 46.4339 121.651 47.1139 120.693C47.7939 119.735 52.1776 119.36 54.9642 117.651Z" fill="#332C43" stroke="#332C43" stroke-width="0.735207" stroke-linecap="round"/>
<g filter="url(#filter0_d_3481_19458)">
<path d="M70.7571 110.28C93.8146 110.28 112.506 91.5882 112.506 68.5308C112.506 45.4733 93.8146 26.7815 70.7571 26.7815C47.6997 26.7815 29.0079 45.4733 29.0079 68.5308C29.0079 91.5882 47.6997 110.28 70.7571 110.28Z" fill="#FFAF16"/>
</g>
<path d="M70.7572 110.806C94.1047 110.806 113.032 91.8789 113.032 68.5314C113.032 45.1839 94.1047 26.257 70.7572 26.257C47.4097 26.257 28.4828 45.1839 28.4828 68.5314C28.4828 91.8789 47.4097 110.806 70.7572 110.806Z" stroke="#332C43" stroke-width="1.0503"/>
<path d="M32.4744 51.764C31.9324 70.6549 44.1757 87.5594 65.0954 90.5491C91.0404 94.2568 114.316 70.0173 108.414 50.4823C109.518 52.8015 110.423 55.256 111.102 57.8306C116.983 80.1255 103.676 102.966 81.3812 108.847C59.0863 114.728 36.2455 101.421 30.365 79.1259C27.8674 69.6566 28.831 60.0889 32.4744 51.764Z" fill="#FF9916"/>
<path d="M72.8769 95.2596C59.0854 97.0849 46.3848 89.9762 41.7585 86.1937C45.4884 90.5902 55.0653 99.9576 71.8755 99.4882C85.3236 99.1126 98.8386 88.9783 103.915 83.958C94.9444 98.5573 76.3895 101.507 68.2333 101.157C41.7403 99.3094 32.9363 80.2614 31.8459 70.9682C32.531 81.9729 41.1543 103.967 70.1673 103.903C99.1802 103.84 109.306 79.9402 110.743 67.9984C104.259 86.9822 90.1162 92.9779 72.8769 95.2596Z" fill="#FE7800"/>
<path d="M28.2621 68.5483C22.4554 69.0378 13.9019 65.7822 16.609 54.5413" stroke="#332C43" stroke-width="1.47041" stroke-linecap="round"/>
<path d="M14.375 50.2068C13.8169 53.9057 16.1633 54.9631 17.4063 55.0294C19.5769 55.3569 20.9009 52.5453 21.4119 51.7413C20.0821 53.8339 22.8 54.8747 23.9403 51.887C24.9029 49.3647 23.5144 47.9364 22.5224 47.9484C23.5727 47.2132 22.5224 46.2154 22.2598 46.1103C23.2576 44.2723 20.4886 44.3794 18.9537 44.7743C18.1427 44.9433 16.7684 45.5817 15.7182 46.946C15.0934 47.7578 14.5833 48.8267 14.375 50.2068Z" fill="#FF9916"/>
<path d="M22.2598 46.1103C23.2576 44.2723 20.4886 44.3794 18.9537 44.7743C18.1427 44.9433 16.7684 45.5817 15.7182 46.946C15.0934 47.7578 14.5833 48.8267 14.375 50.2068C13.8169 53.9057 16.1633 54.9631 17.4063 55.0294C19.5877 55.3585 20.9142 52.5171 21.4196 51.7294C20.0719 53.8299 22.7979 54.8803 23.9403 51.887C24.9029 49.3647 23.5144 47.9364 22.5224 47.9484M22.2598 46.1103C21.7347 45.8478 19.8966 45.8597 18.6888 46.793M22.2598 46.1103C22.5224 46.2154 23.5727 47.2132 22.5224 47.9484M22.5224 47.9484C22.0757 47.9618 20.2642 48.1059 19.529 49.3663" stroke="#332C43" stroke-width="0.735207" stroke-linecap="round"/>
<path d="M19.2198 57.135C19.4298 56.7569 19.27 56.3481 19.095 56.208C18.6924 56.4532 17.5826 56.8803 16.3642 56.6282C15.1459 56.3762 14.4584 55.4021 14.1783 54.9295C13.7582 54.8245 13.3381 54.9294 13.3381 55.297C13.3381 55.6121 13.1083 55.8221 13.1083 56.4181C13.2309 56.9082 13.8107 58.1748 15.2812 58.5529C17.1192 59.0255 18.8324 58.3611 18.8849 58.2036C18.9374 58.046 18.9572 57.6076 19.2198 57.135Z" fill="#320D87" stroke="#332C43" stroke-width="0.630178"/>
<path d="M19.7446 55.6641C19.9547 55.286 19.6571 54.9114 19.482 54.7714C19.0795 55.0164 17.9696 55.4436 16.7513 55.1915C15.5329 54.9394 14.6682 53.9312 14.3881 53.4585C13.968 53.3535 13.9155 53.7211 13.9155 54.0887C13.9155 54.4038 13.688 54.8064 13.4954 54.9815C13.6179 55.4716 14.2306 56.5464 15.701 56.9245C17.539 57.3971 19.2195 56.9245 19.272 56.767L19.2721 56.7667C19.3246 56.609 19.4822 56.1366 19.7446 55.6641Z" fill="#C3A9FF" stroke="#332C43" stroke-width="0.630178"/>
<path d="M113.33 68.5483C119.137 69.0378 127.691 65.7822 124.983 54.5413" stroke="#332C43" stroke-width="1.47041" stroke-linecap="round"/>
<path d="M127.099 50.3659C127.658 54.0648 125.311 55.1223 124.068 55.1885C121.898 55.516 120.573 52.7044 120.062 51.9005C121.393 53.9931 118.674 55.0338 117.534 52.0462C116.572 49.5238 117.96 48.0956 118.952 48.1075C117.901 47.3723 118.952 46.3746 119.214 46.2695C118.216 44.4315 120.986 44.5385 122.521 44.9334C123.331 45.1024 124.706 45.7409 125.755 47.1051C126.38 47.917 126.891 48.9859 127.099 50.3659Z" fill="#FF9916"/>
<path d="M119.214 46.2695C118.216 44.4315 120.986 44.5385 122.521 44.9334C123.331 45.1024 124.706 45.7409 125.755 47.1051C126.38 47.917 126.891 48.9859 127.099 50.3659C127.658 54.0648 125.311 55.1223 124.068 55.1885C121.886 55.5177 120.56 52.6763 120.054 51.8886C121.402 53.9891 118.677 55.0395 117.534 52.0462C116.572 49.5238 117.96 48.0956 118.952 48.1075M119.214 46.2695C119.739 46.007 121.577 46.0189 122.785 46.9522M119.214 46.2695C118.952 46.3746 117.901 47.3723 118.952 48.1075M118.952 48.1075C119.399 48.121 121.21 48.2651 121.945 49.5254" stroke="#332C43" stroke-width="0.735207" stroke-linecap="round"/>
<path d="M122.254 57.2931C122.044 56.9149 122.204 56.5061 122.379 56.3661C122.782 56.6111 123.892 57.0383 125.11 56.7862C126.328 56.5341 127.015 55.5602 127.296 55.0874C127.716 54.9824 128.136 55.0874 128.136 55.455C128.136 55.7701 128.366 55.9802 128.366 56.5761C128.243 57.0663 127.663 58.3328 126.193 58.711C124.355 59.1836 122.642 58.5192 122.589 58.3616C122.537 58.2041 122.517 57.7657 122.254 57.2931Z" fill="#320D87" stroke="#332C43" stroke-width="0.630178"/>
<path d="M121.73 55.8221C121.52 55.444 121.817 55.0694 121.992 54.9294C122.395 55.1744 123.505 55.6015 124.723 55.3495C125.942 55.0974 126.806 54.0891 127.086 53.6165C127.507 53.5115 127.559 53.8791 127.559 54.2467C127.559 54.5617 127.786 54.9643 127.979 55.1394C127.856 55.6295 127.244 56.7044 125.774 57.0825C123.936 57.5551 122.255 57.0825 122.203 56.9249V56.9247C122.15 56.7669 121.992 56.2945 121.73 55.8221Z" fill="#C3A9FF" stroke="#332C43" stroke-width="0.630178"/>
<path d="M40.3316 70.4198C44.1599 71.4456 47.6842 70.7068 48.2033 68.7695C48.7224 66.8323 46.0397 64.4303 42.2113 63.4045C38.383 62.3787 34.8587 63.1176 34.3396 65.0548C33.8206 66.992 36.5032 69.394 40.3316 70.4198Z" fill="#F05D0E"/>
<path d="M101.535 70.8524C105.121 69.8915 107.607 67.542 107.088 65.6048C106.569 63.6676 103.241 62.8761 99.6548 63.8371C96.0685 64.798 93.582 67.1475 94.101 69.0847C94.6201 71.0219 97.9482 71.8134 101.535 70.8524Z" fill="#F05D0E"/>
<path d="M51.8848 63.1225C54.6111 63.1225 56.8212 60.9124 56.8212 58.1861C56.8212 55.4599 54.6111 53.2498 51.8848 53.2498C49.1586 53.2498 46.9485 55.4599 46.9485 58.1861C46.9485 60.9124 49.1586 63.1225 51.8848 63.1225Z" fill="#332C43"/>
<path d="M49.5738 58.0809C50.2699 58.0809 50.8342 57.4931 50.8342 56.7681C50.8342 56.043 50.2699 55.4552 49.5738 55.4552C48.8778 55.4552 48.3135 56.043 48.3135 56.7681C48.3135 57.4931 48.8778 58.0809 49.5738 58.0809Z" fill="#FBFBFB"/>
<path d="M51.4123 55.6648C51.6153 55.6648 51.7799 55.4767 51.7799 55.2447C51.7799 55.0127 51.6153 54.8246 51.4123 54.8246C51.2093 54.8246 51.0447 55.0127 51.0447 55.2447C51.0447 55.4767 51.2093 55.6648 51.4123 55.6648Z" fill="#FBFBFB"/>
<path d="M89.4854 63.6471C92.2117 63.6471 94.4218 61.437 94.4218 58.7107C94.4218 55.9844 92.2117 53.7743 89.4854 53.7743C86.7591 53.7743 84.549 55.9844 84.549 58.7107C84.549 61.437 86.7591 63.6471 89.4854 63.6471Z" fill="#332C43"/>
<path d="M87.2272 58.8159C88.0682 58.8159 88.7501 58.134 88.7501 57.2929C88.7501 56.4519 88.0682 55.77 87.2272 55.77C86.3861 55.77 85.7042 56.4519 85.7042 57.2929C85.7042 58.134 86.3861 58.8159 87.2272 58.8159Z" fill="#FBFBFB"/>
<path d="M89.3807 55.9795C89.6127 55.9795 89.8008 55.7914 89.8008 55.5594C89.8008 55.3274 89.6127 55.1393 89.3807 55.1393C89.1487 55.1393 88.9606 55.3274 88.9606 55.5594C88.9606 55.7914 89.1487 55.9795 89.3807 55.9795Z" fill="#FBFBFB"/>
<path d="M61.3372 62.4913C62.4135 64.0707 65.9533 66.9026 71.5346 66.9026C75.9535 66.9026 79.1826 64.2885 80.0324 62.4913" stroke="#332C43" stroke-width="1.68047" stroke-linecap="round"/>
<path d="M70.236 33.6199C76.4306 33.6199 84.5445 34.7334 91.3433 36.0715C94.741 36.7402 97.8035 37.4637 100.126 38.1297C101.289 38.4629 102.261 38.7802 102.996 39.0677C103.363 39.2113 103.667 39.3459 103.904 39.4693C104.115 39.5795 104.258 39.6733 104.344 39.7475L104.377 39.7781C105.885 41.255 107.623 43.8492 109.081 46.3118C110.491 48.6939 111.617 50.915 111.997 51.8158L112.032 51.8989C112.173 52.2451 112.284 52.518 112.365 52.7343C112.404 52.8373 112.434 52.923 112.456 52.9942C110.869 52.1124 106.319 50.2412 99.425 48.5506C92.1162 46.7582 82.1499 45.1629 70.236 45.1629C51.1977 45.1629 34.894 50.4012 29.0713 53.0431C29.062 53.0453 29.0541 53.0469 29.0474 53.0479C29.0437 53.0322 29.0396 53.0089 29.0374 52.9757C29.0223 52.75 29.1041 52.3448 29.3014 51.7734C29.6882 50.6537 30.4558 49.0672 31.4009 47.3972C32.3445 45.7301 33.4565 43.9949 34.5245 42.579C35.0586 41.871 35.5787 41.2468 36.0586 40.7523C36.5124 40.2846 36.9157 39.9481 37.2495 39.7607L37.3153 39.7252C37.7574 39.4973 39.0617 38.9997 41.0358 38.378C43.0005 37.7594 45.6084 37.0242 48.6437 36.319C54.7163 34.9082 62.488 33.6199 70.236 33.6199Z" fill="url(#paint1_linear_3481_19458)" stroke="#332C43" stroke-width="0.630178"/>
<path d="M70.3397 33.6199C76.5375 33.6199 84.6557 34.737 91.4581 36.0793C94.8577 36.7503 97.9217 37.476 100.246 38.1442C101.409 38.4784 102.381 38.7969 103.117 39.0852C103.484 39.2294 103.788 39.3643 104.025 39.488C104.236 39.5986 104.379 39.6927 104.465 39.7673L104.499 39.7979C105.751 41.0269 107.662 43.7742 109.135 46.3775C97.7393 42.3947 88.1584 39.2581 70.3397 39.2581C52.9936 39.2581 40.028 43.8927 31.4033 47.5801C32.4926 45.5351 33.6347 43.8047 34.6625 42.4829C35.2408 41.7394 35.7807 41.1278 36.2524 40.6634C36.6988 40.2239 37.0711 39.9292 37.3479 39.7741L37.402 39.745C37.8443 39.5162 39.1491 39.0169 41.1243 38.3934C43.09 37.7726 45.6993 37.0351 48.7362 36.3276C54.812 34.9123 62.5878 33.6199 70.3397 33.6199Z" fill="url(#paint2_linear_3481_19458)" stroke="#332C43" stroke-width="0.630178"/>
</g>
<defs>
<filter id="filter0_d_3481_19458" x="29.0079" y="26.7815" width="83.4985" height="86.9645" filterUnits="userSpaceOnUse" color-interpolation-filters="sRGB">
<feFlood flood-opacity="0" result="BackgroundImageFix"/>
<feColorMatrix in="SourceAlpha" type="matrix" values="0 0 0 0 0 0 0 0 0 0 0 0 0 0 0 0 0 0 127 0" result="hardAlpha"/>
<feOffset dy="3.46598"/>
<feComposite in2="hardAlpha" operator="out"/>
<feColorMatrix type="matrix" values="0 0 0 0 0.988235 0 0 0 0 0.870588 0 0 0 0 0.552941 0 0 0 1 0"/>
<feBlend mode="normal" in2="BackgroundImageFix" result="effect1_dropShadow_3481_19458"/>
<feBlend mode="normal" in="SourceGraphic" in2="effect1_dropShadow_3481_19458" result="shape"/>
</filter>
<radialGradient id="paint0_radial_3481_19458" cx="0" cy="0" r="1" gradientUnits="userSpaceOnUse" gradientTransform="translate(71.0003 68.2686) rotate(90) scale(55.4556)">
<stop offset="0.490385" stop-color="#FFB828"/>
<stop offset="1" stop-color="#FDD886" stop-opacity="0.11"/>
</radialGradient>
<linearGradient id="paint1_linear_3481_19458" x1="28.7206" y1="43.3586" x2="112.828" y2="43.3586" gradientUnits="userSpaceOnUse">
<stop offset="0.211538" stop-color="#320D87"/>
<stop offset="0.504808" stop-color="#3B0F9E"/>
<stop offset="0.769231" stop-color="#320D87"/>
</linearGradient>
<linearGradient id="paint2_linear_3481_19458" x1="30.7165" y1="40.7619" x2="109.809" y2="40.7619" gradientUnits="userSpaceOnUse">
<stop offset="0.331731" stop-color="#C3A9FF"/>
<stop offset="0.504808" stop-color="#C3A9FF"/>
<stop offset="0.673077" stop-color="#C3A9FF"/>
</linearGradient>
</defs>
</svg>
