<svg width="52" height="111" viewBox="0 0 52 111" fill="none" xmlns="http://www.w3.org/2000/svg">
<rect x="1" y="60" width="50.8" height="50.8" rx="25.4" fill="#C58219"/>
<rect x="0.75293" y="56.5996" width="50.8" height="50.8" rx="25.4" fill="#FFD93B"/>
<path d="M38.638 77.6797C38.864 77.6797 39.0349 77.7596 39.1506 77.9195C39.2719 78.0738 39.3325 78.2557 39.3325 78.4652V79.2258C39.768 78.8235 40.2476 78.4652 40.7712 78.151C41.2949 77.8368 41.813 77.6797 42.3256 77.6797C42.8603 77.6797 43.3041 77.812 43.6568 78.0766C44.0096 78.3411 44.2742 78.6857 44.4506 79.1101C44.6325 79.5345 44.7234 79.992 44.7234 80.4826V83.9222C44.7234 84.0765 44.7289 84.2281 44.74 84.377C44.7565 84.5258 44.8171 84.6663 44.9219 84.7986C45.0486 84.9585 45.1589 85.0825 45.2526 85.1707C45.3518 85.2589 45.4014 85.4215 45.4014 85.6585C45.4014 85.9011 45.327 86.0885 45.1782 86.2208C45.0294 86.3475 44.8364 86.4109 44.5994 86.4109H41.1433C40.9118 86.4109 40.7326 86.342 40.6059 86.2042C40.4846 86.0664 40.424 85.8845 40.424 85.6585C40.424 85.4491 40.4708 85.2865 40.5645 85.1707C40.6637 85.0494 40.7602 84.9254 40.8539 84.7986C40.9531 84.6663 41.0027 84.4817 41.0027 84.2447V81.3756C41.0027 81.1165 40.9504 80.863 40.8456 80.6149C40.7464 80.3669 40.537 80.2428 40.2172 80.2428C40.0243 80.2428 39.859 80.2814 39.7212 80.3586C39.5833 80.4303 39.4538 80.524 39.3325 80.6397V84.0214C39.3325 84.1702 39.3381 84.3218 39.3491 84.4762C39.3601 84.625 39.4152 84.7628 39.5144 84.8896C39.6302 85.0274 39.7267 85.1404 39.8038 85.2286C39.881 85.3113 39.9196 85.4546 39.9196 85.6585C39.9196 85.8845 39.8562 86.0664 39.7294 86.2042C39.6082 86.342 39.4318 86.4109 39.2003 86.4109H35.7441C35.5071 86.4109 35.3142 86.3475 35.1654 86.2208C35.0165 86.0885 34.9421 85.9011 34.9421 85.6585C34.9421 85.4766 34.9752 85.3361 35.0413 85.2368C35.113 85.1321 35.1929 85.0357 35.2811 84.9475C35.3693 84.8593 35.4465 84.7518 35.5126 84.625C35.5843 84.4982 35.6201 84.3246 35.6201 84.1041V81.0366C35.6201 80.7885 35.5815 80.6011 35.5044 80.4743C35.4272 80.3476 35.3362 80.2484 35.2315 80.1767C35.1268 80.0995 35.0358 80.0168 34.9587 79.9286C34.8815 79.8405 34.8429 79.7082 34.8429 79.5318C34.8429 79.3168 34.9146 79.1487 35.0579 79.0274C35.2012 78.9006 35.361 78.8014 35.5374 78.7298L37.3234 78.0104C37.5328 77.9222 37.745 77.8451 37.96 77.7789C38.1805 77.7128 38.4065 77.6797 38.638 77.6797Z" fill="#27232C"/>
<path d="M32.6188 77.6792C32.8448 77.6792 33.0184 77.7563 33.1397 77.9107C33.2665 78.065 33.3299 78.2497 33.3299 78.4646V83.9217C33.3299 84.076 33.3354 84.2331 33.3464 84.393C33.3629 84.5473 33.4263 84.6824 33.5366 84.7981C33.6799 84.9525 33.7984 85.0737 33.8921 85.1619C33.9913 85.2501 34.0409 85.4155 34.0409 85.658C34.0409 85.9005 33.9637 86.088 33.8094 86.2202C33.6606 86.347 33.4677 86.4104 33.2306 86.4104H29.7166C29.4796 86.4104 29.2839 86.347 29.1296 86.2202C28.9808 86.0935 28.9063 85.9061 28.9063 85.658C28.9063 85.421 28.9532 85.2556 29.0469 85.1619C29.1406 85.0627 29.2619 84.9414 29.4107 84.7981C29.521 84.6879 29.5816 84.5501 29.5926 84.3847C29.6091 84.2193 29.6174 84.065 29.6174 83.9217V81.0361C29.6174 80.9258 29.6091 80.8128 29.5926 80.6971C29.5761 80.5758 29.5292 80.4738 29.4521 80.3911C29.43 80.3636 29.4024 80.3415 29.3694 80.325C29.3418 80.3085 29.317 80.2892 29.295 80.2671C29.1737 80.1403 29.0607 80.0384 28.956 79.9612C28.8567 79.8785 28.8071 79.7352 28.8071 79.5312C28.8071 79.3108 28.876 79.1399 29.0138 79.0186C29.1516 78.8974 29.3142 78.8009 29.5017 78.7292L31.2876 78.0099C31.4971 77.9272 31.7148 77.8528 31.9408 77.7867C32.1668 77.715 32.3928 77.6792 32.6188 77.6792ZM31.3785 77.6461C31.0258 77.6461 30.6702 77.5937 30.3119 77.489C29.9537 77.3843 29.6532 77.2106 29.4107 76.9681C29.1737 76.7201 29.0552 76.3866 29.0552 75.9676C29.0552 75.5487 29.1764 75.2207 29.419 74.9837C29.6615 74.7412 29.9619 74.5703 30.3202 74.4711C30.6785 74.3719 31.0313 74.3223 31.3785 74.3223C31.7258 74.3223 32.0786 74.3719 32.4369 74.4711C32.8007 74.5703 33.1039 74.7412 33.3464 74.9837C33.5944 75.2207 33.7185 75.5487 33.7185 75.9676C33.7185 76.3921 33.5972 76.7283 33.3547 76.9764C33.1121 77.2189 32.809 77.3925 32.4452 77.4973C32.0869 77.5965 31.7313 77.6461 31.3785 77.6461Z" fill="#27232C"/>
<path d="M21.1921 77.6797C21.5118 77.6797 21.7103 77.7954 21.7874 78.027C21.8701 78.253 21.9115 78.4927 21.9115 78.7463C21.9115 78.7794 21.9115 78.8097 21.9115 78.8372C22.2477 78.4955 22.628 78.2171 23.0525 78.0021C23.4769 77.7872 23.951 77.6797 24.4746 77.6797C25.0479 77.6797 25.5495 77.801 25.9794 78.0435C26.4094 78.286 26.7649 78.6085 27.046 79.0109C27.3327 79.4133 27.5476 79.8653 27.691 80.3669C27.8343 80.863 27.9059 81.3673 27.9059 81.8799C27.9059 82.7288 27.7378 83.5171 27.4016 84.2447C27.0653 84.9668 26.5775 85.5483 25.9381 85.9893C25.3042 86.4302 24.5352 86.6507 23.6312 86.6507C23.058 86.6507 22.5398 86.5322 22.0768 86.2952V87.1882C22.0768 87.3811 22.0823 87.5271 22.0934 87.6264C22.1044 87.7311 22.1375 87.8248 22.1926 87.9075C22.2477 87.9957 22.3414 88.1114 22.4737 88.2548C22.5784 88.365 22.6556 88.4642 22.7052 88.5524C22.7548 88.6406 22.7796 88.7646 22.7796 88.9245C22.7796 89.1615 22.7025 89.3462 22.5481 89.4785C22.3938 89.6107 22.2008 89.6769 21.9693 89.6769H18.4471C18.21 89.6769 18.0144 89.6135 17.86 89.4867C17.7057 89.3599 17.6285 89.1725 17.6285 88.9245C17.6285 88.726 17.6643 88.5772 17.736 88.478C17.8132 88.3788 17.8986 88.2906 17.9923 88.2134C18.086 88.1362 18.1687 88.0343 18.2404 87.9075C18.3175 87.7807 18.3561 87.5933 18.3561 87.3452V81.0366C18.3561 80.783 18.3148 80.5956 18.2321 80.4743C18.1494 80.3476 18.053 80.2511 17.9427 80.185C17.8325 80.1133 17.736 80.0334 17.6533 79.9452C17.5706 79.857 17.5293 79.7192 17.5293 79.5318C17.5293 79.3223 17.601 79.1542 17.7443 79.0274C17.8931 78.9006 18.053 78.8014 18.2238 78.7298L19.8609 78.0104C20.0704 77.9167 20.2854 77.8395 20.5059 77.7789C20.7319 77.7128 20.9606 77.6797 21.1921 77.6797ZM22.7383 79.8294C22.5013 79.8294 22.2808 79.9094 22.0768 80.0692V84.4348C22.1816 84.5341 22.2973 84.614 22.4241 84.6746C22.5509 84.7352 22.6914 84.7656 22.8458 84.7656C23.1159 84.7656 23.3308 84.6774 23.4907 84.501C23.6561 84.3191 23.7801 84.0931 23.8628 83.823C23.951 83.5529 24.0088 83.28 24.0364 83.0044C24.064 82.7288 24.0777 82.4918 24.0777 82.2934C24.0777 82.0784 24.0612 81.8331 24.0281 81.5575C23.9951 81.2764 23.9317 81.0063 23.838 80.7472C23.7442 80.4826 23.6092 80.2649 23.4328 80.094C23.2564 79.9176 23.0249 79.8294 22.7383 79.8294Z" fill="#27232C"/>
<path d="M11.7911 86.6507C11.5596 86.6507 11.328 86.6397 11.0965 86.6176C10.865 86.5956 10.6363 86.5653 10.4103 86.5267C10.3111 86.5102 10.2118 86.4936 10.1126 86.4771C10.0134 86.4661 9.91142 86.4605 9.80669 86.4605C9.57518 86.4605 9.34918 86.5019 9.12869 86.5846C8.90821 86.6673 8.68221 86.7086 8.4507 86.7086C8.131 86.7086 7.90775 86.6204 7.78097 86.444C7.65971 86.2676 7.56876 86.0389 7.50812 85.7577C7.43646 85.416 7.36756 85.0715 7.30142 84.7242C7.24078 84.377 7.17739 84.0324 7.11125 83.6907C7.09471 83.6245 7.08644 83.5556 7.08644 83.484C7.08644 83.2249 7.18015 83.0237 7.36756 82.8804C7.56049 82.7371 7.77546 82.6654 8.01248 82.6654C8.22746 82.6654 8.41211 82.7371 8.56646 82.8804C8.72631 83.0237 8.8834 83.2029 9.03774 83.4178C9.19208 83.6328 9.36847 83.8478 9.56691 84.0628C9.77086 84.2722 10.0244 84.4486 10.3276 84.5919C10.6363 84.7352 11.0221 84.8069 11.4851 84.8069C11.7607 84.8069 12.0391 84.7463 12.3202 84.625C12.6069 84.4982 12.7502 84.2667 12.7502 83.9305C12.7502 83.699 12.6813 83.5198 12.5435 83.393C12.4112 83.2607 12.2486 83.1588 12.0556 83.0871C11.8627 83.0099 11.6781 82.9465 11.5017 82.8969C10.9229 82.7261 10.3607 82.5331 9.81496 82.3182C9.26925 82.0977 8.77592 81.8248 8.33494 81.4996C7.89948 81.1744 7.55222 80.7692 7.29315 80.2842C7.03408 79.7991 6.90454 79.2038 6.90454 78.4982C6.90454 77.6824 7.09471 76.9989 7.47505 76.4477C7.8609 75.891 8.37353 75.4721 9.01294 75.191C9.65235 74.9043 10.3524 74.761 11.1131 74.761C11.3391 74.761 11.5623 74.772 11.7828 74.7941C12.0088 74.8161 12.232 74.8547 12.4525 74.9098C12.6344 74.9539 12.8163 75.0035 12.9982 75.0587C13.1856 75.1083 13.3731 75.1331 13.5605 75.1331C13.7699 75.1331 13.9573 75.0614 14.1227 74.9181C14.2881 74.7748 14.4838 74.7031 14.7098 74.7031C14.9413 74.7031 15.1259 74.772 15.2637 74.9098C15.407 75.0421 15.52 75.2075 15.6027 75.4059C15.6909 75.5989 15.7626 75.7863 15.8177 75.9682L16.4792 78.0766C16.5177 78.2089 16.537 78.3301 16.537 78.4404C16.537 78.7105 16.4406 78.9254 16.2476 79.0853C16.0547 79.2451 15.8287 79.3251 15.5696 79.3251C15.3326 79.3251 15.1562 79.2644 15.0405 79.1432C14.9247 79.0164 14.809 78.862 14.6932 78.6801C14.3239 78.1069 13.9105 77.6218 13.453 77.2249C12.9955 76.8281 12.3974 76.6296 11.6588 76.6296C11.3887 76.6296 11.1406 76.6985 10.9146 76.8363C10.6941 76.9741 10.5839 77.1946 10.5839 77.4978C10.5839 77.7624 10.6666 77.9746 10.832 78.1344C11.0028 78.2888 11.2068 78.4128 11.4438 78.5065C11.6808 78.5947 11.9013 78.6719 12.1053 78.738C12.6399 78.9089 13.1553 79.1018 13.6514 79.3168C14.1475 79.5318 14.5912 79.7964 14.9826 80.1105C15.3795 80.4247 15.6909 80.8106 15.9169 81.2681C16.1484 81.7256 16.2642 82.2768 16.2642 82.9217C16.2642 83.5446 16.1374 84.0903 15.8838 84.5589C15.6358 85.0274 15.2996 85.416 14.8751 85.7247C14.4507 86.0334 13.9711 86.2649 13.4364 86.4192C12.9018 86.5735 12.3533 86.6507 11.7911 86.6507Z" fill="#27232C"/>
<path d="M20.2263 58.2931L26.153 0.719727L32.0797 58.2931H20.2263Z" fill="#FFD93B"/>
</svg>
