<svg width="141" height="46" viewBox="0 0 141 46" fill="none" xmlns="http://www.w3.org/2000/svg">
<path d="M44.4365 9.375C48.0758 9.37506 51.1876 10.6636 53.7715 13.2393C56.3552 15.8149 57.6483 18.9164 57.6484 22.5439C57.6484 26.1717 56.3553 29.2739 53.7715 31.8496C51.1876 34.4267 48.0758 35.7138 44.4365 35.7139C42.0484 35.7139 40.0756 35.3211 38.5127 34.54H38.5107C38.4748 34.5214 38.4398 34.5045 38.4053 34.4873C37.9233 34.2104 36.1703 32.8932 37.1104 30.6289C37.9961 28.4961 39.7631 28.8157 41.168 29.3633C42.1571 29.8319 43.247 30.0664 44.4346 30.0664C46.5296 30.0664 48.3188 29.3288 49.8027 27.8496C51.2852 26.3704 52.0273 24.6022 52.0273 22.498C52.0272 20.3941 51.285 18.6041 49.8027 17.125C48.3346 15.6615 46.5454 14.9307 44.4346 14.9307C42.3238 14.9307 40.5264 15.6616 39.0439 17.125C37.5947 18.5855 36.8625 20.3498 36.8438 22.418V22.5156L36.8369 33.4395C36.8398 33.4495 36.8423 33.4583 36.8438 33.4697V42.3447C36.8438 43.0914 36.5692 43.7391 36.0186 44.2881C35.4678 44.8371 34.8175 45.1113 34.0684 45.1113H34C33.2508 45.1113 32.6005 44.8371 32.0498 44.2881C31.4993 43.7392 31.2246 43.0914 31.2246 42.3447V22.498C31.2405 18.8561 32.5402 15.7614 35.124 13.2158C37.6922 10.6544 40.7971 9.375 44.4365 9.375ZM74.0703 9.37598C77.7096 9.37598 80.8214 10.6647 83.4053 13.2402C85.9892 15.816 87.2822 18.9195 87.2822 22.5459C87.2822 26.1723 85.9892 29.2758 83.4053 31.8516C80.8214 34.4271 77.7096 35.7158 74.0703 35.7158C70.4311 35.7158 67.3192 34.4286 64.7354 31.8516C62.1514 29.2758 60.8584 26.1737 60.8584 22.5459C60.8584 18.9181 62.1514 15.816 64.7354 13.2402C67.3192 10.6646 70.431 9.37603 74.0703 9.37598ZM127.788 9.37598C131.427 9.37598 134.54 10.6645 137.124 13.2402C139.708 15.816 141 18.9195 141 22.5459C141 26.1723 139.708 29.2758 137.124 31.8516C134.54 34.4273 131.427 35.7158 127.788 35.7158C124.149 35.7157 121.037 34.4286 118.453 31.8516C115.869 29.2758 114.577 26.1737 114.577 22.5459C114.577 18.9181 115.869 15.816 118.453 13.2402C121.037 10.6646 124.149 9.37609 127.788 9.37598ZM94.9434 0C95.6925 0 96.3428 0.266637 96.8936 0.799805C97.4442 1.34874 97.7187 2.00412 97.7188 2.7666V32.9473C97.7188 33.7241 97.4443 34.3727 96.8936 34.8916C96.3428 35.4406 95.6925 35.7139 94.9434 35.7139H94.874C94.1252 35.7138 93.4754 35.4403 92.9248 34.8916C92.3741 34.3727 92.0996 33.7241 92.0996 32.9473V2.7666C92.0996 2.00412 92.3741 1.34874 92.9248 0.799805C93.4754 0.266885 94.1252 0.000101142 94.874 0H94.9434ZM106.984 0C107.733 0 108.384 0.266682 108.935 0.799805C109.485 1.34874 109.76 2.00412 109.76 2.7666V32.9473C109.76 33.7241 109.485 34.3727 108.935 34.8916C108.384 35.4405 107.733 35.7139 106.984 35.7139H106.916C106.167 35.7139 105.517 35.4405 104.966 34.8916C104.415 34.3727 104.141 33.7241 104.141 32.9473V2.7666C104.141 2.00412 104.415 1.34874 104.966 0.799805C105.516 0.266738 106.167 0 106.916 0H106.984ZM13.2119 9.2207C16.8511 9.22075 19.7204 10.3536 22.5469 13.085V13.084C24.6503 15.284 26.4238 18.7619 26.4238 22.3896V32.793C26.4238 33.5697 26.1483 34.2175 25.5977 34.7363C25.047 35.2851 24.3974 35.5595 23.6484 35.5596H23.5791C22.83 35.5596 22.1796 35.2853 21.6289 34.7363C21.0784 34.2175 20.8028 33.5696 20.8027 32.793V31.8477C20.7754 32.5928 20.446 33.1005 20.1973 33.3672C20.1082 33.4445 20.0162 33.5178 19.9229 33.5908C18.2448 34.9023 16.0086 35.5605 13.2119 35.5605C9.57261 35.5605 6.46087 34.2719 3.87695 31.6963C1.293 29.1205 0 26.017 0 22.3906C4.63156e-05 18.7643 1.29304 15.6607 3.87695 13.085C6.46083 10.5095 9.5727 9.2207 13.2119 9.2207ZM13.2119 14.8213C11.101 14.8213 9.30379 15.5613 7.82129 17.0391C6.35317 18.5183 5.61914 20.2869 5.61914 22.3896C5.6192 24.4923 6.35323 26.284 7.82129 27.7617C9.30518 29.225 11.1012 29.958 13.2119 29.958C14.4771 29.958 15.6259 29.691 16.6611 29.165C16.6654 29.1636 16.6696 29.1616 16.6738 29.1602C18.0527 28.6126 19.773 28.7419 20.459 30.2725C20.6919 30.7942 20.7898 31.2519 20.8027 31.6504V31.6484L20.7969 22.6816C20.8012 22.5857 20.8037 22.4884 20.8037 22.3896C20.8037 20.3013 20.0616 18.5183 18.5791 17.0391C17.0952 15.5613 15.3227 14.8213 13.2119 14.8213ZM74.0703 15.0234C71.9595 15.0235 70.1636 15.7635 68.6797 17.2412C67.2118 18.7203 66.4786 20.5103 66.4785 22.6143C66.4785 24.7184 67.2116 26.4866 68.6797 27.9658C70.1621 29.4449 71.9596 30.1826 74.0703 30.1826C76.1811 30.1826 77.9546 29.4435 79.4385 27.9658C80.921 26.488 81.6631 24.7041 81.6631 22.6143C81.663 20.5247 80.9208 18.7203 79.4385 17.2412C77.9545 15.7634 76.1654 15.0234 74.0703 15.0234ZM127.788 15.0234C125.677 15.0235 123.881 15.7635 122.397 17.2412C120.93 18.7203 120.196 20.5104 120.196 22.6143C120.196 24.7184 120.929 26.4866 122.397 27.9658C123.88 29.4449 125.677 30.1825 127.788 30.1826C129.899 30.1826 131.672 29.4434 133.156 27.9658C134.639 26.488 135.381 24.7041 135.381 22.6143C135.381 20.5246 134.639 18.7203 133.156 17.2412C131.672 15.7634 129.883 15.0234 127.788 15.0234Z" fill="#FFD93B"/>
</svg>
