<svg width="26" height="26" viewBox="0 0 26 26" fill="none" xmlns="http://www.w3.org/2000/svg">
<path d="M13 25C19.627 25 25 19.6274 25 13C25 6.3726 19.627 1 13 1C6.373 1 1 6.3726 1 13C1 19.6274 6.373 25 13 25Z" fill="#7B47CC" stroke="white" stroke-width="1.5" stroke-linecap="round" stroke-linejoin="round"/>
<path d="M17.167 16.5229C19.109 16.9805 20.5 18.2153 20.5 19.6666" stroke="#FFD93B" stroke-width="1.5" stroke-linecap="round" stroke-linejoin="round"/>
<path d="M5.5 19.6667C5.5 17.8258 7.739 16.3334 10.5 16.3334C13.261 16.3334 15.5 17.8258 15.5 19.6667" stroke="white" stroke-width="1.5" stroke-linecap="round" stroke-linejoin="round"/>
<path d="M15.5 13.8333C17.341 13.8333 18.833 12.3409 18.833 10.5C18.833 8.65902 17.341 7.16663 15.5 7.16663" stroke="#FFD93B" stroke-width="1.5" stroke-linecap="round" stroke-linejoin="round"/>
<path d="M10.5 13.8333C12.341 13.8333 13.833 12.3409 13.833 10.5C13.833 8.65902 12.341 7.16663 10.5 7.16663C8.65898 7.16663 7.16699 8.65902 7.16699 10.5C7.16699 12.3409 8.65898 13.8333 10.5 13.8333Z" fill="#9367DA" stroke="white" stroke-width="1.5" stroke-linecap="round" stroke-linejoin="round"/>
</svg>
