<svg width="20" height="15" viewBox="0 0 20 15" fill="none" xmlns="http://www.w3.org/2000/svg">
<g clip-path="url(#clip0_3364_15509)">
<rect width="20" height="15" rx="3" fill="white"/>
<g clip-path="url(#clip1_3364_15509)">
<rect width="20" height="15" rx="2" fill="white"/>
<path fill-rule="evenodd" clip-rule="evenodd" d="M0 0V15H20V0H0Z" fill="#F7FCFF"/>
<mask id="mask0_3364_15509" style="mask-type:luminance" maskUnits="userSpaceOnUse" x="0" y="0" width="20" height="15">
<path fill-rule="evenodd" clip-rule="evenodd" d="M0 0V15H20V0H0Z" fill="white"/>
</mask>
<g mask="url(#mask0_3364_15509)">
<path fill-rule="evenodd" clip-rule="evenodd" d="M15.3546 2.9745C15.3546 2.9745 12.0532 4.79827 11.6377 4.91367C11.2221 5.02903 11.4994 5.09835 10.7835 5.05222C10.068 5.00604 8.65973 5.30969 8.33656 5.10192C8.01332 4.89401 7.89788 4.52471 7.87495 5.14815C7.85179 5.77131 8.3599 6.30229 7.71326 6.34852C7.0671 6.39461 6.99767 5.79425 6.55923 6.16384C6.12055 6.53305 5.75114 7.36422 5.47399 7.15645C5.19701 6.94854 4.80467 6.39461 4.92011 6.92559C5.03531 7.45648 5.38165 8.79373 6.4898 8.81687C7.59805 8.84005 7.8287 8.44752 7.87495 8.77078C7.92097 9.09386 8.4059 9.13999 8.52119 8.72446C8.6368 8.30893 9.58326 9.18789 10.0911 8.74926C10.5989 8.31073 11.0144 7.94129 11.1762 7.68734C11.3377 7.43339 11.8918 7.47967 12.4227 7.47967C12.9537 7.47967 13.7384 7.71043 13.3229 7.20268C12.9076 6.69459 12.1918 6.46388 12.6075 5.95598C13.0228 5.44814 16.5494 3.75944 16.7111 3.57471C16.8726 3.39004 15.8393 2.69751 15.3546 2.9745Z" fill="#F57A01"/>
<path fill-rule="evenodd" clip-rule="evenodd" d="M15.3546 2.9745C15.3546 2.9745 12.0532 4.79827 11.6377 4.91367C11.2221 5.02903 11.4994 5.09835 10.7835 5.05222C10.068 5.00604 8.65973 5.30969 8.33656 5.10192C8.01332 4.89401 7.89788 4.52471 7.87495 5.14815C7.85179 5.77131 8.3599 6.30229 7.71326 6.34852C7.0671 6.39461 6.99767 5.79425 6.55923 6.16384C6.12055 6.53305 5.75114 7.36422 5.47399 7.15645C5.19701 6.94854 4.80467 6.39461 4.92011 6.92559C5.03531 7.45648 5.38165 8.79373 6.4898 8.81687C7.59805 8.84005 7.8287 8.44752 7.87495 8.77078C7.92097 9.09386 8.4059 9.13999 8.52119 8.72446C8.6368 8.30893 9.58326 9.18789 10.0911 8.74926C10.5989 8.31073 11.0144 7.94129 11.1762 7.68734C11.3377 7.43339 11.8918 7.47967 12.4227 7.47967C12.9537 7.47967 13.7384 7.71043 13.3229 7.20268C12.9076 6.69459 12.1918 6.46388 12.6075 5.95598C13.0228 5.44814 16.5494 3.75944 16.7111 3.57471C16.8726 3.39004 15.8393 2.69751 15.3546 2.9745Z" fill="url(#paint0_linear_3364_15509)"/>
<path d="M13.2799 10.0645C14.9188 10.0645 12.0997 12.7195 10.276 12.7197C10.276 12.7197 10.0885 12.702 9.93321 12.624C9.78006 12.7011 9.59555 12.7192 9.59044 12.7197C7.76674 12.7197 5.18103 10.0646 6.81993 10.0645C8.4588 10.0645 9.8668 11.8887 9.8668 11.8887C9.89106 11.9129 9.91166 11.9381 9.93223 11.9609C9.95292 11.9379 9.97421 11.9131 9.99864 11.8887C9.99864 11.8887 11.6411 10.0648 13.2799 10.0645Z" fill="#006B49"/>
<path d="M13.2799 10.0645C14.9188 10.0645 12.0997 12.7195 10.276 12.7197C10.276 12.7197 10.0885 12.702 9.93321 12.624C9.78006 12.7011 9.59555 12.7192 9.59044 12.7197C7.76674 12.7197 5.18103 10.0646 6.81993 10.0645C8.4588 10.0645 9.8668 11.8887 9.8668 11.8887C9.89106 11.9129 9.91166 11.9381 9.93223 11.9609C9.95292 11.9379 9.97421 11.9131 9.99864 11.8887C9.99864 11.8887 11.6411 10.0648 13.2799 10.0645Z" fill="url(#paint1_linear_3364_15509)"/>
</g>
</g>
</g>
<rect x="0.5" y="0.5" width="19" height="14" rx="2.5" stroke="white"/>
<defs>
<linearGradient id="paint0_linear_3364_15509" x1="18.75" y1="11.25" x2="18.75" y2="1.25" gradientUnits="userSpaceOnUse">
<stop stop-color="#EA5113"/>
<stop offset="1" stop-color="#FC9B58"/>
</linearGradient>
<linearGradient id="paint1_linear_3364_15509" x1="13.7731" y1="12.7197" x2="13.7731" y2="10.0645" gradientUnits="userSpaceOnUse">
<stop stop-color="#008057"/>
<stop offset="1" stop-color="#00B77C"/>
</linearGradient>
<clipPath id="clip0_3364_15509">
<rect width="20" height="15" rx="3" fill="white"/>
</clipPath>
<clipPath id="clip1_3364_15509">
<rect width="20" height="15" rx="2" fill="white"/>
</clipPath>
</defs>
</svg>
